G04 #@! TF.FileFunction,Soldermask,Bot*
%FSLAX46Y46*%
G04 Gerber Fmt 4.6, Leading zero omitted, Abs format (unit mm)*
G04 Created by KiCad (PCBNEW 4.0.7) date 05/06/19 05:29:45*
%MOMM*%
%LPD*%
G01*
G04 APERTURE LIST*
%ADD10C,0.100000*%
%ADD11R,1.852400X1.852400*%
%ADD12O,1.852400X1.852400*%
%ADD13R,12.472400X3.977400*%
%ADD14R,4.152400X4.152400*%
%ADD15C,4.152400*%
%ADD16R,2.552400X2.552400*%
%ADD17C,2.552400*%
%ADD18R,3.200400X1.803400*%
%ADD19R,6.248400X6.248400*%
%ADD20R,2.452400X2.652400*%
%ADD21R,2.652400X2.452400*%
%ADD22R,3.152400X3.152400*%
%ADD23C,3.152400*%
%ADD24C,2.184400*%
%ADD25R,1.852400X2.152400*%
%ADD26R,2.152400X1.852400*%
%ADD27C,1.295400*%
%ADD28R,1.152400X1.402400*%
%ADD29R,1.402400X1.152400*%
%ADD30R,1.452400X0.852400*%
G04 APERTURE END LIST*
D10*
D11*
X160147000Y-153289000D03*
D12*
X160147000Y-155829000D03*
X157607000Y-153289000D03*
X157607000Y-155829000D03*
X155067000Y-153289000D03*
X155067000Y-155829000D03*
X152527000Y-153289000D03*
X152527000Y-155829000D03*
X149987000Y-153289000D03*
X149987000Y-155829000D03*
X147447000Y-153289000D03*
X147447000Y-155829000D03*
X144907000Y-153289000D03*
X144907000Y-155829000D03*
X142367000Y-153289000D03*
X142367000Y-155829000D03*
D11*
X120142000Y-155829000D03*
D12*
X120142000Y-153289000D03*
X122682000Y-155829000D03*
X122682000Y-153289000D03*
X125222000Y-155829000D03*
X125222000Y-153289000D03*
X127762000Y-155829000D03*
X127762000Y-153289000D03*
X130302000Y-155829000D03*
X130302000Y-153289000D03*
X132842000Y-155829000D03*
X132842000Y-153289000D03*
X135382000Y-155829000D03*
X135382000Y-153289000D03*
X137922000Y-155829000D03*
X137922000Y-153289000D03*
D13*
X127127000Y-137281500D03*
X127127000Y-121036500D03*
D14*
X110934000Y-118682000D03*
D15*
X110934000Y-108682000D03*
D14*
X110934000Y-131382000D03*
D15*
X110934000Y-141382000D03*
D16*
X141732000Y-118364000D03*
D17*
X141732000Y-125864000D03*
D16*
X117284000Y-87566000D03*
D17*
X109784000Y-87566000D03*
D18*
X136017000Y-106680000D03*
D19*
X142367000Y-104394000D03*
D18*
X136017000Y-102108000D03*
X135382000Y-83820000D03*
D19*
X141732000Y-81534000D03*
D18*
X135382000Y-79248000D03*
D20*
X148082000Y-102734000D03*
X148082000Y-98434000D03*
X148082000Y-106689000D03*
X148082000Y-110989000D03*
X148082000Y-84464000D03*
X148082000Y-88764000D03*
X148082000Y-79874000D03*
X148082000Y-75574000D03*
D21*
X137677000Y-62484000D03*
X141977000Y-62484000D03*
D20*
X148082000Y-64144000D03*
X148082000Y-68444000D03*
D11*
X140462000Y-147574000D03*
D12*
X143002000Y-147574000D03*
X145542000Y-147574000D03*
D11*
X160147000Y-148209000D03*
D12*
X157607000Y-148209000D03*
X155067000Y-148209000D03*
D11*
X162687000Y-145034000D03*
D12*
X162687000Y-142494000D03*
X162687000Y-139954000D03*
D22*
X137922000Y-98679000D03*
D23*
X143002000Y-98679000D03*
D22*
X137922000Y-110109000D03*
D23*
X143002000Y-110109000D03*
D22*
X137922000Y-87249000D03*
D23*
X143002000Y-87249000D03*
D22*
X137922000Y-75819000D03*
D23*
X143002000Y-75819000D03*
D22*
X137922000Y-66929000D03*
D23*
X143002000Y-66929000D03*
D24*
X117442000Y-133079000D03*
X110142000Y-115079000D03*
D25*
X153797000Y-124174000D03*
X153797000Y-120174000D03*
D26*
X160242000Y-103124000D03*
X156242000Y-103124000D03*
X160242000Y-80264000D03*
X156242000Y-80264000D03*
D25*
X160782000Y-62389000D03*
X160782000Y-66389000D03*
D27*
X156972000Y-124079000D03*
X156972000Y-119634000D03*
X162687000Y-103124000D03*
X162687000Y-106299000D03*
X162687000Y-80264000D03*
X162687000Y-83439000D03*
X160782000Y-60579000D03*
X163322000Y-66929000D03*
D28*
X156702000Y-143764000D03*
X154702000Y-143764000D03*
X158512000Y-143764000D03*
X160512000Y-143764000D03*
X156702000Y-145669000D03*
X154702000Y-145669000D03*
X156702000Y-141859000D03*
X154702000Y-141859000D03*
D29*
X151892000Y-134001000D03*
X151892000Y-136001000D03*
X149987000Y-134001000D03*
X149987000Y-136001000D03*
X113157000Y-114919000D03*
X113157000Y-112919000D03*
X110934000Y-135462000D03*
X110934000Y-137462000D03*
X137922000Y-123714000D03*
X137922000Y-125714000D03*
X144907000Y-123714000D03*
X144907000Y-125714000D03*
X141732000Y-121174000D03*
X141732000Y-123174000D03*
D28*
X114474000Y-87566000D03*
X112474000Y-87566000D03*
D29*
X156337000Y-133969000D03*
X156337000Y-131969000D03*
X118872000Y-99679000D03*
X118872000Y-97679000D03*
X132207000Y-108569000D03*
X132207000Y-106569000D03*
X118237000Y-76819000D03*
X118237000Y-74819000D03*
X131572000Y-85709000D03*
X131572000Y-83709000D03*
D28*
X136382000Y-113284000D03*
X134382000Y-113284000D03*
X136382000Y-95504000D03*
X134382000Y-95504000D03*
X136382000Y-90424000D03*
X134382000Y-90424000D03*
X136382000Y-72644000D03*
X134382000Y-72644000D03*
D29*
X145542000Y-97774000D03*
X145542000Y-95774000D03*
X145542000Y-111649000D03*
X145542000Y-113649000D03*
X145542000Y-89424000D03*
X145542000Y-91424000D03*
X145542000Y-74914000D03*
X145542000Y-72914000D03*
X159512000Y-97679000D03*
X159512000Y-99679000D03*
X159512000Y-106569000D03*
X159512000Y-108569000D03*
X159512000Y-83709000D03*
X159512000Y-85709000D03*
X159512000Y-74819000D03*
X159512000Y-76819000D03*
D28*
X156702000Y-139954000D03*
X154702000Y-139954000D03*
X156702000Y-138049000D03*
X154702000Y-138049000D03*
D29*
X131572000Y-65389000D03*
X131572000Y-63389000D03*
D28*
X136382000Y-70104000D03*
X134382000Y-70104000D03*
D29*
X145542000Y-69104000D03*
X145542000Y-71104000D03*
X158242000Y-63389000D03*
X158242000Y-65389000D03*
D28*
X156702000Y-136144000D03*
X154702000Y-136144000D03*
D30*
X137922000Y-119954000D03*
X137922000Y-121854000D03*
X144907000Y-119954000D03*
X144907000Y-121854000D03*
D29*
X131572000Y-128794000D03*
X131572000Y-130794000D03*
D11*
X129667000Y-145034000D03*
D12*
X132207000Y-145034000D03*
X134747000Y-145034000D03*
D11*
X111887000Y-70104000D03*
M02*
