G04 #@! TF.FileFunction,Paste,Bot*
%FSLAX46Y46*%
G04 Gerber Fmt 4.6, Leading zero omitted, Abs format (unit mm)*
G04 Created by KiCad (PCBNEW 4.0.7) date 05/06/19 05:29:44*
%MOMM*%
%LPD*%
G01*
G04 APERTURE LIST*
%ADD10C,0.100000*%
%ADD11R,12.320000X3.825000*%
%ADD12R,3.048000X1.651000*%
%ADD13R,6.096000X6.096000*%
%ADD14R,2.300000X2.500000*%
%ADD15R,2.500000X2.300000*%
%ADD16R,1.700000X2.000000*%
%ADD17R,2.000000X1.700000*%
%ADD18R,1.000000X1.250000*%
%ADD19R,1.250000X1.000000*%
%ADD20R,1.300000X0.700000*%
G04 APERTURE END LIST*
D10*
D11*
X127127000Y-137281500D03*
X127127000Y-121036500D03*
D12*
X136017000Y-106680000D03*
D13*
X142367000Y-104394000D03*
D12*
X136017000Y-102108000D03*
X135382000Y-83820000D03*
D13*
X141732000Y-81534000D03*
D12*
X135382000Y-79248000D03*
D14*
X148082000Y-102734000D03*
X148082000Y-98434000D03*
X148082000Y-106689000D03*
X148082000Y-110989000D03*
X148082000Y-84464000D03*
X148082000Y-88764000D03*
X148082000Y-79874000D03*
X148082000Y-75574000D03*
D15*
X137677000Y-62484000D03*
X141977000Y-62484000D03*
D14*
X148082000Y-64144000D03*
X148082000Y-68444000D03*
D16*
X153797000Y-124174000D03*
X153797000Y-120174000D03*
D17*
X160242000Y-103124000D03*
X156242000Y-103124000D03*
X160242000Y-80264000D03*
X156242000Y-80264000D03*
D16*
X160782000Y-62389000D03*
X160782000Y-66389000D03*
D18*
X156702000Y-143764000D03*
X154702000Y-143764000D03*
X158512000Y-143764000D03*
X160512000Y-143764000D03*
X156702000Y-145669000D03*
X154702000Y-145669000D03*
X156702000Y-141859000D03*
X154702000Y-141859000D03*
D19*
X151892000Y-134001000D03*
X151892000Y-136001000D03*
X149987000Y-134001000D03*
X149987000Y-136001000D03*
X113157000Y-114919000D03*
X113157000Y-112919000D03*
X110934000Y-135462000D03*
X110934000Y-137462000D03*
X137922000Y-123714000D03*
X137922000Y-125714000D03*
X144907000Y-123714000D03*
X144907000Y-125714000D03*
X141732000Y-121174000D03*
X141732000Y-123174000D03*
D18*
X114474000Y-87566000D03*
X112474000Y-87566000D03*
D19*
X156337000Y-133969000D03*
X156337000Y-131969000D03*
X118872000Y-99679000D03*
X118872000Y-97679000D03*
X132207000Y-108569000D03*
X132207000Y-106569000D03*
X118237000Y-76819000D03*
X118237000Y-74819000D03*
X131572000Y-85709000D03*
X131572000Y-83709000D03*
D18*
X136382000Y-113284000D03*
X134382000Y-113284000D03*
X136382000Y-95504000D03*
X134382000Y-95504000D03*
X136382000Y-90424000D03*
X134382000Y-90424000D03*
X136382000Y-72644000D03*
X134382000Y-72644000D03*
D19*
X145542000Y-97774000D03*
X145542000Y-95774000D03*
X145542000Y-111649000D03*
X145542000Y-113649000D03*
X145542000Y-89424000D03*
X145542000Y-91424000D03*
X145542000Y-74914000D03*
X145542000Y-72914000D03*
X159512000Y-97679000D03*
X159512000Y-99679000D03*
X159512000Y-106569000D03*
X159512000Y-108569000D03*
X159512000Y-83709000D03*
X159512000Y-85709000D03*
X159512000Y-74819000D03*
X159512000Y-76819000D03*
D18*
X156702000Y-139954000D03*
X154702000Y-139954000D03*
X156702000Y-138049000D03*
X154702000Y-138049000D03*
D19*
X131572000Y-65389000D03*
X131572000Y-63389000D03*
D18*
X136382000Y-70104000D03*
X134382000Y-70104000D03*
D19*
X145542000Y-69104000D03*
X145542000Y-71104000D03*
X158242000Y-63389000D03*
X158242000Y-65389000D03*
D18*
X156702000Y-136144000D03*
X154702000Y-136144000D03*
D20*
X137922000Y-119954000D03*
X137922000Y-121854000D03*
X144907000Y-119954000D03*
X144907000Y-121854000D03*
D19*
X131572000Y-128794000D03*
X131572000Y-130794000D03*
M02*
