G04 #@! TF.FileFunction,Profile,NP*
%FSLAX46Y46*%
G04 Gerber Fmt 4.6, Leading zero omitted, Abs format (unit mm)*
G04 Created by KiCad (PCBNEW 4.0.7) date 05/06/19 05:29:45*
%MOMM*%
%LPD*%
G01*
G04 APERTURE LIST*
%ADD10C,0.100000*%
%ADD11C,0.127000*%
G04 APERTURE END LIST*
D10*
D11*
X127127000Y-141859000D02*
G75*
G03X127127000Y-141859000I-1270000J0D01*
G01*
X109108666Y-157734000D02*
G75*
G03X109108666Y-157734000I-1666666J0D01*
G01*
X104942000Y-157734000D02*
X109942000Y-157734000D01*
X107442000Y-155234000D02*
X107442000Y-160234000D01*
X109108666Y-157734000D02*
G75*
G03X109108666Y-157734000I-1666666J0D01*
G01*
X104942000Y-157734000D02*
X109942000Y-157734000D01*
X107442000Y-155234000D02*
X107442000Y-160234000D01*
X127127000Y-113919000D02*
G75*
G03X127127000Y-113919000I-1270000J0D01*
G01*
X154432000Y-113919000D02*
G75*
G03X154432000Y-113919000I-1270000J0D01*
G01*
X127127000Y-91694000D02*
G75*
G03X127127000Y-91694000I-1270000J0D01*
G01*
X154432000Y-91694000D02*
G75*
G03X154432000Y-91694000I-1270000J0D01*
G01*
X154432000Y-70104000D02*
G75*
G03X154432000Y-70104000I-1270000J0D01*
G01*
X127127000Y-70104000D02*
G75*
G03X127127000Y-70104000I-1270000J0D01*
G01*
X111887000Y-154559000D02*
G75*
G03X111887000Y-154559000I-1270000J0D01*
G01*
X166497000Y-154559000D02*
G75*
G03X166497000Y-154559000I-1270000J0D01*
G01*
X166497000Y-64389000D02*
G75*
G03X166497000Y-64389000I-1270000J0D01*
G01*
X111887000Y-64389000D02*
G75*
G03X111887000Y-64389000I-1270000J0D01*
G01*
X107442000Y-157734000D02*
X168402000Y-157734000D01*
X107442000Y-58674000D02*
X107442000Y-157734000D01*
X168402000Y-58674000D02*
X107442000Y-58674000D01*
X168402000Y-157734000D02*
X168402000Y-58674000D01*
M02*
