M48
;DRILL file {KiCad 4.0.7} date 05/06/19 05:29:47
;FORMAT={-:-/ absolute / inch / decimal}
FMAT,2
INCH,TZ
T1C0.008
T2C0.013
T3C0.025
T4C0.039
T5C0.047
T6C0.047
T7C0.050
T8C0.060
T9C0.079
%
G90
G05
M72
T1
X5.8316Y-5.4116
X5.8316Y-5.4509
X5.8316Y-5.4903
X5.8316Y-5.5297
X5.8316Y-5.5691
X5.8316Y-5.6084
X5.8709Y-5.4116
X5.8709Y-5.4509
X5.8709Y-5.4903
X5.8709Y-5.5297
X5.8709Y-5.5691
X5.8709Y-5.6084
X5.9103Y-5.4116
X5.9103Y-5.4509
X5.9103Y-5.4903
X5.9103Y-5.5297
X5.9103Y-5.5691
X5.9103Y-5.6084
X5.9497Y-5.4116
X5.9497Y-5.4509
X5.9497Y-5.4903
X5.9497Y-5.5297
X5.9497Y-5.5691
X5.9497Y-5.6084
X5.9891Y-5.4116
X5.9891Y-5.4509
X5.9891Y-5.4903
X5.9891Y-5.5297
X5.9891Y-5.5691
X5.9891Y-5.6084
X6.0284Y-5.4116
X6.0284Y-5.4509
X6.0284Y-5.4903
X6.0284Y-5.5297
X6.0284Y-5.5691
X6.0284Y-5.6084
T2
X4.43Y-5.435
X4.505Y-4.46
X4.705Y-2.96
X4.705Y-3.01
X4.73Y-3.86
X4.73Y-3.91
X4.755Y-3.26
X4.755Y-4.16
X5.13Y-5.9572
X5.151Y-4.21
X5.151Y-4.26
X5.175Y-2.82
X5.18Y-3.635
X5.1867Y-4.5283
X5.2182Y-4.5468
X5.23Y-2.51
X5.23Y-2.56
X5.23Y-3.31
X5.23Y-3.36
X5.25Y-5.505
X5.2524Y-5.1626
X5.28Y-2.81
X5.28Y-3.51
X5.2943Y-4.4099
X5.2943Y-3.81
X5.3621Y-5.9295
X5.405Y-5.46
X5.405Y-5.61
X5.405Y-5.685
X5.4067Y-5.6493
X5.4212Y-5.2938
X5.43Y-2.635
X5.485Y-5.375
X5.505Y-6.135
X5.58Y-3.21
X5.6Y-5.1703
X5.605Y-5.454
X5.605Y-4.11
X5.655Y-5.06
X5.68Y-2.46
X5.68Y-2.835
X5.68Y-3.61
X5.68Y-3.76
X5.68Y-4.46
X5.73Y-5.2363
X5.755Y-5.9572
X5.7677Y-5.3577
X5.78Y-2.41
X5.8607Y-5.0055
X5.8982Y-5.6509
X5.9034Y-5.2095
X5.9124Y-5.0078
X5.936Y-5.2191
X5.9579Y-5.0166
X5.9709Y-5.914
X5.975Y-5.15
X5.9852Y-5.8813
X5.9927Y-5.0338
X6.005Y-5.924
X6.018Y-5.6509
X6.0228Y-5.0518
X6.0481Y-5.0746
X6.055Y-4.66
X6.062Y-5.7999
X6.0697Y-5.9128
X6.0719Y-5.1023
X6.0801Y-5.1353
X6.105Y-3.51
X6.155Y-5.31
X6.155Y-5.785
X6.18Y-3.71
X6.205Y-2.835
X6.205Y-5.185
X6.215Y-5.71
X6.2292Y-5.5327
X6.23Y-2.96
X6.23Y-3.86
X6.24Y-5.565
X6.25Y-5.6
X6.28Y-2.535
X6.28Y-5.31
X6.3Y-5.48
X6.33Y-3.01
X6.33Y-3.31
X6.33Y-3.36
X6.33Y-3.91
X6.33Y-4.21
X6.33Y-4.26
X6.385Y-5.44
X6.465Y-5.4
T3
X6.18Y-4.71
X6.18Y-4.885
X6.33Y-2.385
X6.405Y-3.16
X6.405Y-3.285
X6.405Y-4.06
X6.405Y-4.185
X6.43Y-2.635
T4
X4.405Y-2.76
X4.73Y-6.035
X4.73Y-6.135
X4.83Y-6.035
X4.83Y-6.135
X4.93Y-6.035
X4.93Y-6.135
X5.03Y-6.035
X5.03Y-6.135
X5.105Y-5.71
X5.13Y-6.035
X5.13Y-6.135
X5.205Y-5.71
X5.23Y-6.035
X5.23Y-6.135
X5.305Y-5.71
X5.33Y-6.035
X5.33Y-6.135
X5.43Y-6.035
X5.43Y-6.135
X5.53Y-5.81
X5.605Y-6.035
X5.605Y-6.135
X5.63Y-5.81
X5.705Y-6.035
X5.705Y-6.135
X5.73Y-5.81
X5.805Y-6.035
X5.805Y-6.135
X5.905Y-6.035
X5.905Y-6.135
X6.005Y-6.035
X6.005Y-6.135
X6.105Y-5.835
X6.105Y-6.035
X6.105Y-6.135
X6.205Y-5.835
X6.205Y-6.035
X6.205Y-6.135
X6.305Y-5.835
X6.305Y-6.035
X6.305Y-6.135
X6.405Y-5.51
X6.405Y-5.61
X6.405Y-5.71
T5
X5.255Y-4.86
X5.2645Y-5.0107
X6.08Y-3.16
X6.08Y-4.06
T6
X4.3222Y-3.4475
X4.6175Y-3.4475
X5.58Y-4.66
X5.58Y-4.9553
T7
X4.3363Y-4.5307
X4.6237Y-5.2393
T8
X5.43Y-2.635
X5.43Y-2.985
X5.43Y-3.435
X5.43Y-3.885
X5.43Y-4.335
X5.63Y-2.635
X5.63Y-2.985
X5.63Y-3.435
X5.63Y-3.885
X5.63Y-4.335
T9
X4.3675Y-4.2788
X4.3675Y-4.6725
X4.3675Y-5.1725
X4.3675Y-5.5662
T0
M30
