G04 #@! TF.FileFunction,Legend,Top*
%FSLAX46Y46*%
G04 Gerber Fmt 4.6, Leading zero omitted, Abs format (unit mm)*
G04 Created by KiCad (PCBNEW 4.0.7) date 05/06/19 05:29:45*
%MOMM*%
%LPD*%
G01*
G04 APERTURE LIST*
%ADD10C,0.100000*%
%ADD11C,0.127000*%
%ADD12C,0.101600*%
%ADD13C,0.120000*%
%ADD14C,0.150000*%
G04 APERTURE END LIST*
D10*
D11*
X118521239Y-146763619D02*
X118521239Y-145747619D01*
X118859905Y-146473333D01*
X119198572Y-145747619D01*
X119198572Y-146763619D01*
X120262953Y-146666857D02*
X120214572Y-146715238D01*
X120069429Y-146763619D01*
X119972667Y-146763619D01*
X119827525Y-146715238D01*
X119730763Y-146618476D01*
X119682382Y-146521714D01*
X119634001Y-146328190D01*
X119634001Y-146183048D01*
X119682382Y-145989524D01*
X119730763Y-145892762D01*
X119827525Y-145796000D01*
X119972667Y-145747619D01*
X120069429Y-145747619D01*
X120214572Y-145796000D01*
X120262953Y-145844381D01*
X120601620Y-145747619D02*
X121230572Y-145747619D01*
X120891906Y-146134667D01*
X121037048Y-146134667D01*
X121133810Y-146183048D01*
X121182191Y-146231429D01*
X121230572Y-146328190D01*
X121230572Y-146570095D01*
X121182191Y-146666857D01*
X121133810Y-146715238D01*
X121037048Y-146763619D01*
X120746763Y-146763619D01*
X120650001Y-146715238D01*
X120601620Y-146666857D01*
X121569239Y-145747619D02*
X122198191Y-145747619D01*
X121859525Y-146134667D01*
X122004667Y-146134667D01*
X122101429Y-146183048D01*
X122149810Y-146231429D01*
X122198191Y-146328190D01*
X122198191Y-146570095D01*
X122149810Y-146666857D01*
X122101429Y-146715238D01*
X122004667Y-146763619D01*
X121714382Y-146763619D01*
X121617620Y-146715238D01*
X121569239Y-146666857D01*
X122778763Y-146183048D02*
X122682001Y-146134667D01*
X122633620Y-146086286D01*
X122585239Y-145989524D01*
X122585239Y-145941143D01*
X122633620Y-145844381D01*
X122682001Y-145796000D01*
X122778763Y-145747619D01*
X122972286Y-145747619D01*
X123069048Y-145796000D01*
X123117429Y-145844381D01*
X123165810Y-145941143D01*
X123165810Y-145989524D01*
X123117429Y-146086286D01*
X123069048Y-146134667D01*
X122972286Y-146183048D01*
X122778763Y-146183048D01*
X122682001Y-146231429D01*
X122633620Y-146279810D01*
X122585239Y-146376571D01*
X122585239Y-146570095D01*
X122633620Y-146666857D01*
X122682001Y-146715238D01*
X122778763Y-146763619D01*
X122972286Y-146763619D01*
X123069048Y-146715238D01*
X123117429Y-146666857D01*
X123165810Y-146570095D01*
X123165810Y-146376571D01*
X123117429Y-146279810D01*
X123069048Y-146231429D01*
X122972286Y-146183048D01*
X124133429Y-146763619D02*
X123552858Y-146763619D01*
X123843144Y-146763619D02*
X123843144Y-145747619D01*
X123746382Y-145892762D01*
X123649620Y-145989524D01*
X123552858Y-146037905D01*
X125004286Y-145747619D02*
X124810763Y-145747619D01*
X124714001Y-145796000D01*
X124665620Y-145844381D01*
X124568858Y-145989524D01*
X124520477Y-146183048D01*
X124520477Y-146570095D01*
X124568858Y-146666857D01*
X124617239Y-146715238D01*
X124714001Y-146763619D01*
X124907524Y-146763619D01*
X125004286Y-146715238D01*
X125052667Y-146666857D01*
X125101048Y-146570095D01*
X125101048Y-146328190D01*
X125052667Y-146231429D01*
X125004286Y-146183048D01*
X124907524Y-146134667D01*
X124714001Y-146134667D01*
X124617239Y-146183048D01*
X124568858Y-146231429D01*
X124520477Y-146328190D01*
X116682763Y-147737286D02*
X117069811Y-147737286D01*
X116827906Y-148414619D02*
X116827906Y-147543762D01*
X116876287Y-147447000D01*
X116973049Y-147398619D01*
X117069811Y-147398619D01*
X117553620Y-148414619D02*
X117456858Y-148366238D01*
X117408477Y-148317857D01*
X117360096Y-148221095D01*
X117360096Y-147930810D01*
X117408477Y-147834048D01*
X117456858Y-147785667D01*
X117553620Y-147737286D01*
X117698762Y-147737286D01*
X117795524Y-147785667D01*
X117843905Y-147834048D01*
X117892286Y-147930810D01*
X117892286Y-148221095D01*
X117843905Y-148317857D01*
X117795524Y-148366238D01*
X117698762Y-148414619D01*
X117553620Y-148414619D01*
X118327715Y-148414619D02*
X118327715Y-147737286D01*
X118327715Y-147930810D02*
X118376096Y-147834048D01*
X118424477Y-147785667D01*
X118521239Y-147737286D01*
X118618000Y-147737286D01*
X119730762Y-148414619D02*
X119730762Y-147737286D01*
X119730762Y-147930810D02*
X119779143Y-147834048D01*
X119827524Y-147785667D01*
X119924286Y-147737286D01*
X120021047Y-147737286D01*
X120795142Y-147737286D02*
X120795142Y-148414619D01*
X120359714Y-147737286D02*
X120359714Y-148269476D01*
X120408095Y-148366238D01*
X120504857Y-148414619D01*
X120649999Y-148414619D01*
X120746761Y-148366238D01*
X120795142Y-148317857D01*
X121230571Y-148366238D02*
X121327333Y-148414619D01*
X121520857Y-148414619D01*
X121617618Y-148366238D01*
X121665999Y-148269476D01*
X121665999Y-148221095D01*
X121617618Y-148124333D01*
X121520857Y-148075952D01*
X121375714Y-148075952D01*
X121278952Y-148027571D01*
X121230571Y-147930810D01*
X121230571Y-147882429D01*
X121278952Y-147785667D01*
X121375714Y-147737286D01*
X121520857Y-147737286D01*
X121617618Y-147785667D01*
X122101428Y-147882429D02*
X122440094Y-147882429D01*
X122585237Y-148414619D02*
X122101428Y-148414619D01*
X122101428Y-147398619D01*
X122585237Y-147398619D01*
X123359332Y-147882429D02*
X123020666Y-147882429D01*
X123020666Y-148414619D02*
X123020666Y-147398619D01*
X123504475Y-147398619D01*
X123891523Y-148414619D02*
X123891523Y-147398619D01*
X124375333Y-148317857D02*
X124423714Y-148366238D01*
X124375333Y-148414619D01*
X124326952Y-148366238D01*
X124375333Y-148317857D01*
X124375333Y-148414619D01*
X125294571Y-148366238D02*
X125197809Y-148414619D01*
X125004286Y-148414619D01*
X124907524Y-148366238D01*
X124859143Y-148317857D01*
X124810762Y-148221095D01*
X124810762Y-147930810D01*
X124859143Y-147834048D01*
X124907524Y-147785667D01*
X125004286Y-147737286D01*
X125197809Y-147737286D01*
X125294571Y-147785667D01*
X125875143Y-148414619D02*
X125778381Y-148366238D01*
X125730000Y-148317857D01*
X125681619Y-148221095D01*
X125681619Y-147930810D01*
X125730000Y-147834048D01*
X125778381Y-147785667D01*
X125875143Y-147737286D01*
X126020285Y-147737286D01*
X126117047Y-147785667D01*
X126165428Y-147834048D01*
X126213809Y-147930810D01*
X126213809Y-148221095D01*
X126165428Y-148317857D01*
X126117047Y-148366238D01*
X126020285Y-148414619D01*
X125875143Y-148414619D01*
X126649238Y-148414619D02*
X126649238Y-147737286D01*
X126649238Y-147834048D02*
X126697619Y-147785667D01*
X126794381Y-147737286D01*
X126939523Y-147737286D01*
X127036285Y-147785667D01*
X127084666Y-147882429D01*
X127084666Y-148414619D01*
X127084666Y-147882429D02*
X127133047Y-147785667D01*
X127229809Y-147737286D01*
X127374952Y-147737286D01*
X127471714Y-147785667D01*
X127520095Y-147882429D01*
X127520095Y-148414619D01*
X121278952Y-150065619D02*
X120940286Y-149581810D01*
X120698381Y-150065619D02*
X120698381Y-149049619D01*
X121085428Y-149049619D01*
X121182190Y-149098000D01*
X121230571Y-149146381D01*
X121278952Y-149243143D01*
X121278952Y-149388286D01*
X121230571Y-149485048D01*
X121182190Y-149533429D01*
X121085428Y-149581810D01*
X120698381Y-149581810D01*
X121907905Y-149049619D02*
X122004666Y-149049619D01*
X122101428Y-149098000D01*
X122149809Y-149146381D01*
X122198190Y-149243143D01*
X122246571Y-149436667D01*
X122246571Y-149678571D01*
X122198190Y-149872095D01*
X122149809Y-149968857D01*
X122101428Y-150017238D01*
X122004666Y-150065619D01*
X121907905Y-150065619D01*
X121811143Y-150017238D01*
X121762762Y-149968857D01*
X121714381Y-149872095D01*
X121666000Y-149678571D01*
X121666000Y-149436667D01*
X121714381Y-149243143D01*
X121762762Y-149146381D01*
X121811143Y-149098000D01*
X121907905Y-149049619D01*
X122682000Y-149968857D02*
X122730381Y-150017238D01*
X122682000Y-150065619D01*
X122633619Y-150017238D01*
X122682000Y-149968857D01*
X122682000Y-150065619D01*
X123698000Y-150065619D02*
X123117429Y-150065619D01*
X123407715Y-150065619D02*
X123407715Y-149049619D01*
X123310953Y-149194762D01*
X123214191Y-149291524D01*
X123117429Y-149339905D01*
D12*
X164313809Y-139917714D02*
X164483143Y-139917714D01*
X164555714Y-140183810D02*
X164313809Y-140183810D01*
X164313809Y-139675810D01*
X164555714Y-139675810D01*
X164725047Y-139675810D02*
X165063714Y-140183810D01*
X165063714Y-139675810D02*
X164725047Y-140183810D01*
X165184667Y-139675810D02*
X165474953Y-139675810D01*
X165329810Y-140183810D02*
X165329810Y-139675810D01*
X165910382Y-140183810D02*
X165620096Y-140183810D01*
X165765239Y-140183810D02*
X165765239Y-139675810D01*
X165716858Y-139748381D01*
X165668477Y-139796762D01*
X165620096Y-139820952D01*
X164458952Y-142723810D02*
X164458952Y-142215810D01*
X164579905Y-142215810D01*
X164652476Y-142240000D01*
X164700857Y-142288381D01*
X164725048Y-142336762D01*
X164749238Y-142433524D01*
X164749238Y-142506095D01*
X164725048Y-142602857D01*
X164700857Y-142651238D01*
X164652476Y-142699619D01*
X164579905Y-142723810D01*
X164458952Y-142723810D01*
X165136286Y-142457714D02*
X165208857Y-142481905D01*
X165233048Y-142506095D01*
X165257238Y-142554476D01*
X165257238Y-142627048D01*
X165233048Y-142675429D01*
X165208857Y-142699619D01*
X165160476Y-142723810D01*
X164966952Y-142723810D01*
X164966952Y-142215810D01*
X165136286Y-142215810D01*
X165184667Y-142240000D01*
X165208857Y-142264190D01*
X165233048Y-142312571D01*
X165233048Y-142360952D01*
X165208857Y-142409333D01*
X165184667Y-142433524D01*
X165136286Y-142457714D01*
X164966952Y-142457714D01*
X165741048Y-142240000D02*
X165692667Y-142215810D01*
X165620095Y-142215810D01*
X165547524Y-142240000D01*
X165499143Y-142288381D01*
X165474952Y-142336762D01*
X165450762Y-142433524D01*
X165450762Y-142506095D01*
X165474952Y-142602857D01*
X165499143Y-142651238D01*
X165547524Y-142699619D01*
X165620095Y-142723810D01*
X165668476Y-142723810D01*
X165741048Y-142699619D01*
X165765238Y-142675429D01*
X165765238Y-142506095D01*
X165668476Y-142506095D01*
X164440809Y-144997714D02*
X164610143Y-144997714D01*
X164682714Y-145263810D02*
X164440809Y-145263810D01*
X164440809Y-144755810D01*
X164682714Y-144755810D01*
X164852047Y-144755810D02*
X165190714Y-145263810D01*
X165190714Y-144755810D02*
X164852047Y-145263810D01*
X165311667Y-144755810D02*
X165601953Y-144755810D01*
X165456810Y-145263810D02*
X165456810Y-144755810D01*
X165747096Y-144804190D02*
X165771286Y-144780000D01*
X165819667Y-144755810D01*
X165940620Y-144755810D01*
X165989001Y-144780000D01*
X166013191Y-144804190D01*
X166037382Y-144852571D01*
X166037382Y-144900952D01*
X166013191Y-144973524D01*
X165722905Y-145263810D01*
X166037382Y-145263810D01*
X159602714Y-150077714D02*
X159772048Y-150077714D01*
X159844619Y-150343810D02*
X159602714Y-150343810D01*
X159602714Y-149835810D01*
X159844619Y-149835810D01*
X160013952Y-149835810D02*
X160352619Y-150343810D01*
X160352619Y-149835810D02*
X160013952Y-150343810D01*
X160473572Y-149835810D02*
X160763858Y-149835810D01*
X160618715Y-150343810D02*
X160618715Y-149835810D01*
X156542619Y-149835810D02*
X156711952Y-150343810D01*
X156881286Y-149835810D01*
X157340905Y-150295429D02*
X157316715Y-150319619D01*
X157244143Y-150343810D01*
X157195762Y-150343810D01*
X157123191Y-150319619D01*
X157074810Y-150271238D01*
X157050619Y-150222857D01*
X157026429Y-150126095D01*
X157026429Y-150053524D01*
X157050619Y-149956762D01*
X157074810Y-149908381D01*
X157123191Y-149860000D01*
X157195762Y-149835810D01*
X157244143Y-149835810D01*
X157316715Y-149860000D01*
X157340905Y-149884190D01*
X157848905Y-150295429D02*
X157824715Y-150319619D01*
X157752143Y-150343810D01*
X157703762Y-150343810D01*
X157631191Y-150319619D01*
X157582810Y-150271238D01*
X157558619Y-150222857D01*
X157534429Y-150126095D01*
X157534429Y-150053524D01*
X157558619Y-149956762D01*
X157582810Y-149908381D01*
X157631191Y-149860000D01*
X157703762Y-149835810D01*
X157752143Y-149835810D01*
X157824715Y-149860000D01*
X157848905Y-149884190D01*
X158066619Y-150343810D02*
X158066619Y-149835810D01*
X158405286Y-149835810D02*
X158502048Y-149835810D01*
X158550429Y-149860000D01*
X158598810Y-149908381D01*
X158623001Y-150005143D01*
X158623001Y-150174476D01*
X158598810Y-150271238D01*
X158550429Y-150319619D01*
X158502048Y-150343810D01*
X158405286Y-150343810D01*
X158356905Y-150319619D01*
X158308524Y-150271238D01*
X158284334Y-150174476D01*
X158284334Y-150005143D01*
X158308524Y-149908381D01*
X158356905Y-149860000D01*
X158405286Y-149835810D01*
X154970238Y-149835810D02*
X154728333Y-149835810D01*
X154704143Y-150077714D01*
X154728333Y-150053524D01*
X154776714Y-150029333D01*
X154897667Y-150029333D01*
X154946048Y-150053524D01*
X154970238Y-150077714D01*
X154994429Y-150126095D01*
X154994429Y-150247048D01*
X154970238Y-150295429D01*
X154946048Y-150319619D01*
X154897667Y-150343810D01*
X154776714Y-150343810D01*
X154728333Y-150319619D01*
X154704143Y-150295429D01*
X155139572Y-149835810D02*
X155308905Y-150343810D01*
X155478239Y-149835810D01*
X129279953Y-143002000D02*
X129231572Y-142977810D01*
X129159000Y-142977810D01*
X129086429Y-143002000D01*
X129038048Y-143050381D01*
X129013857Y-143098762D01*
X128989667Y-143195524D01*
X128989667Y-143268095D01*
X129013857Y-143364857D01*
X129038048Y-143413238D01*
X129086429Y-143461619D01*
X129159000Y-143485810D01*
X129207381Y-143485810D01*
X129279953Y-143461619D01*
X129304143Y-143437429D01*
X129304143Y-143268095D01*
X129207381Y-143268095D01*
X129521857Y-143485810D02*
X129521857Y-142977810D01*
X129812143Y-143485810D01*
X129812143Y-142977810D01*
X130054047Y-143485810D02*
X130054047Y-142977810D01*
X130175000Y-142977810D01*
X130247571Y-143002000D01*
X130295952Y-143050381D01*
X130320143Y-143098762D01*
X130344333Y-143195524D01*
X130344333Y-143268095D01*
X130320143Y-143364857D01*
X130295952Y-143413238D01*
X130247571Y-143461619D01*
X130175000Y-143485810D01*
X130054047Y-143485810D01*
X131457094Y-142977810D02*
X131771571Y-142977810D01*
X131602237Y-143171333D01*
X131674809Y-143171333D01*
X131723190Y-143195524D01*
X131747380Y-143219714D01*
X131771571Y-143268095D01*
X131771571Y-143389048D01*
X131747380Y-143437429D01*
X131723190Y-143461619D01*
X131674809Y-143485810D01*
X131529666Y-143485810D01*
X131481285Y-143461619D01*
X131457094Y-143437429D01*
X131989285Y-143437429D02*
X132013476Y-143461619D01*
X131989285Y-143485810D01*
X131965095Y-143461619D01*
X131989285Y-143437429D01*
X131989285Y-143485810D01*
X132182809Y-142977810D02*
X132497286Y-142977810D01*
X132327952Y-143171333D01*
X132400524Y-143171333D01*
X132448905Y-143195524D01*
X132473095Y-143219714D01*
X132497286Y-143268095D01*
X132497286Y-143389048D01*
X132473095Y-143437429D01*
X132448905Y-143461619D01*
X132400524Y-143485810D01*
X132255381Y-143485810D01*
X132207000Y-143461619D01*
X132182809Y-143437429D01*
X132642429Y-142977810D02*
X132811762Y-143485810D01*
X132981096Y-142977810D01*
X134650238Y-142977810D02*
X134408333Y-142977810D01*
X134384143Y-143219714D01*
X134408333Y-143195524D01*
X134456714Y-143171333D01*
X134577667Y-143171333D01*
X134626048Y-143195524D01*
X134650238Y-143219714D01*
X134674429Y-143268095D01*
X134674429Y-143389048D01*
X134650238Y-143437429D01*
X134626048Y-143461619D01*
X134577667Y-143485810D01*
X134456714Y-143485810D01*
X134408333Y-143461619D01*
X134384143Y-143437429D01*
X134819572Y-142977810D02*
X134988905Y-143485810D01*
X135158239Y-142977810D01*
X144997714Y-149315714D02*
X145167048Y-149315714D01*
X145239619Y-149581810D02*
X144997714Y-149581810D01*
X144997714Y-149073810D01*
X145239619Y-149073810D01*
X145408952Y-149073810D02*
X145747619Y-149581810D01*
X145747619Y-149073810D02*
X145408952Y-149581810D01*
X145868572Y-149073810D02*
X146158858Y-149073810D01*
X146013715Y-149581810D02*
X146013715Y-149073810D01*
X142699619Y-149533429D02*
X142675429Y-149557619D01*
X142602857Y-149581810D01*
X142554476Y-149581810D01*
X142481905Y-149557619D01*
X142433524Y-149509238D01*
X142409333Y-149460857D01*
X142385143Y-149364095D01*
X142385143Y-149291524D01*
X142409333Y-149194762D01*
X142433524Y-149146381D01*
X142481905Y-149098000D01*
X142554476Y-149073810D01*
X142602857Y-149073810D01*
X142675429Y-149098000D01*
X142699619Y-149122190D01*
X143159238Y-149581810D02*
X142917333Y-149581810D01*
X142917333Y-149073810D01*
X143328571Y-149581810D02*
X143328571Y-149073810D01*
X143618857Y-149581810D02*
X143401143Y-149291524D01*
X143618857Y-149073810D02*
X143328571Y-149364095D01*
X139790714Y-149339905D02*
X139790714Y-149581810D01*
X139621381Y-149073810D02*
X139790714Y-149339905D01*
X139960048Y-149073810D01*
X140395477Y-149581810D02*
X140105191Y-149581810D01*
X140250334Y-149581810D02*
X140250334Y-149073810D01*
X140201953Y-149146381D01*
X140153572Y-149194762D01*
X140105191Y-149218952D01*
X140613191Y-149388286D02*
X141000239Y-149388286D01*
X141193762Y-149073810D02*
X141508239Y-149073810D01*
X141338905Y-149267333D01*
X141411477Y-149267333D01*
X141459858Y-149291524D01*
X141484048Y-149315714D01*
X141508239Y-149364095D01*
X141508239Y-149485048D01*
X141484048Y-149533429D01*
X141459858Y-149557619D01*
X141411477Y-149581810D01*
X141266334Y-149581810D01*
X141217953Y-149557619D01*
X141193762Y-149533429D01*
D11*
X147017619Y-111874904D02*
X146001619Y-111874904D01*
X147017619Y-111391094D02*
X146001619Y-111391094D01*
X147017619Y-110810523D01*
X146001619Y-110810523D01*
X146001619Y-110036428D02*
X146727333Y-110036428D01*
X146872476Y-110084808D01*
X146969238Y-110181570D01*
X147017619Y-110326713D01*
X147017619Y-110423475D01*
X146098381Y-109600999D02*
X146050000Y-109552618D01*
X146001619Y-109455856D01*
X146001619Y-109213952D01*
X146050000Y-109117190D01*
X146098381Y-109068809D01*
X146195143Y-109020428D01*
X146291905Y-109020428D01*
X146437048Y-109068809D01*
X147017619Y-109649380D01*
X147017619Y-109020428D01*
X146485429Y-107472238D02*
X146533810Y-107327095D01*
X146582190Y-107278714D01*
X146678952Y-107230333D01*
X146824095Y-107230333D01*
X146920857Y-107278714D01*
X146969238Y-107327095D01*
X147017619Y-107423857D01*
X147017619Y-107810904D01*
X146001619Y-107810904D01*
X146001619Y-107472238D01*
X146050000Y-107375476D01*
X146098381Y-107327095D01*
X146195143Y-107278714D01*
X146291905Y-107278714D01*
X146388667Y-107327095D01*
X146437048Y-107375476D01*
X146485429Y-107472238D01*
X146485429Y-107810904D01*
X147017619Y-106262714D02*
X147017619Y-106843285D01*
X147017619Y-106552999D02*
X146001619Y-106552999D01*
X146146762Y-106649761D01*
X146243524Y-106746523D01*
X146291905Y-106843285D01*
X147017619Y-100571904D02*
X146001619Y-100571904D01*
X147017619Y-100088094D02*
X146001619Y-100088094D01*
X147017619Y-99507523D01*
X146001619Y-99507523D01*
X146001619Y-98733428D02*
X146727333Y-98733428D01*
X146872476Y-98781808D01*
X146969238Y-98878570D01*
X147017619Y-99023713D01*
X147017619Y-99120475D01*
X147017619Y-97717428D02*
X147017619Y-98297999D01*
X147017619Y-98007713D02*
X146001619Y-98007713D01*
X146146762Y-98104475D01*
X146243524Y-98201237D01*
X146291905Y-98297999D01*
X146485429Y-96169238D02*
X146533810Y-96024095D01*
X146582190Y-95975714D01*
X146678952Y-95927333D01*
X146824095Y-95927333D01*
X146920857Y-95975714D01*
X146969238Y-96024095D01*
X147017619Y-96120857D01*
X147017619Y-96507904D01*
X146001619Y-96507904D01*
X146001619Y-96169238D01*
X146050000Y-96072476D01*
X146098381Y-96024095D01*
X146195143Y-95975714D01*
X146291905Y-95975714D01*
X146388667Y-96024095D01*
X146437048Y-96072476D01*
X146485429Y-96169238D01*
X146485429Y-96507904D01*
X147017619Y-94959714D02*
X147017619Y-95540285D01*
X147017619Y-95249999D02*
X146001619Y-95249999D01*
X146146762Y-95346761D01*
X146243524Y-95443523D01*
X146291905Y-95540285D01*
X147017619Y-89014904D02*
X146001619Y-89014904D01*
X147017619Y-88531094D02*
X146001619Y-88531094D01*
X147017619Y-87950523D01*
X146001619Y-87950523D01*
X146001619Y-87176428D02*
X146727333Y-87176428D01*
X146872476Y-87224808D01*
X146969238Y-87321570D01*
X147017619Y-87466713D01*
X147017619Y-87563475D01*
X146001619Y-86789380D02*
X146001619Y-86160428D01*
X146388667Y-86499094D01*
X146388667Y-86353952D01*
X146437048Y-86257190D01*
X146485429Y-86208809D01*
X146582190Y-86160428D01*
X146824095Y-86160428D01*
X146920857Y-86208809D01*
X146969238Y-86257190D01*
X147017619Y-86353952D01*
X147017619Y-86644237D01*
X146969238Y-86740999D01*
X146920857Y-86789380D01*
X146485429Y-84612238D02*
X146533810Y-84467095D01*
X146582190Y-84418714D01*
X146678952Y-84370333D01*
X146824095Y-84370333D01*
X146920857Y-84418714D01*
X146969238Y-84467095D01*
X147017619Y-84563857D01*
X147017619Y-84950904D01*
X146001619Y-84950904D01*
X146001619Y-84612238D01*
X146050000Y-84515476D01*
X146098381Y-84467095D01*
X146195143Y-84418714D01*
X146291905Y-84418714D01*
X146388667Y-84467095D01*
X146437048Y-84515476D01*
X146485429Y-84612238D01*
X146485429Y-84950904D01*
X146098381Y-83983285D02*
X146050000Y-83934904D01*
X146001619Y-83838142D01*
X146001619Y-83596238D01*
X146050000Y-83499476D01*
X146098381Y-83451095D01*
X146195143Y-83402714D01*
X146291905Y-83402714D01*
X146437048Y-83451095D01*
X147017619Y-84031666D01*
X147017619Y-83402714D01*
X147271619Y-77711904D02*
X146255619Y-77711904D01*
X147271619Y-77228094D02*
X146255619Y-77228094D01*
X147271619Y-76647523D01*
X146255619Y-76647523D01*
X146255619Y-75873428D02*
X146981333Y-75873428D01*
X147126476Y-75921808D01*
X147223238Y-76018570D01*
X147271619Y-76163713D01*
X147271619Y-76260475D01*
X146594286Y-74954190D02*
X147271619Y-74954190D01*
X146207238Y-75196094D02*
X146932952Y-75437999D01*
X146932952Y-74809047D01*
X146739429Y-73309238D02*
X146787810Y-73164095D01*
X146836190Y-73115714D01*
X146932952Y-73067333D01*
X147078095Y-73067333D01*
X147174857Y-73115714D01*
X147223238Y-73164095D01*
X147271619Y-73260857D01*
X147271619Y-73647904D01*
X146255619Y-73647904D01*
X146255619Y-73309238D01*
X146304000Y-73212476D01*
X146352381Y-73164095D01*
X146449143Y-73115714D01*
X146545905Y-73115714D01*
X146642667Y-73164095D01*
X146691048Y-73212476D01*
X146739429Y-73309238D01*
X146739429Y-73647904D01*
X146352381Y-72680285D02*
X146304000Y-72631904D01*
X146255619Y-72535142D01*
X146255619Y-72293238D01*
X146304000Y-72196476D01*
X146352381Y-72148095D01*
X146449143Y-72099714D01*
X146545905Y-72099714D01*
X146691048Y-72148095D01*
X147271619Y-72728666D01*
X147271619Y-72099714D01*
X147271619Y-68307857D02*
X146255619Y-68307857D01*
X146255619Y-67920810D01*
X146304000Y-67824048D01*
X146352381Y-67775667D01*
X146449143Y-67727286D01*
X146594286Y-67727286D01*
X146691048Y-67775667D01*
X146739429Y-67824048D01*
X146787810Y-67920810D01*
X146787810Y-68307857D01*
X146255619Y-67291857D02*
X147078095Y-67291857D01*
X147174857Y-67243476D01*
X147223238Y-67195095D01*
X147271619Y-67098333D01*
X147271619Y-66904810D01*
X147223238Y-66808048D01*
X147174857Y-66759667D01*
X147078095Y-66711286D01*
X146255619Y-66711286D01*
X147271619Y-66227476D02*
X146255619Y-66227476D01*
X146981333Y-65888810D01*
X146255619Y-65550143D01*
X147271619Y-65550143D01*
X147271619Y-65066333D02*
X146255619Y-65066333D01*
X146255619Y-64679286D01*
X146304000Y-64582524D01*
X146352381Y-64534143D01*
X146449143Y-64485762D01*
X146594286Y-64485762D01*
X146691048Y-64534143D01*
X146739429Y-64582524D01*
X146787810Y-64679286D01*
X146787810Y-65066333D01*
X137111620Y-70690619D02*
X137111620Y-69674619D01*
X137111620Y-70158429D02*
X137692191Y-70158429D01*
X137692191Y-70690619D02*
X137692191Y-69674619D01*
X138176001Y-70690619D02*
X138176001Y-69674619D01*
X142240000Y-70690619D02*
X141756191Y-70690619D01*
X141756191Y-69674619D01*
X142772191Y-69674619D02*
X142965714Y-69674619D01*
X143062476Y-69723000D01*
X143159238Y-69819762D01*
X143207619Y-70013286D01*
X143207619Y-70351952D01*
X143159238Y-70545476D01*
X143062476Y-70642238D01*
X142965714Y-70690619D01*
X142772191Y-70690619D01*
X142675429Y-70642238D01*
X142578667Y-70545476D01*
X142530286Y-70351952D01*
X142530286Y-70013286D01*
X142578667Y-69819762D01*
X142675429Y-69723000D01*
X142772191Y-69674619D01*
X143546286Y-69674619D02*
X143788191Y-70690619D01*
X143981714Y-69964905D01*
X144175238Y-70690619D01*
X144417143Y-69674619D01*
X137111620Y-73865619D02*
X137111620Y-72849619D01*
X137111620Y-73333429D02*
X137692191Y-73333429D01*
X137692191Y-73865619D02*
X137692191Y-72849619D01*
X138176001Y-73865619D02*
X138176001Y-72849619D01*
X142240000Y-73865619D02*
X141756191Y-73865619D01*
X141756191Y-72849619D01*
X142772191Y-72849619D02*
X142965714Y-72849619D01*
X143062476Y-72898000D01*
X143159238Y-72994762D01*
X143207619Y-73188286D01*
X143207619Y-73526952D01*
X143159238Y-73720476D01*
X143062476Y-73817238D01*
X142965714Y-73865619D01*
X142772191Y-73865619D01*
X142675429Y-73817238D01*
X142578667Y-73720476D01*
X142530286Y-73526952D01*
X142530286Y-73188286D01*
X142578667Y-72994762D01*
X142675429Y-72898000D01*
X142772191Y-72849619D01*
X143546286Y-72849619D02*
X143788191Y-73865619D01*
X143981714Y-73139905D01*
X144175238Y-73865619D01*
X144417143Y-72849619D01*
X137111620Y-90883619D02*
X137111620Y-89867619D01*
X137111620Y-90351429D02*
X137692191Y-90351429D01*
X137692191Y-90883619D02*
X137692191Y-89867619D01*
X138176001Y-90883619D02*
X138176001Y-89867619D01*
X142240000Y-90883619D02*
X141756191Y-90883619D01*
X141756191Y-89867619D01*
X142772191Y-89867619D02*
X142965714Y-89867619D01*
X143062476Y-89916000D01*
X143159238Y-90012762D01*
X143207619Y-90206286D01*
X143207619Y-90544952D01*
X143159238Y-90738476D01*
X143062476Y-90835238D01*
X142965714Y-90883619D01*
X142772191Y-90883619D01*
X142675429Y-90835238D01*
X142578667Y-90738476D01*
X142530286Y-90544952D01*
X142530286Y-90206286D01*
X142578667Y-90012762D01*
X142675429Y-89916000D01*
X142772191Y-89867619D01*
X143546286Y-89867619D02*
X143788191Y-90883619D01*
X143981714Y-90157905D01*
X144175238Y-90883619D01*
X144417143Y-89867619D01*
X137111620Y-96852619D02*
X137111620Y-95836619D01*
X137111620Y-96320429D02*
X137692191Y-96320429D01*
X137692191Y-96852619D02*
X137692191Y-95836619D01*
X138176001Y-96852619D02*
X138176001Y-95836619D01*
X142240000Y-96852619D02*
X141756191Y-96852619D01*
X141756191Y-95836619D01*
X142772191Y-95836619D02*
X142965714Y-95836619D01*
X143062476Y-95885000D01*
X143159238Y-95981762D01*
X143207619Y-96175286D01*
X143207619Y-96513952D01*
X143159238Y-96707476D01*
X143062476Y-96804238D01*
X142965714Y-96852619D01*
X142772191Y-96852619D01*
X142675429Y-96804238D01*
X142578667Y-96707476D01*
X142530286Y-96513952D01*
X142530286Y-96175286D01*
X142578667Y-95981762D01*
X142675429Y-95885000D01*
X142772191Y-95836619D01*
X143546286Y-95836619D02*
X143788191Y-96852619D01*
X143981714Y-96126905D01*
X144175238Y-96852619D01*
X144417143Y-95836619D01*
X137111620Y-113743619D02*
X137111620Y-112727619D01*
X137111620Y-113211429D02*
X137692191Y-113211429D01*
X137692191Y-113743619D02*
X137692191Y-112727619D01*
X138176001Y-113743619D02*
X138176001Y-112727619D01*
X142240000Y-113743619D02*
X141756191Y-113743619D01*
X141756191Y-112727619D01*
X142772191Y-112727619D02*
X142965714Y-112727619D01*
X143062476Y-112776000D01*
X143159238Y-112872762D01*
X143207619Y-113066286D01*
X143207619Y-113404952D01*
X143159238Y-113598476D01*
X143062476Y-113695238D01*
X142965714Y-113743619D01*
X142772191Y-113743619D01*
X142675429Y-113695238D01*
X142578667Y-113598476D01*
X142530286Y-113404952D01*
X142530286Y-113066286D01*
X142578667Y-112872762D01*
X142675429Y-112776000D01*
X142772191Y-112727619D01*
X143546286Y-112727619D02*
X143788191Y-113743619D01*
X143981714Y-113017905D01*
X144175238Y-113743619D01*
X144417143Y-112727619D01*
D12*
X141979953Y-156972000D02*
X141931572Y-156947810D01*
X141859000Y-156947810D01*
X141786429Y-156972000D01*
X141738048Y-157020381D01*
X141713857Y-157068762D01*
X141689667Y-157165524D01*
X141689667Y-157238095D01*
X141713857Y-157334857D01*
X141738048Y-157383238D01*
X141786429Y-157431619D01*
X141859000Y-157455810D01*
X141907381Y-157455810D01*
X141979953Y-157431619D01*
X142004143Y-157407429D01*
X142004143Y-157238095D01*
X141907381Y-157238095D01*
X142221857Y-157455810D02*
X142221857Y-156947810D01*
X142512143Y-157455810D01*
X142512143Y-156947810D01*
X142754047Y-157455810D02*
X142754047Y-156947810D01*
X142875000Y-156947810D01*
X142947571Y-156972000D01*
X142995952Y-157020381D01*
X143020143Y-157068762D01*
X143044333Y-157165524D01*
X143044333Y-157238095D01*
X143020143Y-157334857D01*
X142995952Y-157383238D01*
X142947571Y-157431619D01*
X142875000Y-157455810D01*
X142754047Y-157455810D01*
X144507857Y-157455810D02*
X144507857Y-156947810D01*
X144798143Y-157455810D01*
X144798143Y-156947810D01*
X145330333Y-157407429D02*
X145306143Y-157431619D01*
X145233571Y-157455810D01*
X145185190Y-157455810D01*
X145112619Y-157431619D01*
X145064238Y-157383238D01*
X145040047Y-157334857D01*
X145015857Y-157238095D01*
X145015857Y-157165524D01*
X145040047Y-157068762D01*
X145064238Y-157020381D01*
X145112619Y-156972000D01*
X145185190Y-156947810D01*
X145233571Y-156947810D01*
X145306143Y-156972000D01*
X145330333Y-156996190D01*
X147047857Y-157455810D02*
X147047857Y-156947810D01*
X147338143Y-157455810D01*
X147338143Y-156947810D01*
X147870333Y-157407429D02*
X147846143Y-157431619D01*
X147773571Y-157455810D01*
X147725190Y-157455810D01*
X147652619Y-157431619D01*
X147604238Y-157383238D01*
X147580047Y-157334857D01*
X147555857Y-157238095D01*
X147555857Y-157165524D01*
X147580047Y-157068762D01*
X147604238Y-157020381D01*
X147652619Y-156972000D01*
X147725190Y-156947810D01*
X147773571Y-156947810D01*
X147846143Y-156972000D01*
X147870333Y-156996190D01*
X149345952Y-157455810D02*
X149345952Y-156947810D01*
X149466905Y-156947810D01*
X149539476Y-156972000D01*
X149587857Y-157020381D01*
X149612048Y-157068762D01*
X149636238Y-157165524D01*
X149636238Y-157238095D01*
X149612048Y-157334857D01*
X149587857Y-157383238D01*
X149539476Y-157431619D01*
X149466905Y-157455810D01*
X149345952Y-157455810D01*
X150023286Y-157189714D02*
X150095857Y-157213905D01*
X150120048Y-157238095D01*
X150144238Y-157286476D01*
X150144238Y-157359048D01*
X150120048Y-157407429D01*
X150095857Y-157431619D01*
X150047476Y-157455810D01*
X149853952Y-157455810D01*
X149853952Y-156947810D01*
X150023286Y-156947810D01*
X150071667Y-156972000D01*
X150095857Y-156996190D01*
X150120048Y-157044571D01*
X150120048Y-157092952D01*
X150095857Y-157141333D01*
X150071667Y-157165524D01*
X150023286Y-157189714D01*
X149853952Y-157189714D01*
X150628048Y-156972000D02*
X150579667Y-156947810D01*
X150507095Y-156947810D01*
X150434524Y-156972000D01*
X150386143Y-157020381D01*
X150361952Y-157068762D01*
X150337762Y-157165524D01*
X150337762Y-157238095D01*
X150361952Y-157334857D01*
X150386143Y-157383238D01*
X150434524Y-157431619D01*
X150507095Y-157455810D01*
X150555476Y-157455810D01*
X150628048Y-157431619D01*
X150652238Y-157407429D01*
X150652238Y-157238095D01*
X150555476Y-157238095D01*
X151668238Y-157431619D02*
X151740809Y-157455810D01*
X151861762Y-157455810D01*
X151910143Y-157431619D01*
X151934333Y-157407429D01*
X151958524Y-157359048D01*
X151958524Y-157310667D01*
X151934333Y-157262286D01*
X151910143Y-157238095D01*
X151861762Y-157213905D01*
X151765000Y-157189714D01*
X151716619Y-157165524D01*
X151692428Y-157141333D01*
X151668238Y-157092952D01*
X151668238Y-157044571D01*
X151692428Y-156996190D01*
X151716619Y-156972000D01*
X151765000Y-156947810D01*
X151885952Y-156947810D01*
X151958524Y-156972000D01*
X152466524Y-157407429D02*
X152442334Y-157431619D01*
X152369762Y-157455810D01*
X152321381Y-157455810D01*
X152248810Y-157431619D01*
X152200429Y-157383238D01*
X152176238Y-157334857D01*
X152152048Y-157238095D01*
X152152048Y-157165524D01*
X152176238Y-157068762D01*
X152200429Y-157020381D01*
X152248810Y-156972000D01*
X152321381Y-156947810D01*
X152369762Y-156947810D01*
X152442334Y-156972000D01*
X152466524Y-156996190D01*
X152926143Y-157455810D02*
X152684238Y-157455810D01*
X152684238Y-156947810D01*
X153095476Y-157455810D02*
X153095476Y-156947810D01*
X153385762Y-157455810D02*
X153168048Y-157165524D01*
X153385762Y-156947810D02*
X153095476Y-157238095D01*
X154268714Y-157455810D02*
X154268714Y-156947810D01*
X154438048Y-157310667D01*
X154607381Y-156947810D01*
X154607381Y-157455810D01*
X154946047Y-156947810D02*
X155042809Y-156947810D01*
X155091190Y-156972000D01*
X155139571Y-157020381D01*
X155163762Y-157117143D01*
X155163762Y-157286476D01*
X155139571Y-157383238D01*
X155091190Y-157431619D01*
X155042809Y-157455810D01*
X154946047Y-157455810D01*
X154897666Y-157431619D01*
X154849285Y-157383238D01*
X154825095Y-157286476D01*
X154825095Y-157117143D01*
X154849285Y-157020381D01*
X154897666Y-156972000D01*
X154946047Y-156947810D01*
X155357285Y-157431619D02*
X155429856Y-157455810D01*
X155550809Y-157455810D01*
X155599190Y-157431619D01*
X155623380Y-157407429D01*
X155647571Y-157359048D01*
X155647571Y-157310667D01*
X155623380Y-157262286D01*
X155599190Y-157238095D01*
X155550809Y-157213905D01*
X155454047Y-157189714D01*
X155405666Y-157165524D01*
X155381475Y-157141333D01*
X155357285Y-157092952D01*
X155357285Y-157044571D01*
X155381475Y-156996190D01*
X155405666Y-156972000D01*
X155454047Y-156947810D01*
X155574999Y-156947810D01*
X155647571Y-156972000D01*
X155865285Y-157455810D02*
X155865285Y-156947810D01*
X156681714Y-157455810D02*
X156681714Y-156947810D01*
X156851048Y-157310667D01*
X157020381Y-156947810D01*
X157020381Y-157455810D01*
X157262285Y-157455810D02*
X157262285Y-156947810D01*
X157480000Y-157431619D02*
X157552571Y-157455810D01*
X157673524Y-157455810D01*
X157721905Y-157431619D01*
X157746095Y-157407429D01*
X157770286Y-157359048D01*
X157770286Y-157310667D01*
X157746095Y-157262286D01*
X157721905Y-157238095D01*
X157673524Y-157213905D01*
X157576762Y-157189714D01*
X157528381Y-157165524D01*
X157504190Y-157141333D01*
X157480000Y-157092952D01*
X157480000Y-157044571D01*
X157504190Y-156996190D01*
X157528381Y-156972000D01*
X157576762Y-156947810D01*
X157697714Y-156947810D01*
X157770286Y-156972000D01*
X158084762Y-156947810D02*
X158181524Y-156947810D01*
X158229905Y-156972000D01*
X158278286Y-157020381D01*
X158302477Y-157117143D01*
X158302477Y-157286476D01*
X158278286Y-157383238D01*
X158229905Y-157431619D01*
X158181524Y-157455810D01*
X158084762Y-157455810D01*
X158036381Y-157431619D01*
X157988000Y-157383238D01*
X157963810Y-157286476D01*
X157963810Y-157117143D01*
X157988000Y-157020381D01*
X158036381Y-156972000D01*
X158084762Y-156947810D01*
X159808333Y-157407429D02*
X159784143Y-157431619D01*
X159711571Y-157455810D01*
X159663190Y-157455810D01*
X159590619Y-157431619D01*
X159542238Y-157383238D01*
X159518047Y-157334857D01*
X159493857Y-157238095D01*
X159493857Y-157165524D01*
X159518047Y-157068762D01*
X159542238Y-157020381D01*
X159590619Y-156972000D01*
X159663190Y-156947810D01*
X159711571Y-156947810D01*
X159784143Y-156972000D01*
X159808333Y-156996190D01*
X160001857Y-157431619D02*
X160074428Y-157455810D01*
X160195381Y-157455810D01*
X160243762Y-157431619D01*
X160267952Y-157407429D01*
X160292143Y-157359048D01*
X160292143Y-157310667D01*
X160267952Y-157262286D01*
X160243762Y-157238095D01*
X160195381Y-157213905D01*
X160098619Y-157189714D01*
X160050238Y-157165524D01*
X160026047Y-157141333D01*
X160001857Y-157092952D01*
X160001857Y-157044571D01*
X160026047Y-156996190D01*
X160050238Y-156972000D01*
X160098619Y-156947810D01*
X160219571Y-156947810D01*
X160292143Y-156972000D01*
X160679191Y-157189714D02*
X160751762Y-157213905D01*
X160775953Y-157238095D01*
X160800143Y-157286476D01*
X160800143Y-157359048D01*
X160775953Y-157407429D01*
X160751762Y-157431619D01*
X160703381Y-157455810D01*
X160509857Y-157455810D01*
X160509857Y-156947810D01*
X160679191Y-156947810D01*
X160727572Y-156972000D01*
X160751762Y-156996190D01*
X160775953Y-157044571D01*
X160775953Y-157092952D01*
X160751762Y-157141333D01*
X160727572Y-157165524D01*
X160679191Y-157189714D01*
X160509857Y-157189714D01*
X159094714Y-151716619D02*
X159167285Y-151740810D01*
X159288238Y-151740810D01*
X159336619Y-151716619D01*
X159360809Y-151692429D01*
X159385000Y-151644048D01*
X159385000Y-151595667D01*
X159360809Y-151547286D01*
X159336619Y-151523095D01*
X159288238Y-151498905D01*
X159191476Y-151474714D01*
X159143095Y-151450524D01*
X159118904Y-151426333D01*
X159094714Y-151377952D01*
X159094714Y-151329571D01*
X159118904Y-151281190D01*
X159143095Y-151257000D01*
X159191476Y-151232810D01*
X159312428Y-151232810D01*
X159385000Y-151257000D01*
X159530143Y-151232810D02*
X159820429Y-151232810D01*
X159675286Y-151740810D02*
X159675286Y-151232810D01*
X159965572Y-151595667D02*
X160207477Y-151595667D01*
X159917191Y-151740810D02*
X160086524Y-151232810D01*
X160255858Y-151740810D01*
X160715477Y-151740810D02*
X160546144Y-151498905D01*
X160425191Y-151740810D02*
X160425191Y-151232810D01*
X160618715Y-151232810D01*
X160667096Y-151257000D01*
X160691287Y-151281190D01*
X160715477Y-151329571D01*
X160715477Y-151402143D01*
X160691287Y-151450524D01*
X160667096Y-151474714D01*
X160618715Y-151498905D01*
X160425191Y-151498905D01*
X161150906Y-151232810D02*
X161054144Y-151232810D01*
X161005763Y-151257000D01*
X160981572Y-151281190D01*
X160933191Y-151353762D01*
X160909001Y-151450524D01*
X160909001Y-151644048D01*
X160933191Y-151692429D01*
X160957382Y-151716619D01*
X161005763Y-151740810D01*
X161102525Y-151740810D01*
X161150906Y-151716619D01*
X161175096Y-151692429D01*
X161199287Y-151644048D01*
X161199287Y-151523095D01*
X161175096Y-151474714D01*
X161150906Y-151450524D01*
X161102525Y-151426333D01*
X161005763Y-151426333D01*
X160957382Y-151450524D01*
X160933191Y-151474714D01*
X160909001Y-151523095D01*
X156554714Y-151716619D02*
X156627285Y-151740810D01*
X156748238Y-151740810D01*
X156796619Y-151716619D01*
X156820809Y-151692429D01*
X156845000Y-151644048D01*
X156845000Y-151595667D01*
X156820809Y-151547286D01*
X156796619Y-151523095D01*
X156748238Y-151498905D01*
X156651476Y-151474714D01*
X156603095Y-151450524D01*
X156578904Y-151426333D01*
X156554714Y-151377952D01*
X156554714Y-151329571D01*
X156578904Y-151281190D01*
X156603095Y-151257000D01*
X156651476Y-151232810D01*
X156772428Y-151232810D01*
X156845000Y-151257000D01*
X156990143Y-151232810D02*
X157280429Y-151232810D01*
X157135286Y-151740810D02*
X157135286Y-151232810D01*
X157425572Y-151595667D02*
X157667477Y-151595667D01*
X157377191Y-151740810D02*
X157546524Y-151232810D01*
X157715858Y-151740810D01*
X158175477Y-151740810D02*
X158006144Y-151498905D01*
X157885191Y-151740810D02*
X157885191Y-151232810D01*
X158078715Y-151232810D01*
X158127096Y-151257000D01*
X158151287Y-151281190D01*
X158175477Y-151329571D01*
X158175477Y-151402143D01*
X158151287Y-151450524D01*
X158127096Y-151474714D01*
X158078715Y-151498905D01*
X157885191Y-151498905D01*
X158635096Y-151232810D02*
X158393191Y-151232810D01*
X158369001Y-151474714D01*
X158393191Y-151450524D01*
X158441572Y-151426333D01*
X158562525Y-151426333D01*
X158610906Y-151450524D01*
X158635096Y-151474714D01*
X158659287Y-151523095D01*
X158659287Y-151644048D01*
X158635096Y-151692429D01*
X158610906Y-151716619D01*
X158562525Y-151740810D01*
X158441572Y-151740810D01*
X158393191Y-151716619D01*
X158369001Y-151692429D01*
X154014714Y-151716619D02*
X154087285Y-151740810D01*
X154208238Y-151740810D01*
X154256619Y-151716619D01*
X154280809Y-151692429D01*
X154305000Y-151644048D01*
X154305000Y-151595667D01*
X154280809Y-151547286D01*
X154256619Y-151523095D01*
X154208238Y-151498905D01*
X154111476Y-151474714D01*
X154063095Y-151450524D01*
X154038904Y-151426333D01*
X154014714Y-151377952D01*
X154014714Y-151329571D01*
X154038904Y-151281190D01*
X154063095Y-151257000D01*
X154111476Y-151232810D01*
X154232428Y-151232810D01*
X154305000Y-151257000D01*
X154450143Y-151232810D02*
X154740429Y-151232810D01*
X154595286Y-151740810D02*
X154595286Y-151232810D01*
X154885572Y-151595667D02*
X155127477Y-151595667D01*
X154837191Y-151740810D02*
X155006524Y-151232810D01*
X155175858Y-151740810D01*
X155635477Y-151740810D02*
X155466144Y-151498905D01*
X155345191Y-151740810D02*
X155345191Y-151232810D01*
X155538715Y-151232810D01*
X155587096Y-151257000D01*
X155611287Y-151281190D01*
X155635477Y-151329571D01*
X155635477Y-151402143D01*
X155611287Y-151450524D01*
X155587096Y-151474714D01*
X155538715Y-151498905D01*
X155345191Y-151498905D01*
X156070906Y-151402143D02*
X156070906Y-151740810D01*
X155949953Y-151208619D02*
X155829001Y-151571476D01*
X156143477Y-151571476D01*
X151474714Y-151716619D02*
X151547285Y-151740810D01*
X151668238Y-151740810D01*
X151716619Y-151716619D01*
X151740809Y-151692429D01*
X151765000Y-151644048D01*
X151765000Y-151595667D01*
X151740809Y-151547286D01*
X151716619Y-151523095D01*
X151668238Y-151498905D01*
X151571476Y-151474714D01*
X151523095Y-151450524D01*
X151498904Y-151426333D01*
X151474714Y-151377952D01*
X151474714Y-151329571D01*
X151498904Y-151281190D01*
X151523095Y-151257000D01*
X151571476Y-151232810D01*
X151692428Y-151232810D01*
X151765000Y-151257000D01*
X151910143Y-151232810D02*
X152200429Y-151232810D01*
X152055286Y-151740810D02*
X152055286Y-151232810D01*
X152345572Y-151595667D02*
X152587477Y-151595667D01*
X152297191Y-151740810D02*
X152466524Y-151232810D01*
X152635858Y-151740810D01*
X153095477Y-151740810D02*
X152926144Y-151498905D01*
X152805191Y-151740810D02*
X152805191Y-151232810D01*
X152998715Y-151232810D01*
X153047096Y-151257000D01*
X153071287Y-151281190D01*
X153095477Y-151329571D01*
X153095477Y-151402143D01*
X153071287Y-151450524D01*
X153047096Y-151474714D01*
X152998715Y-151498905D01*
X152805191Y-151498905D01*
X153264810Y-151232810D02*
X153579287Y-151232810D01*
X153409953Y-151426333D01*
X153482525Y-151426333D01*
X153530906Y-151450524D01*
X153555096Y-151474714D01*
X153579287Y-151523095D01*
X153579287Y-151644048D01*
X153555096Y-151692429D01*
X153530906Y-151716619D01*
X153482525Y-151740810D01*
X153337382Y-151740810D01*
X153289001Y-151716619D01*
X153264810Y-151692429D01*
X148934714Y-151716619D02*
X149007285Y-151740810D01*
X149128238Y-151740810D01*
X149176619Y-151716619D01*
X149200809Y-151692429D01*
X149225000Y-151644048D01*
X149225000Y-151595667D01*
X149200809Y-151547286D01*
X149176619Y-151523095D01*
X149128238Y-151498905D01*
X149031476Y-151474714D01*
X148983095Y-151450524D01*
X148958904Y-151426333D01*
X148934714Y-151377952D01*
X148934714Y-151329571D01*
X148958904Y-151281190D01*
X148983095Y-151257000D01*
X149031476Y-151232810D01*
X149152428Y-151232810D01*
X149225000Y-151257000D01*
X149370143Y-151232810D02*
X149660429Y-151232810D01*
X149515286Y-151740810D02*
X149515286Y-151232810D01*
X149805572Y-151595667D02*
X150047477Y-151595667D01*
X149757191Y-151740810D02*
X149926524Y-151232810D01*
X150095858Y-151740810D01*
X150555477Y-151740810D02*
X150386144Y-151498905D01*
X150265191Y-151740810D02*
X150265191Y-151232810D01*
X150458715Y-151232810D01*
X150507096Y-151257000D01*
X150531287Y-151281190D01*
X150555477Y-151329571D01*
X150555477Y-151402143D01*
X150531287Y-151450524D01*
X150507096Y-151474714D01*
X150458715Y-151498905D01*
X150265191Y-151498905D01*
X150749001Y-151281190D02*
X150773191Y-151257000D01*
X150821572Y-151232810D01*
X150942525Y-151232810D01*
X150990906Y-151257000D01*
X151015096Y-151281190D01*
X151039287Y-151329571D01*
X151039287Y-151377952D01*
X151015096Y-151450524D01*
X150724810Y-151740810D01*
X151039287Y-151740810D01*
X146394714Y-151716619D02*
X146467285Y-151740810D01*
X146588238Y-151740810D01*
X146636619Y-151716619D01*
X146660809Y-151692429D01*
X146685000Y-151644048D01*
X146685000Y-151595667D01*
X146660809Y-151547286D01*
X146636619Y-151523095D01*
X146588238Y-151498905D01*
X146491476Y-151474714D01*
X146443095Y-151450524D01*
X146418904Y-151426333D01*
X146394714Y-151377952D01*
X146394714Y-151329571D01*
X146418904Y-151281190D01*
X146443095Y-151257000D01*
X146491476Y-151232810D01*
X146612428Y-151232810D01*
X146685000Y-151257000D01*
X146830143Y-151232810D02*
X147120429Y-151232810D01*
X146975286Y-151740810D02*
X146975286Y-151232810D01*
X147265572Y-151595667D02*
X147507477Y-151595667D01*
X147217191Y-151740810D02*
X147386524Y-151232810D01*
X147555858Y-151740810D01*
X148015477Y-151740810D02*
X147846144Y-151498905D01*
X147725191Y-151740810D02*
X147725191Y-151232810D01*
X147918715Y-151232810D01*
X147967096Y-151257000D01*
X147991287Y-151281190D01*
X148015477Y-151329571D01*
X148015477Y-151402143D01*
X147991287Y-151450524D01*
X147967096Y-151474714D01*
X147918715Y-151498905D01*
X147725191Y-151498905D01*
X148499287Y-151740810D02*
X148209001Y-151740810D01*
X148354144Y-151740810D02*
X148354144Y-151232810D01*
X148305763Y-151305381D01*
X148257382Y-151353762D01*
X148209001Y-151377952D01*
X144374809Y-151740810D02*
X144205476Y-151498905D01*
X144084523Y-151740810D02*
X144084523Y-151232810D01*
X144278047Y-151232810D01*
X144326428Y-151257000D01*
X144350619Y-151281190D01*
X144374809Y-151329571D01*
X144374809Y-151402143D01*
X144350619Y-151450524D01*
X144326428Y-151474714D01*
X144278047Y-151498905D01*
X144084523Y-151498905D01*
X144568333Y-151716619D02*
X144640904Y-151740810D01*
X144761857Y-151740810D01*
X144810238Y-151716619D01*
X144834428Y-151692429D01*
X144858619Y-151644048D01*
X144858619Y-151595667D01*
X144834428Y-151547286D01*
X144810238Y-151523095D01*
X144761857Y-151498905D01*
X144665095Y-151474714D01*
X144616714Y-151450524D01*
X144592523Y-151426333D01*
X144568333Y-151377952D01*
X144568333Y-151329571D01*
X144592523Y-151281190D01*
X144616714Y-151257000D01*
X144665095Y-151232810D01*
X144786047Y-151232810D01*
X144858619Y-151257000D01*
X145003762Y-151232810D02*
X145294048Y-151232810D01*
X145148905Y-151740810D02*
X145148905Y-151232810D01*
X145632715Y-151474714D02*
X145705286Y-151498905D01*
X145729477Y-151523095D01*
X145753667Y-151571476D01*
X145753667Y-151644048D01*
X145729477Y-151692429D01*
X145705286Y-151716619D01*
X145656905Y-151740810D01*
X145463381Y-151740810D01*
X145463381Y-151232810D01*
X145632715Y-151232810D01*
X145681096Y-151257000D01*
X145705286Y-151281190D01*
X145729477Y-151329571D01*
X145729477Y-151377952D01*
X145705286Y-151426333D01*
X145681096Y-151450524D01*
X145632715Y-151474714D01*
X145463381Y-151474714D01*
X141266333Y-151740810D02*
X141266333Y-151232810D01*
X141387286Y-151232810D01*
X141459857Y-151257000D01*
X141508238Y-151305381D01*
X141532429Y-151353762D01*
X141556619Y-151450524D01*
X141556619Y-151523095D01*
X141532429Y-151619857D01*
X141508238Y-151668238D01*
X141459857Y-151716619D01*
X141387286Y-151740810D01*
X141266333Y-151740810D01*
X142064619Y-151740810D02*
X141895286Y-151498905D01*
X141774333Y-151740810D02*
X141774333Y-151232810D01*
X141967857Y-151232810D01*
X142016238Y-151257000D01*
X142040429Y-151281190D01*
X142064619Y-151329571D01*
X142064619Y-151402143D01*
X142040429Y-151450524D01*
X142016238Y-151474714D01*
X141967857Y-151498905D01*
X141774333Y-151498905D01*
X142209762Y-151232810D02*
X142379095Y-151740810D01*
X142548429Y-151232810D01*
X142717762Y-151474714D02*
X142887096Y-151474714D01*
X142959667Y-151740810D02*
X142717762Y-151740810D01*
X142717762Y-151232810D01*
X142959667Y-151232810D01*
X143177381Y-151740810D02*
X143177381Y-151232810D01*
X143467667Y-151740810D01*
X143467667Y-151232810D01*
X119440476Y-156947810D02*
X119537238Y-156947810D01*
X119585619Y-156972000D01*
X119634000Y-157020381D01*
X119658191Y-157117143D01*
X119658191Y-157286476D01*
X119634000Y-157383238D01*
X119585619Y-157431619D01*
X119537238Y-157455810D01*
X119440476Y-157455810D01*
X119392095Y-157431619D01*
X119343714Y-157383238D01*
X119319524Y-157286476D01*
X119319524Y-157117143D01*
X119343714Y-157020381D01*
X119392095Y-156972000D01*
X119440476Y-156947810D01*
X119851714Y-157310667D02*
X120093619Y-157310667D01*
X119803333Y-157455810D02*
X119972666Y-156947810D01*
X120142000Y-157455810D01*
X120190381Y-157504190D02*
X120577429Y-157504190D01*
X120964477Y-157455810D02*
X120674191Y-157455810D01*
X120819334Y-157455810D02*
X120819334Y-156947810D01*
X120770953Y-157020381D01*
X120722572Y-157068762D01*
X120674191Y-157092952D01*
X121980476Y-156947810D02*
X122077238Y-156947810D01*
X122125619Y-156972000D01*
X122174000Y-157020381D01*
X122198191Y-157117143D01*
X122198191Y-157286476D01*
X122174000Y-157383238D01*
X122125619Y-157431619D01*
X122077238Y-157455810D01*
X121980476Y-157455810D01*
X121932095Y-157431619D01*
X121883714Y-157383238D01*
X121859524Y-157286476D01*
X121859524Y-157117143D01*
X121883714Y-157020381D01*
X121932095Y-156972000D01*
X121980476Y-156947810D01*
X122391714Y-157310667D02*
X122633619Y-157310667D01*
X122343333Y-157455810D02*
X122512666Y-156947810D01*
X122682000Y-157455810D01*
X122730381Y-157504190D02*
X123117429Y-157504190D01*
X123214191Y-156996190D02*
X123238381Y-156972000D01*
X123286762Y-156947810D01*
X123407715Y-156947810D01*
X123456096Y-156972000D01*
X123480286Y-156996190D01*
X123504477Y-157044571D01*
X123504477Y-157092952D01*
X123480286Y-157165524D01*
X123190000Y-157455810D01*
X123504477Y-157455810D01*
X124447905Y-157455810D02*
X124447905Y-156947810D01*
X124980096Y-157455810D02*
X124810763Y-157213905D01*
X124689810Y-157455810D02*
X124689810Y-156947810D01*
X124883334Y-156947810D01*
X124931715Y-156972000D01*
X124955906Y-156996190D01*
X124980096Y-157044571D01*
X124980096Y-157117143D01*
X124955906Y-157165524D01*
X124931715Y-157189714D01*
X124883334Y-157213905D01*
X124689810Y-157213905D01*
X125536477Y-157504190D02*
X125488096Y-157480000D01*
X125439715Y-157431619D01*
X125367144Y-157359048D01*
X125318763Y-157334857D01*
X125270382Y-157334857D01*
X125294572Y-157455810D02*
X125246191Y-157431619D01*
X125197810Y-157383238D01*
X125173620Y-157286476D01*
X125173620Y-157117143D01*
X125197810Y-157020381D01*
X125246191Y-156972000D01*
X125294572Y-156947810D01*
X125391334Y-156947810D01*
X125439715Y-156972000D01*
X125488096Y-157020381D01*
X125512287Y-157117143D01*
X125512287Y-157286476D01*
X125488096Y-157383238D01*
X125439715Y-157431619D01*
X125391334Y-157455810D01*
X125294572Y-157455810D01*
X125899334Y-157189714D02*
X125971905Y-157213905D01*
X125996096Y-157238095D01*
X126020286Y-157286476D01*
X126020286Y-157359048D01*
X125996096Y-157407429D01*
X125971905Y-157431619D01*
X125923524Y-157455810D01*
X125730000Y-157455810D01*
X125730000Y-156947810D01*
X125899334Y-156947810D01*
X125947715Y-156972000D01*
X125971905Y-156996190D01*
X125996096Y-157044571D01*
X125996096Y-157092952D01*
X125971905Y-157141333D01*
X125947715Y-157165524D01*
X125899334Y-157189714D01*
X125730000Y-157189714D01*
X126915333Y-157189714D02*
X126745999Y-157189714D01*
X126745999Y-157455810D02*
X126745999Y-156947810D01*
X126987904Y-156947810D01*
X127423333Y-157455810D02*
X127181428Y-157455810D01*
X127181428Y-156947810D01*
X127568476Y-157310667D02*
X127810381Y-157310667D01*
X127520095Y-157455810D02*
X127689428Y-156947810D01*
X127858762Y-157455810D01*
X128294191Y-156972000D02*
X128245810Y-156947810D01*
X128173238Y-156947810D01*
X128100667Y-156972000D01*
X128052286Y-157020381D01*
X128028095Y-157068762D01*
X128003905Y-157165524D01*
X128003905Y-157238095D01*
X128028095Y-157334857D01*
X128052286Y-157383238D01*
X128100667Y-157431619D01*
X128173238Y-157455810D01*
X128221619Y-157455810D01*
X128294191Y-157431619D01*
X128318381Y-157407429D01*
X128318381Y-157238095D01*
X128221619Y-157238095D01*
X128632857Y-156947810D02*
X128681238Y-156947810D01*
X128729619Y-156972000D01*
X128753810Y-156996190D01*
X128778000Y-157044571D01*
X128802191Y-157141333D01*
X128802191Y-157262286D01*
X128778000Y-157359048D01*
X128753810Y-157407429D01*
X128729619Y-157431619D01*
X128681238Y-157455810D01*
X128632857Y-157455810D01*
X128584476Y-157431619D01*
X128560286Y-157407429D01*
X128536095Y-157359048D01*
X128511905Y-157262286D01*
X128511905Y-157141333D01*
X128536095Y-157044571D01*
X128560286Y-156996190D01*
X128584476Y-156972000D01*
X128632857Y-156947810D01*
X137534953Y-156972000D02*
X137486572Y-156947810D01*
X137414000Y-156947810D01*
X137341429Y-156972000D01*
X137293048Y-157020381D01*
X137268857Y-157068762D01*
X137244667Y-157165524D01*
X137244667Y-157238095D01*
X137268857Y-157334857D01*
X137293048Y-157383238D01*
X137341429Y-157431619D01*
X137414000Y-157455810D01*
X137462381Y-157455810D01*
X137534953Y-157431619D01*
X137559143Y-157407429D01*
X137559143Y-157238095D01*
X137462381Y-157238095D01*
X137776857Y-157455810D02*
X137776857Y-156947810D01*
X138067143Y-157455810D01*
X138067143Y-156947810D01*
X138309047Y-157455810D02*
X138309047Y-156947810D01*
X138430000Y-156947810D01*
X138502571Y-156972000D01*
X138550952Y-157020381D01*
X138575143Y-157068762D01*
X138599333Y-157165524D01*
X138599333Y-157238095D01*
X138575143Y-157334857D01*
X138550952Y-157383238D01*
X138502571Y-157431619D01*
X138430000Y-157455810D01*
X138309047Y-157455810D01*
X129455333Y-157189714D02*
X129285999Y-157189714D01*
X129285999Y-157455810D02*
X129285999Y-156947810D01*
X129527904Y-156947810D01*
X129963333Y-157455810D02*
X129721428Y-157455810D01*
X129721428Y-156947810D01*
X130108476Y-157310667D02*
X130350381Y-157310667D01*
X130060095Y-157455810D02*
X130229428Y-156947810D01*
X130398762Y-157455810D01*
X130834191Y-156972000D02*
X130785810Y-156947810D01*
X130713238Y-156947810D01*
X130640667Y-156972000D01*
X130592286Y-157020381D01*
X130568095Y-157068762D01*
X130543905Y-157165524D01*
X130543905Y-157238095D01*
X130568095Y-157334857D01*
X130592286Y-157383238D01*
X130640667Y-157431619D01*
X130713238Y-157455810D01*
X130761619Y-157455810D01*
X130834191Y-157431619D01*
X130858381Y-157407429D01*
X130858381Y-157238095D01*
X130761619Y-157238095D01*
X131342191Y-157455810D02*
X131051905Y-157455810D01*
X131197048Y-157455810D02*
X131197048Y-156947810D01*
X131148667Y-157020381D01*
X131100286Y-157068762D01*
X131051905Y-157092952D01*
X131995333Y-157189714D02*
X131825999Y-157189714D01*
X131825999Y-157455810D02*
X131825999Y-156947810D01*
X132067904Y-156947810D01*
X132503333Y-157455810D02*
X132261428Y-157455810D01*
X132261428Y-156947810D01*
X132648476Y-157310667D02*
X132890381Y-157310667D01*
X132600095Y-157455810D02*
X132769428Y-156947810D01*
X132938762Y-157455810D01*
X133374191Y-156972000D02*
X133325810Y-156947810D01*
X133253238Y-156947810D01*
X133180667Y-156972000D01*
X133132286Y-157020381D01*
X133108095Y-157068762D01*
X133083905Y-157165524D01*
X133083905Y-157238095D01*
X133108095Y-157334857D01*
X133132286Y-157383238D01*
X133180667Y-157431619D01*
X133253238Y-157455810D01*
X133301619Y-157455810D01*
X133374191Y-157431619D01*
X133398381Y-157407429D01*
X133398381Y-157238095D01*
X133301619Y-157238095D01*
X133591905Y-156996190D02*
X133616095Y-156972000D01*
X133664476Y-156947810D01*
X133785429Y-156947810D01*
X133833810Y-156972000D01*
X133858000Y-156996190D01*
X133882191Y-157044571D01*
X133882191Y-157092952D01*
X133858000Y-157165524D01*
X133567714Y-157455810D01*
X133882191Y-157455810D01*
X134994953Y-156972000D02*
X134946572Y-156947810D01*
X134874000Y-156947810D01*
X134801429Y-156972000D01*
X134753048Y-157020381D01*
X134728857Y-157068762D01*
X134704667Y-157165524D01*
X134704667Y-157238095D01*
X134728857Y-157334857D01*
X134753048Y-157383238D01*
X134801429Y-157431619D01*
X134874000Y-157455810D01*
X134922381Y-157455810D01*
X134994953Y-157431619D01*
X135019143Y-157407429D01*
X135019143Y-157238095D01*
X134922381Y-157238095D01*
X135236857Y-157455810D02*
X135236857Y-156947810D01*
X135527143Y-157455810D01*
X135527143Y-156947810D01*
X135769047Y-157455810D02*
X135769047Y-156947810D01*
X135890000Y-156947810D01*
X135962571Y-156972000D01*
X136010952Y-157020381D01*
X136035143Y-157068762D01*
X136059333Y-157165524D01*
X136059333Y-157238095D01*
X136035143Y-157334857D01*
X136010952Y-157383238D01*
X135962571Y-157431619D01*
X135890000Y-157455810D01*
X135769047Y-157455810D01*
X134994953Y-151257000D02*
X134946572Y-151232810D01*
X134874000Y-151232810D01*
X134801429Y-151257000D01*
X134753048Y-151305381D01*
X134728857Y-151353762D01*
X134704667Y-151450524D01*
X134704667Y-151523095D01*
X134728857Y-151619857D01*
X134753048Y-151668238D01*
X134801429Y-151716619D01*
X134874000Y-151740810D01*
X134922381Y-151740810D01*
X134994953Y-151716619D01*
X135019143Y-151692429D01*
X135019143Y-151523095D01*
X134922381Y-151523095D01*
X135236857Y-151740810D02*
X135236857Y-151232810D01*
X135527143Y-151740810D01*
X135527143Y-151232810D01*
X135769047Y-151740810D02*
X135769047Y-151232810D01*
X135890000Y-151232810D01*
X135962571Y-151257000D01*
X136010952Y-151305381D01*
X136035143Y-151353762D01*
X136059333Y-151450524D01*
X136059333Y-151523095D01*
X136035143Y-151619857D01*
X136010952Y-151668238D01*
X135962571Y-151716619D01*
X135890000Y-151740810D01*
X135769047Y-151740810D01*
X129914953Y-151257000D02*
X129866572Y-151232810D01*
X129794000Y-151232810D01*
X129721429Y-151257000D01*
X129673048Y-151305381D01*
X129648857Y-151353762D01*
X129624667Y-151450524D01*
X129624667Y-151523095D01*
X129648857Y-151619857D01*
X129673048Y-151668238D01*
X129721429Y-151716619D01*
X129794000Y-151740810D01*
X129842381Y-151740810D01*
X129914953Y-151716619D01*
X129939143Y-151692429D01*
X129939143Y-151523095D01*
X129842381Y-151523095D01*
X130156857Y-151740810D02*
X130156857Y-151232810D01*
X130447143Y-151740810D01*
X130447143Y-151232810D01*
X130689047Y-151740810D02*
X130689047Y-151232810D01*
X130810000Y-151232810D01*
X130882571Y-151257000D01*
X130930952Y-151305381D01*
X130955143Y-151353762D01*
X130979333Y-151450524D01*
X130979333Y-151523095D01*
X130955143Y-151619857D01*
X130930952Y-151668238D01*
X130882571Y-151716619D01*
X130810000Y-151740810D01*
X130689047Y-151740810D01*
X126939524Y-151474714D02*
X127108858Y-151474714D01*
X127181429Y-151740810D02*
X126939524Y-151740810D01*
X126939524Y-151232810D01*
X127181429Y-151232810D01*
X127689429Y-151692429D02*
X127665239Y-151716619D01*
X127592667Y-151740810D01*
X127544286Y-151740810D01*
X127471715Y-151716619D01*
X127423334Y-151668238D01*
X127399143Y-151619857D01*
X127374953Y-151523095D01*
X127374953Y-151450524D01*
X127399143Y-151353762D01*
X127423334Y-151305381D01*
X127471715Y-151257000D01*
X127544286Y-151232810D01*
X127592667Y-151232810D01*
X127665239Y-151257000D01*
X127689429Y-151281190D01*
X128149048Y-151740810D02*
X127907143Y-151740810D01*
X127907143Y-151232810D01*
X128318381Y-151740810D02*
X128318381Y-151232810D01*
X128608667Y-151740810D02*
X128390953Y-151450524D01*
X128608667Y-151232810D02*
X128318381Y-151523095D01*
X124822857Y-151740810D02*
X124822857Y-151232810D01*
X125113143Y-151740810D01*
X125113143Y-151232810D01*
X125645333Y-151692429D02*
X125621143Y-151716619D01*
X125548571Y-151740810D01*
X125500190Y-151740810D01*
X125427619Y-151716619D01*
X125379238Y-151668238D01*
X125355047Y-151619857D01*
X125330857Y-151523095D01*
X125330857Y-151450524D01*
X125355047Y-151353762D01*
X125379238Y-151305381D01*
X125427619Y-151257000D01*
X125500190Y-151232810D01*
X125548571Y-151232810D01*
X125621143Y-151257000D01*
X125645333Y-151281190D01*
X121750667Y-151232810D02*
X121920000Y-151740810D01*
X122089334Y-151232810D01*
X122548953Y-151692429D02*
X122524763Y-151716619D01*
X122452191Y-151740810D01*
X122403810Y-151740810D01*
X122331239Y-151716619D01*
X122282858Y-151668238D01*
X122258667Y-151619857D01*
X122234477Y-151523095D01*
X122234477Y-151450524D01*
X122258667Y-151353762D01*
X122282858Y-151305381D01*
X122331239Y-151257000D01*
X122403810Y-151232810D01*
X122452191Y-151232810D01*
X122524763Y-151257000D01*
X122548953Y-151281190D01*
X123056953Y-151692429D02*
X123032763Y-151716619D01*
X122960191Y-151740810D01*
X122911810Y-151740810D01*
X122839239Y-151716619D01*
X122790858Y-151668238D01*
X122766667Y-151619857D01*
X122742477Y-151523095D01*
X122742477Y-151450524D01*
X122766667Y-151353762D01*
X122790858Y-151305381D01*
X122839239Y-151257000D01*
X122911810Y-151232810D01*
X122960191Y-151232810D01*
X123032763Y-151257000D01*
X123056953Y-151281190D01*
X123274667Y-151740810D02*
X123274667Y-151232810D01*
X123468191Y-151232810D01*
X123516572Y-151257000D01*
X123540763Y-151281190D01*
X123564953Y-151329571D01*
X123564953Y-151402143D01*
X123540763Y-151450524D01*
X123516572Y-151474714D01*
X123468191Y-151498905D01*
X123274667Y-151498905D01*
X119077619Y-151232810D02*
X119246952Y-151740810D01*
X119416286Y-151232810D01*
X119875905Y-151692429D02*
X119851715Y-151716619D01*
X119779143Y-151740810D01*
X119730762Y-151740810D01*
X119658191Y-151716619D01*
X119609810Y-151668238D01*
X119585619Y-151619857D01*
X119561429Y-151523095D01*
X119561429Y-151450524D01*
X119585619Y-151353762D01*
X119609810Y-151305381D01*
X119658191Y-151257000D01*
X119730762Y-151232810D01*
X119779143Y-151232810D01*
X119851715Y-151257000D01*
X119875905Y-151281190D01*
X120383905Y-151692429D02*
X120359715Y-151716619D01*
X120287143Y-151740810D01*
X120238762Y-151740810D01*
X120166191Y-151716619D01*
X120117810Y-151668238D01*
X120093619Y-151619857D01*
X120069429Y-151523095D01*
X120069429Y-151450524D01*
X120093619Y-151353762D01*
X120117810Y-151305381D01*
X120166191Y-151257000D01*
X120238762Y-151232810D01*
X120287143Y-151232810D01*
X120359715Y-151257000D01*
X120383905Y-151281190D01*
X120601619Y-151740810D02*
X120601619Y-151232810D01*
X120940286Y-151232810D02*
X121037048Y-151232810D01*
X121085429Y-151257000D01*
X121133810Y-151305381D01*
X121158001Y-151402143D01*
X121158001Y-151571476D01*
X121133810Y-151668238D01*
X121085429Y-151716619D01*
X121037048Y-151740810D01*
X120940286Y-151740810D01*
X120891905Y-151716619D01*
X120843524Y-151668238D01*
X120819334Y-151571476D01*
X120819334Y-151402143D01*
X120843524Y-151305381D01*
X120891905Y-151257000D01*
X120940286Y-151232810D01*
D13*
X141037000Y-151959000D02*
X141037000Y-157159000D01*
X158877000Y-151959000D02*
X141037000Y-151959000D01*
X158877000Y-151959000D02*
X158877000Y-154559000D01*
X158877000Y-154559000D02*
X161477000Y-154559000D01*
X161477000Y-154559000D02*
X161477000Y-157159000D01*
X160147000Y-151959000D02*
X161477000Y-151959000D01*
X161477000Y-151959000D02*
X161477000Y-153289000D01*
X139252000Y-157159000D02*
X139252000Y-151959000D01*
X118812000Y-151959000D02*
X139252000Y-151959000D01*
X121412000Y-157159000D02*
X121412000Y-154559000D01*
X121412000Y-154559000D02*
X118812000Y-154559000D01*
X118812000Y-154559000D02*
X118812000Y-151959000D01*
X118812000Y-157159000D02*
X118812000Y-155829000D01*
X122024000Y-113682000D02*
G75*
G03X122024000Y-113682000I-11090000J0D01*
G01*
X99884000Y-113682000D02*
X121984000Y-113682000D01*
X99884000Y-113642000D02*
X121984000Y-113642000D01*
X99884000Y-113602000D02*
X121984000Y-113602000D01*
X99884000Y-113562000D02*
X121984000Y-113562000D01*
X99885000Y-113522000D02*
X121983000Y-113522000D01*
X99885000Y-113482000D02*
X121983000Y-113482000D01*
X99886000Y-113442000D02*
X121982000Y-113442000D01*
X99887000Y-113402000D02*
X121981000Y-113402000D01*
X99888000Y-113362000D02*
X121980000Y-113362000D01*
X99889000Y-113322000D02*
X121979000Y-113322000D01*
X99891000Y-113282000D02*
X121977000Y-113282000D01*
X99892000Y-113242000D02*
X121976000Y-113242000D01*
X99894000Y-113202000D02*
X121974000Y-113202000D01*
X99896000Y-113162000D02*
X121972000Y-113162000D01*
X99898000Y-113122000D02*
X121970000Y-113122000D01*
X99900000Y-113082000D02*
X121968000Y-113082000D01*
X99902000Y-113042000D02*
X121966000Y-113042000D01*
X99904000Y-113002000D02*
X121964000Y-113002000D01*
X99907000Y-112961000D02*
X121961000Y-112961000D01*
X99910000Y-112921000D02*
X121958000Y-112921000D01*
X99912000Y-112881000D02*
X121956000Y-112881000D01*
X99915000Y-112841000D02*
X121953000Y-112841000D01*
X99918000Y-112801000D02*
X121950000Y-112801000D01*
X99922000Y-112761000D02*
X121946000Y-112761000D01*
X99925000Y-112721000D02*
X121943000Y-112721000D01*
X99929000Y-112681000D02*
X121939000Y-112681000D01*
X99932000Y-112641000D02*
X121936000Y-112641000D01*
X99936000Y-112601000D02*
X121932000Y-112601000D01*
X99940000Y-112561000D02*
X121928000Y-112561000D01*
X99944000Y-112521000D02*
X121924000Y-112521000D01*
X99949000Y-112481000D02*
X121919000Y-112481000D01*
X99953000Y-112441000D02*
X121915000Y-112441000D01*
X99958000Y-112401000D02*
X121910000Y-112401000D01*
X99962000Y-112361000D02*
X121906000Y-112361000D01*
X99967000Y-112321000D02*
X121901000Y-112321000D01*
X99972000Y-112281000D02*
X121896000Y-112281000D01*
X99977000Y-112241000D02*
X121891000Y-112241000D01*
X99983000Y-112201000D02*
X121885000Y-112201000D01*
X99988000Y-112161000D02*
X121880000Y-112161000D01*
X99994000Y-112121000D02*
X121874000Y-112121000D01*
X100000000Y-112081000D02*
X121868000Y-112081000D01*
X100005000Y-112041000D02*
X121863000Y-112041000D01*
X100011000Y-112001000D02*
X121857000Y-112001000D01*
X100018000Y-111961000D02*
X121850000Y-111961000D01*
X100024000Y-111921000D02*
X121844000Y-111921000D01*
X100031000Y-111881000D02*
X121837000Y-111881000D01*
X100037000Y-111841000D02*
X121831000Y-111841000D01*
X100044000Y-111801000D02*
X121824000Y-111801000D01*
X100051000Y-111761000D02*
X121817000Y-111761000D01*
X100058000Y-111721000D02*
X121810000Y-111721000D01*
X100065000Y-111681000D02*
X121803000Y-111681000D01*
X100073000Y-111641000D02*
X121795000Y-111641000D01*
X100080000Y-111601000D02*
X121788000Y-111601000D01*
X100088000Y-111561000D02*
X121780000Y-111561000D01*
X100096000Y-111521000D02*
X121772000Y-111521000D01*
X100104000Y-111481000D02*
X121764000Y-111481000D01*
X100112000Y-111441000D02*
X121756000Y-111441000D01*
X100120000Y-111401000D02*
X121748000Y-111401000D01*
X100129000Y-111361000D02*
X121739000Y-111361000D01*
X100138000Y-111321000D02*
X121730000Y-111321000D01*
X100146000Y-111281000D02*
X121722000Y-111281000D01*
X100155000Y-111241000D02*
X121713000Y-111241000D01*
X100164000Y-111201000D02*
X121704000Y-111201000D01*
X100174000Y-111161000D02*
X121694000Y-111161000D01*
X100183000Y-111121000D02*
X121685000Y-111121000D01*
X100193000Y-111081000D02*
X121675000Y-111081000D01*
X100202000Y-111041000D02*
X121666000Y-111041000D01*
X100212000Y-111001000D02*
X121656000Y-111001000D01*
X100222000Y-110961000D02*
X121646000Y-110961000D01*
X100232000Y-110921000D02*
X121636000Y-110921000D01*
X100243000Y-110881000D02*
X121625000Y-110881000D01*
X100253000Y-110841000D02*
X108754000Y-110841000D01*
X113114000Y-110841000D02*
X121615000Y-110841000D01*
X100264000Y-110801000D02*
X108754000Y-110801000D01*
X113114000Y-110801000D02*
X121604000Y-110801000D01*
X100275000Y-110761000D02*
X108754000Y-110761000D01*
X113114000Y-110761000D02*
X121593000Y-110761000D01*
X100286000Y-110721000D02*
X108754000Y-110721000D01*
X113114000Y-110721000D02*
X121582000Y-110721000D01*
X100297000Y-110681000D02*
X108754000Y-110681000D01*
X113114000Y-110681000D02*
X121571000Y-110681000D01*
X100308000Y-110641000D02*
X108754000Y-110641000D01*
X113114000Y-110641000D02*
X121560000Y-110641000D01*
X100320000Y-110601000D02*
X108754000Y-110601000D01*
X113114000Y-110601000D02*
X121548000Y-110601000D01*
X100331000Y-110561000D02*
X108754000Y-110561000D01*
X113114000Y-110561000D02*
X121537000Y-110561000D01*
X100343000Y-110521000D02*
X108754000Y-110521000D01*
X113114000Y-110521000D02*
X121525000Y-110521000D01*
X100355000Y-110481000D02*
X108754000Y-110481000D01*
X113114000Y-110481000D02*
X121513000Y-110481000D01*
X100367000Y-110441000D02*
X108754000Y-110441000D01*
X113114000Y-110441000D02*
X121501000Y-110441000D01*
X100380000Y-110401000D02*
X108754000Y-110401000D01*
X113114000Y-110401000D02*
X121488000Y-110401000D01*
X100392000Y-110361000D02*
X108754000Y-110361000D01*
X113114000Y-110361000D02*
X121476000Y-110361000D01*
X100405000Y-110321000D02*
X108754000Y-110321000D01*
X113114000Y-110321000D02*
X121463000Y-110321000D01*
X100418000Y-110281000D02*
X108754000Y-110281000D01*
X113114000Y-110281000D02*
X121450000Y-110281000D01*
X100431000Y-110241000D02*
X108754000Y-110241000D01*
X113114000Y-110241000D02*
X121437000Y-110241000D01*
X100444000Y-110201000D02*
X108754000Y-110201000D01*
X113114000Y-110201000D02*
X121424000Y-110201000D01*
X100457000Y-110161000D02*
X108754000Y-110161000D01*
X113114000Y-110161000D02*
X121411000Y-110161000D01*
X100470000Y-110121000D02*
X108754000Y-110121000D01*
X113114000Y-110121000D02*
X121398000Y-110121000D01*
X100484000Y-110081000D02*
X108754000Y-110081000D01*
X113114000Y-110081000D02*
X121384000Y-110081000D01*
X100498000Y-110041000D02*
X108754000Y-110041000D01*
X113114000Y-110041000D02*
X121370000Y-110041000D01*
X100512000Y-110001000D02*
X108754000Y-110001000D01*
X113114000Y-110001000D02*
X121356000Y-110001000D01*
X100526000Y-109961000D02*
X108754000Y-109961000D01*
X113114000Y-109961000D02*
X121342000Y-109961000D01*
X100540000Y-109921000D02*
X108754000Y-109921000D01*
X113114000Y-109921000D02*
X121328000Y-109921000D01*
X100555000Y-109881000D02*
X108754000Y-109881000D01*
X113114000Y-109881000D02*
X121313000Y-109881000D01*
X100570000Y-109841000D02*
X108754000Y-109841000D01*
X113114000Y-109841000D02*
X121298000Y-109841000D01*
X100584000Y-109801000D02*
X108754000Y-109801000D01*
X113114000Y-109801000D02*
X121284000Y-109801000D01*
X100599000Y-109761000D02*
X108754000Y-109761000D01*
X113114000Y-109761000D02*
X121269000Y-109761000D01*
X100615000Y-109721000D02*
X108754000Y-109721000D01*
X113114000Y-109721000D02*
X121253000Y-109721000D01*
X100630000Y-109681000D02*
X108754000Y-109681000D01*
X113114000Y-109681000D02*
X121238000Y-109681000D01*
X100646000Y-109641000D02*
X108754000Y-109641000D01*
X113114000Y-109641000D02*
X121222000Y-109641000D01*
X100661000Y-109601000D02*
X108754000Y-109601000D01*
X113114000Y-109601000D02*
X121207000Y-109601000D01*
X100677000Y-109561000D02*
X108754000Y-109561000D01*
X113114000Y-109561000D02*
X121191000Y-109561000D01*
X100693000Y-109521000D02*
X108754000Y-109521000D01*
X113114000Y-109521000D02*
X121175000Y-109521000D01*
X100710000Y-109481000D02*
X108754000Y-109481000D01*
X113114000Y-109481000D02*
X121158000Y-109481000D01*
X100726000Y-109441000D02*
X108754000Y-109441000D01*
X113114000Y-109441000D02*
X121142000Y-109441000D01*
X100743000Y-109401000D02*
X108754000Y-109401000D01*
X113114000Y-109401000D02*
X121125000Y-109401000D01*
X100760000Y-109361000D02*
X108754000Y-109361000D01*
X113114000Y-109361000D02*
X121108000Y-109361000D01*
X100777000Y-109321000D02*
X108754000Y-109321000D01*
X113114000Y-109321000D02*
X121091000Y-109321000D01*
X100794000Y-109281000D02*
X108754000Y-109281000D01*
X113114000Y-109281000D02*
X121074000Y-109281000D01*
X100811000Y-109241000D02*
X108754000Y-109241000D01*
X113114000Y-109241000D02*
X121057000Y-109241000D01*
X100829000Y-109201000D02*
X108754000Y-109201000D01*
X113114000Y-109201000D02*
X121039000Y-109201000D01*
X100846000Y-109161000D02*
X108754000Y-109161000D01*
X113114000Y-109161000D02*
X121022000Y-109161000D01*
X100864000Y-109121000D02*
X108754000Y-109121000D01*
X113114000Y-109121000D02*
X121004000Y-109121000D01*
X100883000Y-109081000D02*
X108754000Y-109081000D01*
X113114000Y-109081000D02*
X120985000Y-109081000D01*
X100901000Y-109041000D02*
X108754000Y-109041000D01*
X113114000Y-109041000D02*
X120967000Y-109041000D01*
X100919000Y-109001000D02*
X108754000Y-109001000D01*
X113114000Y-109001000D02*
X120949000Y-109001000D01*
X100938000Y-108961000D02*
X108754000Y-108961000D01*
X113114000Y-108961000D02*
X120930000Y-108961000D01*
X100957000Y-108921000D02*
X108754000Y-108921000D01*
X113114000Y-108921000D02*
X120911000Y-108921000D01*
X100976000Y-108881000D02*
X108754000Y-108881000D01*
X113114000Y-108881000D02*
X120892000Y-108881000D01*
X100995000Y-108841000D02*
X108754000Y-108841000D01*
X113114000Y-108841000D02*
X120873000Y-108841000D01*
X101015000Y-108801000D02*
X108754000Y-108801000D01*
X113114000Y-108801000D02*
X120853000Y-108801000D01*
X101035000Y-108761000D02*
X108754000Y-108761000D01*
X113114000Y-108761000D02*
X120833000Y-108761000D01*
X101055000Y-108721000D02*
X108754000Y-108721000D01*
X113114000Y-108721000D02*
X120813000Y-108721000D01*
X101075000Y-108681000D02*
X108754000Y-108681000D01*
X113114000Y-108681000D02*
X120793000Y-108681000D01*
X101095000Y-108641000D02*
X108754000Y-108641000D01*
X113114000Y-108641000D02*
X120773000Y-108641000D01*
X101115000Y-108601000D02*
X108754000Y-108601000D01*
X113114000Y-108601000D02*
X120753000Y-108601000D01*
X101136000Y-108561000D02*
X108754000Y-108561000D01*
X113114000Y-108561000D02*
X120732000Y-108561000D01*
X101157000Y-108521000D02*
X108754000Y-108521000D01*
X113114000Y-108521000D02*
X120711000Y-108521000D01*
X101178000Y-108481000D02*
X108754000Y-108481000D01*
X113114000Y-108481000D02*
X120690000Y-108481000D01*
X101200000Y-108441000D02*
X108754000Y-108441000D01*
X113114000Y-108441000D02*
X120668000Y-108441000D01*
X101221000Y-108401000D02*
X108754000Y-108401000D01*
X113114000Y-108401000D02*
X120647000Y-108401000D01*
X101243000Y-108361000D02*
X108754000Y-108361000D01*
X113114000Y-108361000D02*
X120625000Y-108361000D01*
X101265000Y-108321000D02*
X108754000Y-108321000D01*
X113114000Y-108321000D02*
X120603000Y-108321000D01*
X101287000Y-108281000D02*
X108754000Y-108281000D01*
X113114000Y-108281000D02*
X120581000Y-108281000D01*
X101309000Y-108241000D02*
X108754000Y-108241000D01*
X113114000Y-108241000D02*
X120559000Y-108241000D01*
X101332000Y-108201000D02*
X108754000Y-108201000D01*
X113114000Y-108201000D02*
X120536000Y-108201000D01*
X101355000Y-108161000D02*
X108754000Y-108161000D01*
X113114000Y-108161000D02*
X120513000Y-108161000D01*
X101378000Y-108121000D02*
X108754000Y-108121000D01*
X113114000Y-108121000D02*
X120490000Y-108121000D01*
X101401000Y-108081000D02*
X108754000Y-108081000D01*
X113114000Y-108081000D02*
X120467000Y-108081000D01*
X101425000Y-108041000D02*
X108754000Y-108041000D01*
X113114000Y-108041000D02*
X120443000Y-108041000D01*
X101448000Y-108001000D02*
X108754000Y-108001000D01*
X113114000Y-108001000D02*
X120420000Y-108001000D01*
X101472000Y-107961000D02*
X108754000Y-107961000D01*
X113114000Y-107961000D02*
X120396000Y-107961000D01*
X101497000Y-107921000D02*
X108754000Y-107921000D01*
X113114000Y-107921000D02*
X120371000Y-107921000D01*
X101521000Y-107881000D02*
X108754000Y-107881000D01*
X113114000Y-107881000D02*
X120347000Y-107881000D01*
X101546000Y-107841000D02*
X108754000Y-107841000D01*
X113114000Y-107841000D02*
X120322000Y-107841000D01*
X101571000Y-107801000D02*
X108754000Y-107801000D01*
X113114000Y-107801000D02*
X120297000Y-107801000D01*
X101596000Y-107761000D02*
X108754000Y-107761000D01*
X113114000Y-107761000D02*
X120272000Y-107761000D01*
X101621000Y-107721000D02*
X108754000Y-107721000D01*
X113114000Y-107721000D02*
X120247000Y-107721000D01*
X101647000Y-107681000D02*
X108754000Y-107681000D01*
X113114000Y-107681000D02*
X120221000Y-107681000D01*
X101673000Y-107641000D02*
X108754000Y-107641000D01*
X113114000Y-107641000D02*
X120195000Y-107641000D01*
X101699000Y-107601000D02*
X108754000Y-107601000D01*
X113114000Y-107601000D02*
X120169000Y-107601000D01*
X101725000Y-107561000D02*
X108754000Y-107561000D01*
X113114000Y-107561000D02*
X120143000Y-107561000D01*
X101752000Y-107521000D02*
X108754000Y-107521000D01*
X113114000Y-107521000D02*
X120116000Y-107521000D01*
X101778000Y-107481000D02*
X108754000Y-107481000D01*
X113114000Y-107481000D02*
X120090000Y-107481000D01*
X101806000Y-107441000D02*
X108754000Y-107441000D01*
X113114000Y-107441000D02*
X120062000Y-107441000D01*
X101833000Y-107401000D02*
X108754000Y-107401000D01*
X113114000Y-107401000D02*
X120035000Y-107401000D01*
X101861000Y-107361000D02*
X108754000Y-107361000D01*
X113114000Y-107361000D02*
X120007000Y-107361000D01*
X101888000Y-107321000D02*
X108754000Y-107321000D01*
X113114000Y-107321000D02*
X119980000Y-107321000D01*
X101917000Y-107281000D02*
X108754000Y-107281000D01*
X113114000Y-107281000D02*
X119951000Y-107281000D01*
X101945000Y-107241000D02*
X108754000Y-107241000D01*
X113114000Y-107241000D02*
X119923000Y-107241000D01*
X101974000Y-107201000D02*
X108754000Y-107201000D01*
X113114000Y-107201000D02*
X119894000Y-107201000D01*
X102003000Y-107161000D02*
X108754000Y-107161000D01*
X113114000Y-107161000D02*
X119865000Y-107161000D01*
X102032000Y-107121000D02*
X108754000Y-107121000D01*
X113114000Y-107121000D02*
X119836000Y-107121000D01*
X102061000Y-107081000D02*
X108754000Y-107081000D01*
X113114000Y-107081000D02*
X119807000Y-107081000D01*
X102091000Y-107041000D02*
X108754000Y-107041000D01*
X113114000Y-107041000D02*
X119777000Y-107041000D01*
X102121000Y-107001000D02*
X108754000Y-107001000D01*
X113114000Y-107001000D02*
X119747000Y-107001000D01*
X102151000Y-106961000D02*
X108754000Y-106961000D01*
X113114000Y-106961000D02*
X119717000Y-106961000D01*
X102182000Y-106921000D02*
X108754000Y-106921000D01*
X113114000Y-106921000D02*
X119686000Y-106921000D01*
X102213000Y-106881000D02*
X108754000Y-106881000D01*
X113114000Y-106881000D02*
X119655000Y-106881000D01*
X102244000Y-106841000D02*
X108754000Y-106841000D01*
X113114000Y-106841000D02*
X119624000Y-106841000D01*
X102276000Y-106801000D02*
X108754000Y-106801000D01*
X113114000Y-106801000D02*
X119592000Y-106801000D01*
X102307000Y-106761000D02*
X108754000Y-106761000D01*
X113114000Y-106761000D02*
X119561000Y-106761000D01*
X102339000Y-106721000D02*
X108754000Y-106721000D01*
X113114000Y-106721000D02*
X119529000Y-106721000D01*
X102372000Y-106681000D02*
X108754000Y-106681000D01*
X113114000Y-106681000D02*
X119496000Y-106681000D01*
X102405000Y-106641000D02*
X108754000Y-106641000D01*
X113114000Y-106641000D02*
X119463000Y-106641000D01*
X102438000Y-106601000D02*
X108754000Y-106601000D01*
X113114000Y-106601000D02*
X119430000Y-106601000D01*
X102471000Y-106561000D02*
X108754000Y-106561000D01*
X113114000Y-106561000D02*
X119397000Y-106561000D01*
X102505000Y-106521000D02*
X108754000Y-106521000D01*
X113114000Y-106521000D02*
X119363000Y-106521000D01*
X102539000Y-106481000D02*
X119329000Y-106481000D01*
X102573000Y-106441000D02*
X119295000Y-106441000D01*
X102608000Y-106401000D02*
X119260000Y-106401000D01*
X102642000Y-106361000D02*
X119226000Y-106361000D01*
X102678000Y-106321000D02*
X119190000Y-106321000D01*
X102713000Y-106281000D02*
X119155000Y-106281000D01*
X102749000Y-106241000D02*
X119119000Y-106241000D01*
X102786000Y-106201000D02*
X119082000Y-106201000D01*
X102823000Y-106161000D02*
X119045000Y-106161000D01*
X102860000Y-106121000D02*
X119008000Y-106121000D01*
X102897000Y-106081000D02*
X118971000Y-106081000D01*
X102935000Y-106041000D02*
X118933000Y-106041000D01*
X102973000Y-106001000D02*
X118895000Y-106001000D01*
X103012000Y-105961000D02*
X118856000Y-105961000D01*
X103051000Y-105921000D02*
X118817000Y-105921000D01*
X103090000Y-105881000D02*
X118778000Y-105881000D01*
X103130000Y-105841000D02*
X118738000Y-105841000D01*
X103170000Y-105801000D02*
X118698000Y-105801000D01*
X103211000Y-105761000D02*
X118657000Y-105761000D01*
X103252000Y-105721000D02*
X118616000Y-105721000D01*
X103293000Y-105681000D02*
X118575000Y-105681000D01*
X103335000Y-105641000D02*
X118533000Y-105641000D01*
X103377000Y-105601000D02*
X118491000Y-105601000D01*
X103420000Y-105561000D02*
X118448000Y-105561000D01*
X103463000Y-105521000D02*
X118405000Y-105521000D01*
X103507000Y-105482000D02*
X118361000Y-105482000D01*
X103551000Y-105442000D02*
X118317000Y-105442000D01*
X103596000Y-105402000D02*
X118272000Y-105402000D01*
X103641000Y-105362000D02*
X118227000Y-105362000D01*
X103687000Y-105322000D02*
X118181000Y-105322000D01*
X103733000Y-105282000D02*
X118135000Y-105282000D01*
X103779000Y-105242000D02*
X118089000Y-105242000D01*
X103827000Y-105202000D02*
X118041000Y-105202000D01*
X103874000Y-105162000D02*
X117994000Y-105162000D01*
X103923000Y-105122000D02*
X117945000Y-105122000D01*
X103971000Y-105082000D02*
X117897000Y-105082000D01*
X104021000Y-105042000D02*
X117847000Y-105042000D01*
X104071000Y-105002000D02*
X117797000Y-105002000D01*
X104122000Y-104962000D02*
X117746000Y-104962000D01*
X104173000Y-104922000D02*
X117695000Y-104922000D01*
X104225000Y-104882000D02*
X117643000Y-104882000D01*
X104277000Y-104842000D02*
X117591000Y-104842000D01*
X104330000Y-104802000D02*
X117538000Y-104802000D01*
X104384000Y-104762000D02*
X117484000Y-104762000D01*
X104438000Y-104722000D02*
X117430000Y-104722000D01*
X104494000Y-104682000D02*
X117374000Y-104682000D01*
X104550000Y-104642000D02*
X117318000Y-104642000D01*
X104606000Y-104602000D02*
X117262000Y-104602000D01*
X104664000Y-104562000D02*
X117204000Y-104562000D01*
X104722000Y-104522000D02*
X117146000Y-104522000D01*
X104781000Y-104482000D02*
X117087000Y-104482000D01*
X104841000Y-104442000D02*
X117027000Y-104442000D01*
X104901000Y-104402000D02*
X116967000Y-104402000D01*
X104963000Y-104362000D02*
X116905000Y-104362000D01*
X105026000Y-104322000D02*
X116842000Y-104322000D01*
X105089000Y-104282000D02*
X116779000Y-104282000D01*
X105153000Y-104242000D02*
X116715000Y-104242000D01*
X105219000Y-104202000D02*
X116649000Y-104202000D01*
X105285000Y-104162000D02*
X116583000Y-104162000D01*
X105353000Y-104122000D02*
X116515000Y-104122000D01*
X105421000Y-104082000D02*
X116447000Y-104082000D01*
X105491000Y-104042000D02*
X116377000Y-104042000D01*
X105562000Y-104002000D02*
X116306000Y-104002000D01*
X105634000Y-103962000D02*
X116234000Y-103962000D01*
X105708000Y-103922000D02*
X116160000Y-103922000D01*
X105782000Y-103882000D02*
X116086000Y-103882000D01*
X105859000Y-103842000D02*
X116009000Y-103842000D01*
X105936000Y-103802000D02*
X115932000Y-103802000D01*
X106016000Y-103762000D02*
X115852000Y-103762000D01*
X106096000Y-103722000D02*
X115772000Y-103722000D01*
X106179000Y-103682000D02*
X115689000Y-103682000D01*
X106263000Y-103642000D02*
X115605000Y-103642000D01*
X106349000Y-103602000D02*
X115519000Y-103602000D01*
X106438000Y-103562000D02*
X115430000Y-103562000D01*
X106528000Y-103522000D02*
X115340000Y-103522000D01*
X106621000Y-103482000D02*
X115247000Y-103482000D01*
X106716000Y-103442000D02*
X115152000Y-103442000D01*
X106813000Y-103402000D02*
X115055000Y-103402000D01*
X106913000Y-103362000D02*
X114955000Y-103362000D01*
X107016000Y-103322000D02*
X114852000Y-103322000D01*
X107123000Y-103282000D02*
X114745000Y-103282000D01*
X107233000Y-103242000D02*
X114635000Y-103242000D01*
X107346000Y-103202000D02*
X114522000Y-103202000D01*
X107464000Y-103162000D02*
X114404000Y-103162000D01*
X107586000Y-103122000D02*
X114282000Y-103122000D01*
X107713000Y-103082000D02*
X114155000Y-103082000D01*
X107846000Y-103042000D02*
X114022000Y-103042000D01*
X107986000Y-103002000D02*
X113882000Y-103002000D01*
X108133000Y-102962000D02*
X113735000Y-102962000D01*
X108288000Y-102922000D02*
X113580000Y-102922000D01*
X108454000Y-102882000D02*
X113414000Y-102882000D01*
X108632000Y-102842000D02*
X113236000Y-102842000D01*
X108826000Y-102802000D02*
X113042000Y-102802000D01*
X109039000Y-102762000D02*
X112829000Y-102762000D01*
X109280000Y-102722000D02*
X112588000Y-102722000D01*
X109563000Y-102682000D02*
X112305000Y-102682000D01*
X109922000Y-102642000D02*
X111946000Y-102642000D01*
X110503000Y-102602000D02*
X111365000Y-102602000D01*
X110934000Y-123882000D02*
X110934000Y-120882000D01*
X109434000Y-122382000D02*
X112434000Y-122382000D01*
X122024000Y-136382000D02*
G75*
G03X122024000Y-136382000I-11090000J0D01*
G01*
X121984000Y-136382000D02*
X99884000Y-136382000D01*
X121984000Y-136422000D02*
X99884000Y-136422000D01*
X121984000Y-136462000D02*
X99884000Y-136462000D01*
X121984000Y-136502000D02*
X99884000Y-136502000D01*
X121983000Y-136542000D02*
X99885000Y-136542000D01*
X121983000Y-136582000D02*
X99885000Y-136582000D01*
X121982000Y-136622000D02*
X99886000Y-136622000D01*
X121981000Y-136662000D02*
X99887000Y-136662000D01*
X121980000Y-136702000D02*
X99888000Y-136702000D01*
X121979000Y-136742000D02*
X99889000Y-136742000D01*
X121977000Y-136782000D02*
X99891000Y-136782000D01*
X121976000Y-136822000D02*
X99892000Y-136822000D01*
X121974000Y-136862000D02*
X99894000Y-136862000D01*
X121972000Y-136902000D02*
X99896000Y-136902000D01*
X121970000Y-136942000D02*
X99898000Y-136942000D01*
X121968000Y-136982000D02*
X99900000Y-136982000D01*
X121966000Y-137022000D02*
X99902000Y-137022000D01*
X121964000Y-137062000D02*
X99904000Y-137062000D01*
X121961000Y-137103000D02*
X99907000Y-137103000D01*
X121958000Y-137143000D02*
X99910000Y-137143000D01*
X121956000Y-137183000D02*
X99912000Y-137183000D01*
X121953000Y-137223000D02*
X99915000Y-137223000D01*
X121950000Y-137263000D02*
X99918000Y-137263000D01*
X121946000Y-137303000D02*
X99922000Y-137303000D01*
X121943000Y-137343000D02*
X99925000Y-137343000D01*
X121939000Y-137383000D02*
X99929000Y-137383000D01*
X121936000Y-137423000D02*
X99932000Y-137423000D01*
X121932000Y-137463000D02*
X99936000Y-137463000D01*
X121928000Y-137503000D02*
X99940000Y-137503000D01*
X121924000Y-137543000D02*
X99944000Y-137543000D01*
X121919000Y-137583000D02*
X99949000Y-137583000D01*
X121915000Y-137623000D02*
X99953000Y-137623000D01*
X121910000Y-137663000D02*
X99958000Y-137663000D01*
X121906000Y-137703000D02*
X99962000Y-137703000D01*
X121901000Y-137743000D02*
X99967000Y-137743000D01*
X121896000Y-137783000D02*
X99972000Y-137783000D01*
X121891000Y-137823000D02*
X99977000Y-137823000D01*
X121885000Y-137863000D02*
X99983000Y-137863000D01*
X121880000Y-137903000D02*
X99988000Y-137903000D01*
X121874000Y-137943000D02*
X99994000Y-137943000D01*
X121868000Y-137983000D02*
X100000000Y-137983000D01*
X121863000Y-138023000D02*
X100005000Y-138023000D01*
X121857000Y-138063000D02*
X100011000Y-138063000D01*
X121850000Y-138103000D02*
X100018000Y-138103000D01*
X121844000Y-138143000D02*
X100024000Y-138143000D01*
X121837000Y-138183000D02*
X100031000Y-138183000D01*
X121831000Y-138223000D02*
X100037000Y-138223000D01*
X121824000Y-138263000D02*
X100044000Y-138263000D01*
X121817000Y-138303000D02*
X100051000Y-138303000D01*
X121810000Y-138343000D02*
X100058000Y-138343000D01*
X121803000Y-138383000D02*
X100065000Y-138383000D01*
X121795000Y-138423000D02*
X100073000Y-138423000D01*
X121788000Y-138463000D02*
X100080000Y-138463000D01*
X121780000Y-138503000D02*
X100088000Y-138503000D01*
X121772000Y-138543000D02*
X100096000Y-138543000D01*
X121764000Y-138583000D02*
X100104000Y-138583000D01*
X121756000Y-138623000D02*
X100112000Y-138623000D01*
X121748000Y-138663000D02*
X100120000Y-138663000D01*
X121739000Y-138703000D02*
X100129000Y-138703000D01*
X121730000Y-138743000D02*
X100138000Y-138743000D01*
X121722000Y-138783000D02*
X100146000Y-138783000D01*
X121713000Y-138823000D02*
X100155000Y-138823000D01*
X121704000Y-138863000D02*
X100164000Y-138863000D01*
X121694000Y-138903000D02*
X100174000Y-138903000D01*
X121685000Y-138943000D02*
X100183000Y-138943000D01*
X121675000Y-138983000D02*
X100193000Y-138983000D01*
X121666000Y-139023000D02*
X100202000Y-139023000D01*
X121656000Y-139063000D02*
X100212000Y-139063000D01*
X121646000Y-139103000D02*
X100222000Y-139103000D01*
X121636000Y-139143000D02*
X100232000Y-139143000D01*
X121625000Y-139183000D02*
X100243000Y-139183000D01*
X121615000Y-139223000D02*
X113114000Y-139223000D01*
X108754000Y-139223000D02*
X100253000Y-139223000D01*
X121604000Y-139263000D02*
X113114000Y-139263000D01*
X108754000Y-139263000D02*
X100264000Y-139263000D01*
X121593000Y-139303000D02*
X113114000Y-139303000D01*
X108754000Y-139303000D02*
X100275000Y-139303000D01*
X121582000Y-139343000D02*
X113114000Y-139343000D01*
X108754000Y-139343000D02*
X100286000Y-139343000D01*
X121571000Y-139383000D02*
X113114000Y-139383000D01*
X108754000Y-139383000D02*
X100297000Y-139383000D01*
X121560000Y-139423000D02*
X113114000Y-139423000D01*
X108754000Y-139423000D02*
X100308000Y-139423000D01*
X121548000Y-139463000D02*
X113114000Y-139463000D01*
X108754000Y-139463000D02*
X100320000Y-139463000D01*
X121537000Y-139503000D02*
X113114000Y-139503000D01*
X108754000Y-139503000D02*
X100331000Y-139503000D01*
X121525000Y-139543000D02*
X113114000Y-139543000D01*
X108754000Y-139543000D02*
X100343000Y-139543000D01*
X121513000Y-139583000D02*
X113114000Y-139583000D01*
X108754000Y-139583000D02*
X100355000Y-139583000D01*
X121501000Y-139623000D02*
X113114000Y-139623000D01*
X108754000Y-139623000D02*
X100367000Y-139623000D01*
X121488000Y-139663000D02*
X113114000Y-139663000D01*
X108754000Y-139663000D02*
X100380000Y-139663000D01*
X121476000Y-139703000D02*
X113114000Y-139703000D01*
X108754000Y-139703000D02*
X100392000Y-139703000D01*
X121463000Y-139743000D02*
X113114000Y-139743000D01*
X108754000Y-139743000D02*
X100405000Y-139743000D01*
X121450000Y-139783000D02*
X113114000Y-139783000D01*
X108754000Y-139783000D02*
X100418000Y-139783000D01*
X121437000Y-139823000D02*
X113114000Y-139823000D01*
X108754000Y-139823000D02*
X100431000Y-139823000D01*
X121424000Y-139863000D02*
X113114000Y-139863000D01*
X108754000Y-139863000D02*
X100444000Y-139863000D01*
X121411000Y-139903000D02*
X113114000Y-139903000D01*
X108754000Y-139903000D02*
X100457000Y-139903000D01*
X121398000Y-139943000D02*
X113114000Y-139943000D01*
X108754000Y-139943000D02*
X100470000Y-139943000D01*
X121384000Y-139983000D02*
X113114000Y-139983000D01*
X108754000Y-139983000D02*
X100484000Y-139983000D01*
X121370000Y-140023000D02*
X113114000Y-140023000D01*
X108754000Y-140023000D02*
X100498000Y-140023000D01*
X121356000Y-140063000D02*
X113114000Y-140063000D01*
X108754000Y-140063000D02*
X100512000Y-140063000D01*
X121342000Y-140103000D02*
X113114000Y-140103000D01*
X108754000Y-140103000D02*
X100526000Y-140103000D01*
X121328000Y-140143000D02*
X113114000Y-140143000D01*
X108754000Y-140143000D02*
X100540000Y-140143000D01*
X121313000Y-140183000D02*
X113114000Y-140183000D01*
X108754000Y-140183000D02*
X100555000Y-140183000D01*
X121298000Y-140223000D02*
X113114000Y-140223000D01*
X108754000Y-140223000D02*
X100570000Y-140223000D01*
X121284000Y-140263000D02*
X113114000Y-140263000D01*
X108754000Y-140263000D02*
X100584000Y-140263000D01*
X121269000Y-140303000D02*
X113114000Y-140303000D01*
X108754000Y-140303000D02*
X100599000Y-140303000D01*
X121253000Y-140343000D02*
X113114000Y-140343000D01*
X108754000Y-140343000D02*
X100615000Y-140343000D01*
X121238000Y-140383000D02*
X113114000Y-140383000D01*
X108754000Y-140383000D02*
X100630000Y-140383000D01*
X121222000Y-140423000D02*
X113114000Y-140423000D01*
X108754000Y-140423000D02*
X100646000Y-140423000D01*
X121207000Y-140463000D02*
X113114000Y-140463000D01*
X108754000Y-140463000D02*
X100661000Y-140463000D01*
X121191000Y-140503000D02*
X113114000Y-140503000D01*
X108754000Y-140503000D02*
X100677000Y-140503000D01*
X121175000Y-140543000D02*
X113114000Y-140543000D01*
X108754000Y-140543000D02*
X100693000Y-140543000D01*
X121158000Y-140583000D02*
X113114000Y-140583000D01*
X108754000Y-140583000D02*
X100710000Y-140583000D01*
X121142000Y-140623000D02*
X113114000Y-140623000D01*
X108754000Y-140623000D02*
X100726000Y-140623000D01*
X121125000Y-140663000D02*
X113114000Y-140663000D01*
X108754000Y-140663000D02*
X100743000Y-140663000D01*
X121108000Y-140703000D02*
X113114000Y-140703000D01*
X108754000Y-140703000D02*
X100760000Y-140703000D01*
X121091000Y-140743000D02*
X113114000Y-140743000D01*
X108754000Y-140743000D02*
X100777000Y-140743000D01*
X121074000Y-140783000D02*
X113114000Y-140783000D01*
X108754000Y-140783000D02*
X100794000Y-140783000D01*
X121057000Y-140823000D02*
X113114000Y-140823000D01*
X108754000Y-140823000D02*
X100811000Y-140823000D01*
X121039000Y-140863000D02*
X113114000Y-140863000D01*
X108754000Y-140863000D02*
X100829000Y-140863000D01*
X121022000Y-140903000D02*
X113114000Y-140903000D01*
X108754000Y-140903000D02*
X100846000Y-140903000D01*
X121004000Y-140943000D02*
X113114000Y-140943000D01*
X108754000Y-140943000D02*
X100864000Y-140943000D01*
X120985000Y-140983000D02*
X113114000Y-140983000D01*
X108754000Y-140983000D02*
X100883000Y-140983000D01*
X120967000Y-141023000D02*
X113114000Y-141023000D01*
X108754000Y-141023000D02*
X100901000Y-141023000D01*
X120949000Y-141063000D02*
X113114000Y-141063000D01*
X108754000Y-141063000D02*
X100919000Y-141063000D01*
X120930000Y-141103000D02*
X113114000Y-141103000D01*
X108754000Y-141103000D02*
X100938000Y-141103000D01*
X120911000Y-141143000D02*
X113114000Y-141143000D01*
X108754000Y-141143000D02*
X100957000Y-141143000D01*
X120892000Y-141183000D02*
X113114000Y-141183000D01*
X108754000Y-141183000D02*
X100976000Y-141183000D01*
X120873000Y-141223000D02*
X113114000Y-141223000D01*
X108754000Y-141223000D02*
X100995000Y-141223000D01*
X120853000Y-141263000D02*
X113114000Y-141263000D01*
X108754000Y-141263000D02*
X101015000Y-141263000D01*
X120833000Y-141303000D02*
X113114000Y-141303000D01*
X108754000Y-141303000D02*
X101035000Y-141303000D01*
X120813000Y-141343000D02*
X113114000Y-141343000D01*
X108754000Y-141343000D02*
X101055000Y-141343000D01*
X120793000Y-141383000D02*
X113114000Y-141383000D01*
X108754000Y-141383000D02*
X101075000Y-141383000D01*
X120773000Y-141423000D02*
X113114000Y-141423000D01*
X108754000Y-141423000D02*
X101095000Y-141423000D01*
X120753000Y-141463000D02*
X113114000Y-141463000D01*
X108754000Y-141463000D02*
X101115000Y-141463000D01*
X120732000Y-141503000D02*
X113114000Y-141503000D01*
X108754000Y-141503000D02*
X101136000Y-141503000D01*
X120711000Y-141543000D02*
X113114000Y-141543000D01*
X108754000Y-141543000D02*
X101157000Y-141543000D01*
X120690000Y-141583000D02*
X113114000Y-141583000D01*
X108754000Y-141583000D02*
X101178000Y-141583000D01*
X120668000Y-141623000D02*
X113114000Y-141623000D01*
X108754000Y-141623000D02*
X101200000Y-141623000D01*
X120647000Y-141663000D02*
X113114000Y-141663000D01*
X108754000Y-141663000D02*
X101221000Y-141663000D01*
X120625000Y-141703000D02*
X113114000Y-141703000D01*
X108754000Y-141703000D02*
X101243000Y-141703000D01*
X120603000Y-141743000D02*
X113114000Y-141743000D01*
X108754000Y-141743000D02*
X101265000Y-141743000D01*
X120581000Y-141783000D02*
X113114000Y-141783000D01*
X108754000Y-141783000D02*
X101287000Y-141783000D01*
X120559000Y-141823000D02*
X113114000Y-141823000D01*
X108754000Y-141823000D02*
X101309000Y-141823000D01*
X120536000Y-141863000D02*
X113114000Y-141863000D01*
X108754000Y-141863000D02*
X101332000Y-141863000D01*
X120513000Y-141903000D02*
X113114000Y-141903000D01*
X108754000Y-141903000D02*
X101355000Y-141903000D01*
X120490000Y-141943000D02*
X113114000Y-141943000D01*
X108754000Y-141943000D02*
X101378000Y-141943000D01*
X120467000Y-141983000D02*
X113114000Y-141983000D01*
X108754000Y-141983000D02*
X101401000Y-141983000D01*
X120443000Y-142023000D02*
X113114000Y-142023000D01*
X108754000Y-142023000D02*
X101425000Y-142023000D01*
X120420000Y-142063000D02*
X113114000Y-142063000D01*
X108754000Y-142063000D02*
X101448000Y-142063000D01*
X120396000Y-142103000D02*
X113114000Y-142103000D01*
X108754000Y-142103000D02*
X101472000Y-142103000D01*
X120371000Y-142143000D02*
X113114000Y-142143000D01*
X108754000Y-142143000D02*
X101497000Y-142143000D01*
X120347000Y-142183000D02*
X113114000Y-142183000D01*
X108754000Y-142183000D02*
X101521000Y-142183000D01*
X120322000Y-142223000D02*
X113114000Y-142223000D01*
X108754000Y-142223000D02*
X101546000Y-142223000D01*
X120297000Y-142263000D02*
X113114000Y-142263000D01*
X108754000Y-142263000D02*
X101571000Y-142263000D01*
X120272000Y-142303000D02*
X113114000Y-142303000D01*
X108754000Y-142303000D02*
X101596000Y-142303000D01*
X120247000Y-142343000D02*
X113114000Y-142343000D01*
X108754000Y-142343000D02*
X101621000Y-142343000D01*
X120221000Y-142383000D02*
X113114000Y-142383000D01*
X108754000Y-142383000D02*
X101647000Y-142383000D01*
X120195000Y-142423000D02*
X113114000Y-142423000D01*
X108754000Y-142423000D02*
X101673000Y-142423000D01*
X120169000Y-142463000D02*
X113114000Y-142463000D01*
X108754000Y-142463000D02*
X101699000Y-142463000D01*
X120143000Y-142503000D02*
X113114000Y-142503000D01*
X108754000Y-142503000D02*
X101725000Y-142503000D01*
X120116000Y-142543000D02*
X113114000Y-142543000D01*
X108754000Y-142543000D02*
X101752000Y-142543000D01*
X120090000Y-142583000D02*
X113114000Y-142583000D01*
X108754000Y-142583000D02*
X101778000Y-142583000D01*
X120062000Y-142623000D02*
X113114000Y-142623000D01*
X108754000Y-142623000D02*
X101806000Y-142623000D01*
X120035000Y-142663000D02*
X113114000Y-142663000D01*
X108754000Y-142663000D02*
X101833000Y-142663000D01*
X120007000Y-142703000D02*
X113114000Y-142703000D01*
X108754000Y-142703000D02*
X101861000Y-142703000D01*
X119980000Y-142743000D02*
X113114000Y-142743000D01*
X108754000Y-142743000D02*
X101888000Y-142743000D01*
X119951000Y-142783000D02*
X113114000Y-142783000D01*
X108754000Y-142783000D02*
X101917000Y-142783000D01*
X119923000Y-142823000D02*
X113114000Y-142823000D01*
X108754000Y-142823000D02*
X101945000Y-142823000D01*
X119894000Y-142863000D02*
X113114000Y-142863000D01*
X108754000Y-142863000D02*
X101974000Y-142863000D01*
X119865000Y-142903000D02*
X113114000Y-142903000D01*
X108754000Y-142903000D02*
X102003000Y-142903000D01*
X119836000Y-142943000D02*
X113114000Y-142943000D01*
X108754000Y-142943000D02*
X102032000Y-142943000D01*
X119807000Y-142983000D02*
X113114000Y-142983000D01*
X108754000Y-142983000D02*
X102061000Y-142983000D01*
X119777000Y-143023000D02*
X113114000Y-143023000D01*
X108754000Y-143023000D02*
X102091000Y-143023000D01*
X119747000Y-143063000D02*
X113114000Y-143063000D01*
X108754000Y-143063000D02*
X102121000Y-143063000D01*
X119717000Y-143103000D02*
X113114000Y-143103000D01*
X108754000Y-143103000D02*
X102151000Y-143103000D01*
X119686000Y-143143000D02*
X113114000Y-143143000D01*
X108754000Y-143143000D02*
X102182000Y-143143000D01*
X119655000Y-143183000D02*
X113114000Y-143183000D01*
X108754000Y-143183000D02*
X102213000Y-143183000D01*
X119624000Y-143223000D02*
X113114000Y-143223000D01*
X108754000Y-143223000D02*
X102244000Y-143223000D01*
X119592000Y-143263000D02*
X113114000Y-143263000D01*
X108754000Y-143263000D02*
X102276000Y-143263000D01*
X119561000Y-143303000D02*
X113114000Y-143303000D01*
X108754000Y-143303000D02*
X102307000Y-143303000D01*
X119529000Y-143343000D02*
X113114000Y-143343000D01*
X108754000Y-143343000D02*
X102339000Y-143343000D01*
X119496000Y-143383000D02*
X113114000Y-143383000D01*
X108754000Y-143383000D02*
X102372000Y-143383000D01*
X119463000Y-143423000D02*
X113114000Y-143423000D01*
X108754000Y-143423000D02*
X102405000Y-143423000D01*
X119430000Y-143463000D02*
X113114000Y-143463000D01*
X108754000Y-143463000D02*
X102438000Y-143463000D01*
X119397000Y-143503000D02*
X113114000Y-143503000D01*
X108754000Y-143503000D02*
X102471000Y-143503000D01*
X119363000Y-143543000D02*
X113114000Y-143543000D01*
X108754000Y-143543000D02*
X102505000Y-143543000D01*
X119329000Y-143583000D02*
X102539000Y-143583000D01*
X119295000Y-143623000D02*
X102573000Y-143623000D01*
X119260000Y-143663000D02*
X102608000Y-143663000D01*
X119226000Y-143703000D02*
X102642000Y-143703000D01*
X119190000Y-143743000D02*
X102678000Y-143743000D01*
X119155000Y-143783000D02*
X102713000Y-143783000D01*
X119119000Y-143823000D02*
X102749000Y-143823000D01*
X119082000Y-143863000D02*
X102786000Y-143863000D01*
X119045000Y-143903000D02*
X102823000Y-143903000D01*
X119008000Y-143943000D02*
X102860000Y-143943000D01*
X118971000Y-143983000D02*
X102897000Y-143983000D01*
X118933000Y-144023000D02*
X102935000Y-144023000D01*
X118895000Y-144063000D02*
X102973000Y-144063000D01*
X118856000Y-144103000D02*
X103012000Y-144103000D01*
X118817000Y-144143000D02*
X103051000Y-144143000D01*
X118778000Y-144183000D02*
X103090000Y-144183000D01*
X118738000Y-144223000D02*
X103130000Y-144223000D01*
X118698000Y-144263000D02*
X103170000Y-144263000D01*
X118657000Y-144303000D02*
X103211000Y-144303000D01*
X118616000Y-144343000D02*
X103252000Y-144343000D01*
X118575000Y-144383000D02*
X103293000Y-144383000D01*
X118533000Y-144423000D02*
X103335000Y-144423000D01*
X118491000Y-144463000D02*
X103377000Y-144463000D01*
X118448000Y-144503000D02*
X103420000Y-144503000D01*
X118405000Y-144543000D02*
X103463000Y-144543000D01*
X118361000Y-144582000D02*
X103507000Y-144582000D01*
X118317000Y-144622000D02*
X103551000Y-144622000D01*
X118272000Y-144662000D02*
X103596000Y-144662000D01*
X118227000Y-144702000D02*
X103641000Y-144702000D01*
X118181000Y-144742000D02*
X103687000Y-144742000D01*
X118135000Y-144782000D02*
X103733000Y-144782000D01*
X118089000Y-144822000D02*
X103779000Y-144822000D01*
X118041000Y-144862000D02*
X103827000Y-144862000D01*
X117994000Y-144902000D02*
X103874000Y-144902000D01*
X117945000Y-144942000D02*
X103923000Y-144942000D01*
X117897000Y-144982000D02*
X103971000Y-144982000D01*
X117847000Y-145022000D02*
X104021000Y-145022000D01*
X117797000Y-145062000D02*
X104071000Y-145062000D01*
X117746000Y-145102000D02*
X104122000Y-145102000D01*
X117695000Y-145142000D02*
X104173000Y-145142000D01*
X117643000Y-145182000D02*
X104225000Y-145182000D01*
X117591000Y-145222000D02*
X104277000Y-145222000D01*
X117538000Y-145262000D02*
X104330000Y-145262000D01*
X117484000Y-145302000D02*
X104384000Y-145302000D01*
X117430000Y-145342000D02*
X104438000Y-145342000D01*
X117374000Y-145382000D02*
X104494000Y-145382000D01*
X117318000Y-145422000D02*
X104550000Y-145422000D01*
X117262000Y-145462000D02*
X104606000Y-145462000D01*
X117204000Y-145502000D02*
X104664000Y-145502000D01*
X117146000Y-145542000D02*
X104722000Y-145542000D01*
X117087000Y-145582000D02*
X104781000Y-145582000D01*
X117027000Y-145622000D02*
X104841000Y-145622000D01*
X116967000Y-145662000D02*
X104901000Y-145662000D01*
X116905000Y-145702000D02*
X104963000Y-145702000D01*
X116842000Y-145742000D02*
X105026000Y-145742000D01*
X116779000Y-145782000D02*
X105089000Y-145782000D01*
X116715000Y-145822000D02*
X105153000Y-145822000D01*
X116649000Y-145862000D02*
X105219000Y-145862000D01*
X116583000Y-145902000D02*
X105285000Y-145902000D01*
X116515000Y-145942000D02*
X105353000Y-145942000D01*
X116447000Y-145982000D02*
X105421000Y-145982000D01*
X116377000Y-146022000D02*
X105491000Y-146022000D01*
X116306000Y-146062000D02*
X105562000Y-146062000D01*
X116234000Y-146102000D02*
X105634000Y-146102000D01*
X116160000Y-146142000D02*
X105708000Y-146142000D01*
X116086000Y-146182000D02*
X105782000Y-146182000D01*
X116009000Y-146222000D02*
X105859000Y-146222000D01*
X115932000Y-146262000D02*
X105936000Y-146262000D01*
X115852000Y-146302000D02*
X106016000Y-146302000D01*
X115772000Y-146342000D02*
X106096000Y-146342000D01*
X115689000Y-146382000D02*
X106179000Y-146382000D01*
X115605000Y-146422000D02*
X106263000Y-146422000D01*
X115519000Y-146462000D02*
X106349000Y-146462000D01*
X115430000Y-146502000D02*
X106438000Y-146502000D01*
X115340000Y-146542000D02*
X106528000Y-146542000D01*
X115247000Y-146582000D02*
X106621000Y-146582000D01*
X115152000Y-146622000D02*
X106716000Y-146622000D01*
X115055000Y-146662000D02*
X106813000Y-146662000D01*
X114955000Y-146702000D02*
X106913000Y-146702000D01*
X114852000Y-146742000D02*
X107016000Y-146742000D01*
X114745000Y-146782000D02*
X107123000Y-146782000D01*
X114635000Y-146822000D02*
X107233000Y-146822000D01*
X114522000Y-146862000D02*
X107346000Y-146862000D01*
X114404000Y-146902000D02*
X107464000Y-146902000D01*
X114282000Y-146942000D02*
X107586000Y-146942000D01*
X114155000Y-146982000D02*
X107713000Y-146982000D01*
X114022000Y-147022000D02*
X107846000Y-147022000D01*
X113882000Y-147062000D02*
X107986000Y-147062000D01*
X113735000Y-147102000D02*
X108133000Y-147102000D01*
X113580000Y-147142000D02*
X108288000Y-147142000D01*
X113414000Y-147182000D02*
X108454000Y-147182000D01*
X113236000Y-147222000D02*
X108632000Y-147222000D01*
X113042000Y-147262000D02*
X108826000Y-147262000D01*
X112829000Y-147302000D02*
X109039000Y-147302000D01*
X112588000Y-147342000D02*
X109280000Y-147342000D01*
X112305000Y-147382000D02*
X109563000Y-147382000D01*
X111946000Y-147422000D02*
X109922000Y-147422000D01*
X111365000Y-147462000D02*
X110503000Y-147462000D01*
X110934000Y-126182000D02*
X110934000Y-129182000D01*
X112434000Y-127682000D02*
X109434000Y-127682000D01*
X149822000Y-122114000D02*
G75*
G03X149822000Y-122114000I-8090000J0D01*
G01*
X149783000Y-122114000D02*
X133681000Y-122114000D01*
X149782000Y-122154000D02*
X133682000Y-122154000D01*
X149782000Y-122194000D02*
X133682000Y-122194000D01*
X149782000Y-122234000D02*
X133682000Y-122234000D01*
X149781000Y-122274000D02*
X133683000Y-122274000D01*
X149780000Y-122314000D02*
X133684000Y-122314000D01*
X149779000Y-122354000D02*
X133685000Y-122354000D01*
X149778000Y-122394000D02*
X133686000Y-122394000D01*
X149776000Y-122434000D02*
X133688000Y-122434000D01*
X149774000Y-122474000D02*
X133690000Y-122474000D01*
X149773000Y-122514000D02*
X133691000Y-122514000D01*
X149771000Y-122554000D02*
X133693000Y-122554000D01*
X149768000Y-122594000D02*
X133696000Y-122594000D01*
X149766000Y-122634000D02*
X133698000Y-122634000D01*
X149763000Y-122674000D02*
X133701000Y-122674000D01*
X149760000Y-122714000D02*
X133704000Y-122714000D01*
X149757000Y-122754000D02*
X133707000Y-122754000D01*
X149754000Y-122794000D02*
X133710000Y-122794000D01*
X149750000Y-122835000D02*
X133714000Y-122835000D01*
X149747000Y-122875000D02*
X133717000Y-122875000D01*
X149743000Y-122915000D02*
X133721000Y-122915000D01*
X149739000Y-122955000D02*
X133725000Y-122955000D01*
X149734000Y-122995000D02*
X133730000Y-122995000D01*
X149730000Y-123035000D02*
X133734000Y-123035000D01*
X149725000Y-123075000D02*
X133739000Y-123075000D01*
X149720000Y-123115000D02*
X133744000Y-123115000D01*
X149715000Y-123155000D02*
X133749000Y-123155000D01*
X149710000Y-123195000D02*
X133754000Y-123195000D01*
X149705000Y-123235000D02*
X133759000Y-123235000D01*
X149699000Y-123275000D02*
X133765000Y-123275000D01*
X149693000Y-123315000D02*
X133771000Y-123315000D01*
X149687000Y-123355000D02*
X133777000Y-123355000D01*
X149681000Y-123395000D02*
X133783000Y-123395000D01*
X149674000Y-123435000D02*
X133790000Y-123435000D01*
X149667000Y-123475000D02*
X133797000Y-123475000D01*
X149660000Y-123515000D02*
X133804000Y-123515000D01*
X149653000Y-123555000D02*
X133811000Y-123555000D01*
X149646000Y-123595000D02*
X133818000Y-123595000D01*
X149638000Y-123635000D02*
X133826000Y-123635000D01*
X149631000Y-123675000D02*
X133833000Y-123675000D01*
X149623000Y-123715000D02*
X133841000Y-123715000D01*
X149615000Y-123755000D02*
X133849000Y-123755000D01*
X149606000Y-123795000D02*
X133858000Y-123795000D01*
X149598000Y-123835000D02*
X133866000Y-123835000D01*
X149589000Y-123875000D02*
X133875000Y-123875000D01*
X149580000Y-123915000D02*
X133884000Y-123915000D01*
X149570000Y-123955000D02*
X133894000Y-123955000D01*
X149561000Y-123995000D02*
X133903000Y-123995000D01*
X149551000Y-124035000D02*
X133913000Y-124035000D01*
X149541000Y-124075000D02*
X133923000Y-124075000D01*
X149531000Y-124115000D02*
X133933000Y-124115000D01*
X149521000Y-124155000D02*
X133943000Y-124155000D01*
X149511000Y-124195000D02*
X133953000Y-124195000D01*
X149500000Y-124235000D02*
X133964000Y-124235000D01*
X149489000Y-124275000D02*
X133975000Y-124275000D01*
X149478000Y-124315000D02*
X133986000Y-124315000D01*
X149466000Y-124355000D02*
X133998000Y-124355000D01*
X149455000Y-124395000D02*
X134009000Y-124395000D01*
X149443000Y-124435000D02*
X134021000Y-124435000D01*
X149431000Y-124475000D02*
X134033000Y-124475000D01*
X149418000Y-124515000D02*
X143112000Y-124515000D01*
X140352000Y-124515000D02*
X134046000Y-124515000D01*
X149406000Y-124555000D02*
X143112000Y-124555000D01*
X140352000Y-124555000D02*
X134058000Y-124555000D01*
X149393000Y-124595000D02*
X143112000Y-124595000D01*
X140352000Y-124595000D02*
X134071000Y-124595000D01*
X149380000Y-124635000D02*
X143112000Y-124635000D01*
X140352000Y-124635000D02*
X134084000Y-124635000D01*
X149367000Y-124675000D02*
X143112000Y-124675000D01*
X140352000Y-124675000D02*
X134097000Y-124675000D01*
X149353000Y-124715000D02*
X143112000Y-124715000D01*
X140352000Y-124715000D02*
X134111000Y-124715000D01*
X149340000Y-124755000D02*
X143112000Y-124755000D01*
X140352000Y-124755000D02*
X134124000Y-124755000D01*
X149326000Y-124795000D02*
X143112000Y-124795000D01*
X140352000Y-124795000D02*
X134138000Y-124795000D01*
X149312000Y-124835000D02*
X143112000Y-124835000D01*
X140352000Y-124835000D02*
X134152000Y-124835000D01*
X149297000Y-124875000D02*
X143112000Y-124875000D01*
X140352000Y-124875000D02*
X134167000Y-124875000D01*
X149282000Y-124915000D02*
X143112000Y-124915000D01*
X140352000Y-124915000D02*
X134182000Y-124915000D01*
X149268000Y-124955000D02*
X143112000Y-124955000D01*
X140352000Y-124955000D02*
X134196000Y-124955000D01*
X149253000Y-124995000D02*
X143112000Y-124995000D01*
X140352000Y-124995000D02*
X134211000Y-124995000D01*
X149237000Y-125035000D02*
X143112000Y-125035000D01*
X140352000Y-125035000D02*
X134227000Y-125035000D01*
X149222000Y-125075000D02*
X143112000Y-125075000D01*
X140352000Y-125075000D02*
X134242000Y-125075000D01*
X149206000Y-125115000D02*
X143112000Y-125115000D01*
X140352000Y-125115000D02*
X134258000Y-125115000D01*
X149190000Y-125155000D02*
X143112000Y-125155000D01*
X140352000Y-125155000D02*
X134274000Y-125155000D01*
X149173000Y-125195000D02*
X143112000Y-125195000D01*
X140352000Y-125195000D02*
X134291000Y-125195000D01*
X149157000Y-125235000D02*
X143112000Y-125235000D01*
X140352000Y-125235000D02*
X134307000Y-125235000D01*
X149140000Y-125275000D02*
X143112000Y-125275000D01*
X140352000Y-125275000D02*
X134324000Y-125275000D01*
X149123000Y-125315000D02*
X143112000Y-125315000D01*
X140352000Y-125315000D02*
X134341000Y-125315000D01*
X149105000Y-125355000D02*
X143112000Y-125355000D01*
X140352000Y-125355000D02*
X134359000Y-125355000D01*
X149088000Y-125395000D02*
X143112000Y-125395000D01*
X140352000Y-125395000D02*
X134376000Y-125395000D01*
X149070000Y-125435000D02*
X143112000Y-125435000D01*
X140352000Y-125435000D02*
X134394000Y-125435000D01*
X149052000Y-125475000D02*
X143112000Y-125475000D01*
X140352000Y-125475000D02*
X134412000Y-125475000D01*
X149033000Y-125515000D02*
X143112000Y-125515000D01*
X140352000Y-125515000D02*
X134431000Y-125515000D01*
X149015000Y-125555000D02*
X143112000Y-125555000D01*
X140352000Y-125555000D02*
X134449000Y-125555000D01*
X148996000Y-125595000D02*
X143112000Y-125595000D01*
X140352000Y-125595000D02*
X134468000Y-125595000D01*
X148977000Y-125635000D02*
X143112000Y-125635000D01*
X140352000Y-125635000D02*
X134487000Y-125635000D01*
X148957000Y-125675000D02*
X143112000Y-125675000D01*
X140352000Y-125675000D02*
X134507000Y-125675000D01*
X148937000Y-125715000D02*
X143112000Y-125715000D01*
X140352000Y-125715000D02*
X134527000Y-125715000D01*
X148917000Y-125755000D02*
X143112000Y-125755000D01*
X140352000Y-125755000D02*
X134547000Y-125755000D01*
X148897000Y-125795000D02*
X143112000Y-125795000D01*
X140352000Y-125795000D02*
X134567000Y-125795000D01*
X148876000Y-125835000D02*
X143112000Y-125835000D01*
X140352000Y-125835000D02*
X134588000Y-125835000D01*
X148856000Y-125875000D02*
X143112000Y-125875000D01*
X140352000Y-125875000D02*
X134608000Y-125875000D01*
X148834000Y-125915000D02*
X143112000Y-125915000D01*
X140352000Y-125915000D02*
X134630000Y-125915000D01*
X148813000Y-125955000D02*
X143112000Y-125955000D01*
X140352000Y-125955000D02*
X134651000Y-125955000D01*
X148791000Y-125995000D02*
X143112000Y-125995000D01*
X140352000Y-125995000D02*
X134673000Y-125995000D01*
X148769000Y-126035000D02*
X143112000Y-126035000D01*
X140352000Y-126035000D02*
X134695000Y-126035000D01*
X148747000Y-126075000D02*
X143112000Y-126075000D01*
X140352000Y-126075000D02*
X134717000Y-126075000D01*
X148724000Y-126115000D02*
X143112000Y-126115000D01*
X140352000Y-126115000D02*
X134740000Y-126115000D01*
X148702000Y-126155000D02*
X143112000Y-126155000D01*
X140352000Y-126155000D02*
X134762000Y-126155000D01*
X148678000Y-126195000D02*
X143112000Y-126195000D01*
X140352000Y-126195000D02*
X134786000Y-126195000D01*
X148655000Y-126235000D02*
X143112000Y-126235000D01*
X140352000Y-126235000D02*
X134809000Y-126235000D01*
X148631000Y-126275000D02*
X143112000Y-126275000D01*
X140352000Y-126275000D02*
X134833000Y-126275000D01*
X148607000Y-126315000D02*
X143112000Y-126315000D01*
X140352000Y-126315000D02*
X134857000Y-126315000D01*
X148582000Y-126355000D02*
X143112000Y-126355000D01*
X140352000Y-126355000D02*
X134882000Y-126355000D01*
X148558000Y-126395000D02*
X143112000Y-126395000D01*
X140352000Y-126395000D02*
X134906000Y-126395000D01*
X148533000Y-126435000D02*
X143112000Y-126435000D01*
X140352000Y-126435000D02*
X134931000Y-126435000D01*
X148507000Y-126475000D02*
X143112000Y-126475000D01*
X140352000Y-126475000D02*
X134957000Y-126475000D01*
X148481000Y-126515000D02*
X143112000Y-126515000D01*
X140352000Y-126515000D02*
X134983000Y-126515000D01*
X148455000Y-126555000D02*
X143112000Y-126555000D01*
X140352000Y-126555000D02*
X135009000Y-126555000D01*
X148429000Y-126595000D02*
X143112000Y-126595000D01*
X140352000Y-126595000D02*
X135035000Y-126595000D01*
X148402000Y-126635000D02*
X143112000Y-126635000D01*
X140352000Y-126635000D02*
X135062000Y-126635000D01*
X148375000Y-126675000D02*
X143112000Y-126675000D01*
X140352000Y-126675000D02*
X135089000Y-126675000D01*
X148347000Y-126715000D02*
X143112000Y-126715000D01*
X140352000Y-126715000D02*
X135117000Y-126715000D01*
X148320000Y-126755000D02*
X143112000Y-126755000D01*
X140352000Y-126755000D02*
X135144000Y-126755000D01*
X148291000Y-126795000D02*
X143112000Y-126795000D01*
X140352000Y-126795000D02*
X135173000Y-126795000D01*
X148263000Y-126835000D02*
X143112000Y-126835000D01*
X140352000Y-126835000D02*
X135201000Y-126835000D01*
X148234000Y-126875000D02*
X143112000Y-126875000D01*
X140352000Y-126875000D02*
X135230000Y-126875000D01*
X148205000Y-126915000D02*
X143112000Y-126915000D01*
X140352000Y-126915000D02*
X135259000Y-126915000D01*
X148175000Y-126955000D02*
X143112000Y-126955000D01*
X140352000Y-126955000D02*
X135289000Y-126955000D01*
X148145000Y-126995000D02*
X143112000Y-126995000D01*
X140352000Y-126995000D02*
X135319000Y-126995000D01*
X148114000Y-127035000D02*
X143112000Y-127035000D01*
X140352000Y-127035000D02*
X135350000Y-127035000D01*
X148084000Y-127075000D02*
X143112000Y-127075000D01*
X140352000Y-127075000D02*
X135380000Y-127075000D01*
X148052000Y-127115000D02*
X143112000Y-127115000D01*
X140352000Y-127115000D02*
X135412000Y-127115000D01*
X148021000Y-127155000D02*
X143112000Y-127155000D01*
X140352000Y-127155000D02*
X135443000Y-127155000D01*
X147989000Y-127195000D02*
X143112000Y-127195000D01*
X140352000Y-127195000D02*
X135475000Y-127195000D01*
X147956000Y-127235000D02*
X143112000Y-127235000D01*
X140352000Y-127235000D02*
X135508000Y-127235000D01*
X147923000Y-127275000D02*
X135541000Y-127275000D01*
X147890000Y-127315000D02*
X135574000Y-127315000D01*
X147856000Y-127355000D02*
X135608000Y-127355000D01*
X147822000Y-127395000D02*
X135642000Y-127395000D01*
X147787000Y-127435000D02*
X135677000Y-127435000D01*
X147752000Y-127475000D02*
X135712000Y-127475000D01*
X147716000Y-127515000D02*
X135748000Y-127515000D01*
X147680000Y-127555000D02*
X135784000Y-127555000D01*
X147644000Y-127595000D02*
X135820000Y-127595000D01*
X147607000Y-127635000D02*
X135857000Y-127635000D01*
X147569000Y-127675000D02*
X135895000Y-127675000D01*
X147531000Y-127715000D02*
X135933000Y-127715000D01*
X147492000Y-127755000D02*
X135972000Y-127755000D01*
X147453000Y-127795000D02*
X136011000Y-127795000D01*
X147413000Y-127835000D02*
X136051000Y-127835000D01*
X147373000Y-127875000D02*
X136091000Y-127875000D01*
X147332000Y-127915000D02*
X136132000Y-127915000D01*
X147291000Y-127955000D02*
X136173000Y-127955000D01*
X147249000Y-127995000D02*
X136215000Y-127995000D01*
X147206000Y-128035000D02*
X136258000Y-128035000D01*
X147163000Y-128075000D02*
X136301000Y-128075000D01*
X147119000Y-128115000D02*
X136345000Y-128115000D01*
X147075000Y-128155000D02*
X136389000Y-128155000D01*
X147029000Y-128195000D02*
X136435000Y-128195000D01*
X146983000Y-128235000D02*
X136481000Y-128235000D01*
X146937000Y-128275000D02*
X136527000Y-128275000D01*
X146889000Y-128315000D02*
X136575000Y-128315000D01*
X146841000Y-128355000D02*
X136623000Y-128355000D01*
X146792000Y-128395000D02*
X136672000Y-128395000D01*
X146743000Y-128435000D02*
X136721000Y-128435000D01*
X146692000Y-128475000D02*
X136772000Y-128475000D01*
X146641000Y-128515000D02*
X136823000Y-128515000D01*
X146589000Y-128555000D02*
X136875000Y-128555000D01*
X146536000Y-128595000D02*
X136928000Y-128595000D01*
X146482000Y-128635000D02*
X136982000Y-128635000D01*
X146427000Y-128675000D02*
X137037000Y-128675000D01*
X146371000Y-128715000D02*
X137093000Y-128715000D01*
X146314000Y-128755000D02*
X137150000Y-128755000D01*
X146256000Y-128795000D02*
X137208000Y-128795000D01*
X146197000Y-128835000D02*
X137267000Y-128835000D01*
X146137000Y-128875000D02*
X137327000Y-128875000D01*
X146075000Y-128915000D02*
X137389000Y-128915000D01*
X146013000Y-128955000D02*
X137451000Y-128955000D01*
X145949000Y-128995000D02*
X137515000Y-128995000D01*
X145883000Y-129035000D02*
X137581000Y-129035000D01*
X145816000Y-129075000D02*
X137648000Y-129075000D01*
X145748000Y-129115000D02*
X137716000Y-129115000D01*
X145678000Y-129155000D02*
X137786000Y-129155000D01*
X145607000Y-129195000D02*
X137857000Y-129195000D01*
X145534000Y-129235000D02*
X137930000Y-129235000D01*
X145458000Y-129275000D02*
X138006000Y-129275000D01*
X145381000Y-129315000D02*
X138083000Y-129315000D01*
X145302000Y-129355000D02*
X138162000Y-129355000D01*
X145221000Y-129395000D02*
X138243000Y-129395000D01*
X145137000Y-129435000D02*
X138327000Y-129435000D01*
X145051000Y-129475000D02*
X138413000Y-129475000D01*
X144962000Y-129515000D02*
X138502000Y-129515000D01*
X144870000Y-129555000D02*
X138594000Y-129555000D01*
X144774000Y-129595000D02*
X138690000Y-129595000D01*
X144675000Y-129635000D02*
X138789000Y-129635000D01*
X144573000Y-129675000D02*
X138891000Y-129675000D01*
X144465000Y-129715000D02*
X138999000Y-129715000D01*
X144353000Y-129755000D02*
X139111000Y-129755000D01*
X144235000Y-129795000D02*
X139229000Y-129795000D01*
X144111000Y-129835000D02*
X139353000Y-129835000D01*
X143980000Y-129875000D02*
X139484000Y-129875000D01*
X143839000Y-129915000D02*
X139625000Y-129915000D01*
X143688000Y-129955000D02*
X139776000Y-129955000D01*
X143524000Y-129995000D02*
X139940000Y-129995000D01*
X143342000Y-130035000D02*
X140122000Y-130035000D01*
X143137000Y-130075000D02*
X140327000Y-130075000D01*
X142896000Y-130115000D02*
X140568000Y-130115000D01*
X142591000Y-130155000D02*
X140873000Y-130155000D01*
X142095000Y-130195000D02*
X141369000Y-130195000D01*
X141732000Y-115164000D02*
X141732000Y-116964000D01*
X142632000Y-116064000D02*
X140832000Y-116064000D01*
X121624000Y-87566000D02*
G75*
G03X121624000Y-87566000I-8090000J0D01*
G01*
X113534000Y-95617000D02*
X113534000Y-79515000D01*
X113494000Y-95616000D02*
X113494000Y-79516000D01*
X113454000Y-95616000D02*
X113454000Y-79516000D01*
X113414000Y-95616000D02*
X113414000Y-79516000D01*
X113374000Y-95615000D02*
X113374000Y-79517000D01*
X113334000Y-95614000D02*
X113334000Y-79518000D01*
X113294000Y-95613000D02*
X113294000Y-79519000D01*
X113254000Y-95612000D02*
X113254000Y-79520000D01*
X113214000Y-95610000D02*
X113214000Y-79522000D01*
X113174000Y-95608000D02*
X113174000Y-79524000D01*
X113134000Y-95607000D02*
X113134000Y-79525000D01*
X113094000Y-95605000D02*
X113094000Y-79527000D01*
X113054000Y-95602000D02*
X113054000Y-79530000D01*
X113014000Y-95600000D02*
X113014000Y-79532000D01*
X112974000Y-95597000D02*
X112974000Y-79535000D01*
X112934000Y-95594000D02*
X112934000Y-79538000D01*
X112894000Y-95591000D02*
X112894000Y-79541000D01*
X112854000Y-95588000D02*
X112854000Y-79544000D01*
X112813000Y-95584000D02*
X112813000Y-79548000D01*
X112773000Y-95581000D02*
X112773000Y-79551000D01*
X112733000Y-95577000D02*
X112733000Y-79555000D01*
X112693000Y-95573000D02*
X112693000Y-79559000D01*
X112653000Y-95568000D02*
X112653000Y-79564000D01*
X112613000Y-95564000D02*
X112613000Y-79568000D01*
X112573000Y-95559000D02*
X112573000Y-79573000D01*
X112533000Y-95554000D02*
X112533000Y-79578000D01*
X112493000Y-95549000D02*
X112493000Y-79583000D01*
X112453000Y-95544000D02*
X112453000Y-79588000D01*
X112413000Y-95539000D02*
X112413000Y-79593000D01*
X112373000Y-95533000D02*
X112373000Y-79599000D01*
X112333000Y-95527000D02*
X112333000Y-79605000D01*
X112293000Y-95521000D02*
X112293000Y-79611000D01*
X112253000Y-95515000D02*
X112253000Y-79617000D01*
X112213000Y-95508000D02*
X112213000Y-79624000D01*
X112173000Y-95501000D02*
X112173000Y-79631000D01*
X112133000Y-95494000D02*
X112133000Y-79638000D01*
X112093000Y-95487000D02*
X112093000Y-79645000D01*
X112053000Y-95480000D02*
X112053000Y-79652000D01*
X112013000Y-95472000D02*
X112013000Y-79660000D01*
X111973000Y-95465000D02*
X111973000Y-79667000D01*
X111933000Y-95457000D02*
X111933000Y-79675000D01*
X111893000Y-95449000D02*
X111893000Y-79683000D01*
X111853000Y-95440000D02*
X111853000Y-79692000D01*
X111813000Y-95432000D02*
X111813000Y-79700000D01*
X111773000Y-95423000D02*
X111773000Y-79709000D01*
X111733000Y-95414000D02*
X111733000Y-79718000D01*
X111693000Y-95404000D02*
X111693000Y-79728000D01*
X111653000Y-95395000D02*
X111653000Y-79737000D01*
X111613000Y-95385000D02*
X111613000Y-79747000D01*
X111573000Y-95375000D02*
X111573000Y-79757000D01*
X111533000Y-95365000D02*
X111533000Y-79767000D01*
X111493000Y-95355000D02*
X111493000Y-79777000D01*
X111453000Y-95345000D02*
X111453000Y-79787000D01*
X111413000Y-95334000D02*
X111413000Y-79798000D01*
X111373000Y-95323000D02*
X111373000Y-79809000D01*
X111333000Y-95312000D02*
X111333000Y-79820000D01*
X111293000Y-95300000D02*
X111293000Y-79832000D01*
X111253000Y-95289000D02*
X111253000Y-79843000D01*
X111213000Y-95277000D02*
X111213000Y-79855000D01*
X111173000Y-95265000D02*
X111173000Y-79867000D01*
X111133000Y-95252000D02*
X111133000Y-88946000D01*
X111133000Y-86186000D02*
X111133000Y-79880000D01*
X111093000Y-95240000D02*
X111093000Y-88946000D01*
X111093000Y-86186000D02*
X111093000Y-79892000D01*
X111053000Y-95227000D02*
X111053000Y-88946000D01*
X111053000Y-86186000D02*
X111053000Y-79905000D01*
X111013000Y-95214000D02*
X111013000Y-88946000D01*
X111013000Y-86186000D02*
X111013000Y-79918000D01*
X110973000Y-95201000D02*
X110973000Y-88946000D01*
X110973000Y-86186000D02*
X110973000Y-79931000D01*
X110933000Y-95187000D02*
X110933000Y-88946000D01*
X110933000Y-86186000D02*
X110933000Y-79945000D01*
X110893000Y-95174000D02*
X110893000Y-88946000D01*
X110893000Y-86186000D02*
X110893000Y-79958000D01*
X110853000Y-95160000D02*
X110853000Y-88946000D01*
X110853000Y-86186000D02*
X110853000Y-79972000D01*
X110813000Y-95146000D02*
X110813000Y-88946000D01*
X110813000Y-86186000D02*
X110813000Y-79986000D01*
X110773000Y-95131000D02*
X110773000Y-88946000D01*
X110773000Y-86186000D02*
X110773000Y-80001000D01*
X110733000Y-95116000D02*
X110733000Y-88946000D01*
X110733000Y-86186000D02*
X110733000Y-80016000D01*
X110693000Y-95102000D02*
X110693000Y-88946000D01*
X110693000Y-86186000D02*
X110693000Y-80030000D01*
X110653000Y-95087000D02*
X110653000Y-88946000D01*
X110653000Y-86186000D02*
X110653000Y-80045000D01*
X110613000Y-95071000D02*
X110613000Y-88946000D01*
X110613000Y-86186000D02*
X110613000Y-80061000D01*
X110573000Y-95056000D02*
X110573000Y-88946000D01*
X110573000Y-86186000D02*
X110573000Y-80076000D01*
X110533000Y-95040000D02*
X110533000Y-88946000D01*
X110533000Y-86186000D02*
X110533000Y-80092000D01*
X110493000Y-95024000D02*
X110493000Y-88946000D01*
X110493000Y-86186000D02*
X110493000Y-80108000D01*
X110453000Y-95007000D02*
X110453000Y-88946000D01*
X110453000Y-86186000D02*
X110453000Y-80125000D01*
X110413000Y-94991000D02*
X110413000Y-88946000D01*
X110413000Y-86186000D02*
X110413000Y-80141000D01*
X110373000Y-94974000D02*
X110373000Y-88946000D01*
X110373000Y-86186000D02*
X110373000Y-80158000D01*
X110333000Y-94957000D02*
X110333000Y-88946000D01*
X110333000Y-86186000D02*
X110333000Y-80175000D01*
X110293000Y-94939000D02*
X110293000Y-88946000D01*
X110293000Y-86186000D02*
X110293000Y-80193000D01*
X110253000Y-94922000D02*
X110253000Y-88946000D01*
X110253000Y-86186000D02*
X110253000Y-80210000D01*
X110213000Y-94904000D02*
X110213000Y-88946000D01*
X110213000Y-86186000D02*
X110213000Y-80228000D01*
X110173000Y-94886000D02*
X110173000Y-88946000D01*
X110173000Y-86186000D02*
X110173000Y-80246000D01*
X110133000Y-94867000D02*
X110133000Y-88946000D01*
X110133000Y-86186000D02*
X110133000Y-80265000D01*
X110093000Y-94849000D02*
X110093000Y-88946000D01*
X110093000Y-86186000D02*
X110093000Y-80283000D01*
X110053000Y-94830000D02*
X110053000Y-88946000D01*
X110053000Y-86186000D02*
X110053000Y-80302000D01*
X110013000Y-94811000D02*
X110013000Y-88946000D01*
X110013000Y-86186000D02*
X110013000Y-80321000D01*
X109973000Y-94791000D02*
X109973000Y-88946000D01*
X109973000Y-86186000D02*
X109973000Y-80341000D01*
X109933000Y-94771000D02*
X109933000Y-88946000D01*
X109933000Y-86186000D02*
X109933000Y-80361000D01*
X109893000Y-94751000D02*
X109893000Y-88946000D01*
X109893000Y-86186000D02*
X109893000Y-80381000D01*
X109853000Y-94731000D02*
X109853000Y-88946000D01*
X109853000Y-86186000D02*
X109853000Y-80401000D01*
X109813000Y-94710000D02*
X109813000Y-88946000D01*
X109813000Y-86186000D02*
X109813000Y-80422000D01*
X109773000Y-94690000D02*
X109773000Y-88946000D01*
X109773000Y-86186000D02*
X109773000Y-80442000D01*
X109733000Y-94668000D02*
X109733000Y-88946000D01*
X109733000Y-86186000D02*
X109733000Y-80464000D01*
X109693000Y-94647000D02*
X109693000Y-88946000D01*
X109693000Y-86186000D02*
X109693000Y-80485000D01*
X109653000Y-94625000D02*
X109653000Y-88946000D01*
X109653000Y-86186000D02*
X109653000Y-80507000D01*
X109613000Y-94603000D02*
X109613000Y-88946000D01*
X109613000Y-86186000D02*
X109613000Y-80529000D01*
X109573000Y-94581000D02*
X109573000Y-88946000D01*
X109573000Y-86186000D02*
X109573000Y-80551000D01*
X109533000Y-94558000D02*
X109533000Y-88946000D01*
X109533000Y-86186000D02*
X109533000Y-80574000D01*
X109493000Y-94536000D02*
X109493000Y-88946000D01*
X109493000Y-86186000D02*
X109493000Y-80596000D01*
X109453000Y-94512000D02*
X109453000Y-88946000D01*
X109453000Y-86186000D02*
X109453000Y-80620000D01*
X109413000Y-94489000D02*
X109413000Y-88946000D01*
X109413000Y-86186000D02*
X109413000Y-80643000D01*
X109373000Y-94465000D02*
X109373000Y-88946000D01*
X109373000Y-86186000D02*
X109373000Y-80667000D01*
X109333000Y-94441000D02*
X109333000Y-88946000D01*
X109333000Y-86186000D02*
X109333000Y-80691000D01*
X109293000Y-94416000D02*
X109293000Y-88946000D01*
X109293000Y-86186000D02*
X109293000Y-80716000D01*
X109253000Y-94392000D02*
X109253000Y-88946000D01*
X109253000Y-86186000D02*
X109253000Y-80740000D01*
X109213000Y-94367000D02*
X109213000Y-88946000D01*
X109213000Y-86186000D02*
X109213000Y-80765000D01*
X109173000Y-94341000D02*
X109173000Y-88946000D01*
X109173000Y-86186000D02*
X109173000Y-80791000D01*
X109133000Y-94315000D02*
X109133000Y-88946000D01*
X109133000Y-86186000D02*
X109133000Y-80817000D01*
X109093000Y-94289000D02*
X109093000Y-88946000D01*
X109093000Y-86186000D02*
X109093000Y-80843000D01*
X109053000Y-94263000D02*
X109053000Y-88946000D01*
X109053000Y-86186000D02*
X109053000Y-80869000D01*
X109013000Y-94236000D02*
X109013000Y-88946000D01*
X109013000Y-86186000D02*
X109013000Y-80896000D01*
X108973000Y-94209000D02*
X108973000Y-88946000D01*
X108973000Y-86186000D02*
X108973000Y-80923000D01*
X108933000Y-94181000D02*
X108933000Y-88946000D01*
X108933000Y-86186000D02*
X108933000Y-80951000D01*
X108893000Y-94154000D02*
X108893000Y-88946000D01*
X108893000Y-86186000D02*
X108893000Y-80978000D01*
X108853000Y-94125000D02*
X108853000Y-88946000D01*
X108853000Y-86186000D02*
X108853000Y-81007000D01*
X108813000Y-94097000D02*
X108813000Y-88946000D01*
X108813000Y-86186000D02*
X108813000Y-81035000D01*
X108773000Y-94068000D02*
X108773000Y-88946000D01*
X108773000Y-86186000D02*
X108773000Y-81064000D01*
X108733000Y-94039000D02*
X108733000Y-88946000D01*
X108733000Y-86186000D02*
X108733000Y-81093000D01*
X108693000Y-94009000D02*
X108693000Y-88946000D01*
X108693000Y-86186000D02*
X108693000Y-81123000D01*
X108653000Y-93979000D02*
X108653000Y-88946000D01*
X108653000Y-86186000D02*
X108653000Y-81153000D01*
X108613000Y-93948000D02*
X108613000Y-88946000D01*
X108613000Y-86186000D02*
X108613000Y-81184000D01*
X108573000Y-93918000D02*
X108573000Y-88946000D01*
X108573000Y-86186000D02*
X108573000Y-81214000D01*
X108533000Y-93886000D02*
X108533000Y-88946000D01*
X108533000Y-86186000D02*
X108533000Y-81246000D01*
X108493000Y-93855000D02*
X108493000Y-88946000D01*
X108493000Y-86186000D02*
X108493000Y-81277000D01*
X108453000Y-93823000D02*
X108453000Y-88946000D01*
X108453000Y-86186000D02*
X108453000Y-81309000D01*
X108413000Y-93790000D02*
X108413000Y-88946000D01*
X108413000Y-86186000D02*
X108413000Y-81342000D01*
X108373000Y-93757000D02*
X108373000Y-81375000D01*
X108333000Y-93724000D02*
X108333000Y-81408000D01*
X108293000Y-93690000D02*
X108293000Y-81442000D01*
X108253000Y-93656000D02*
X108253000Y-81476000D01*
X108213000Y-93621000D02*
X108213000Y-81511000D01*
X108173000Y-93586000D02*
X108173000Y-81546000D01*
X108133000Y-93550000D02*
X108133000Y-81582000D01*
X108093000Y-93514000D02*
X108093000Y-81618000D01*
X108053000Y-93478000D02*
X108053000Y-81654000D01*
X108013000Y-93441000D02*
X108013000Y-81691000D01*
X107973000Y-93403000D02*
X107973000Y-81729000D01*
X107933000Y-93365000D02*
X107933000Y-81767000D01*
X107893000Y-93326000D02*
X107893000Y-81806000D01*
X107853000Y-93287000D02*
X107853000Y-81845000D01*
X107813000Y-93247000D02*
X107813000Y-81885000D01*
X107773000Y-93207000D02*
X107773000Y-81925000D01*
X107733000Y-93166000D02*
X107733000Y-81966000D01*
X107693000Y-93125000D02*
X107693000Y-82007000D01*
X107653000Y-93083000D02*
X107653000Y-82049000D01*
X107613000Y-93040000D02*
X107613000Y-82092000D01*
X107573000Y-92997000D02*
X107573000Y-82135000D01*
X107533000Y-92953000D02*
X107533000Y-82179000D01*
X107493000Y-92909000D02*
X107493000Y-82223000D01*
X107453000Y-92863000D02*
X107453000Y-82269000D01*
X107413000Y-92817000D02*
X107413000Y-82315000D01*
X107373000Y-92771000D02*
X107373000Y-82361000D01*
X107333000Y-92723000D02*
X107333000Y-82409000D01*
X107293000Y-92675000D02*
X107293000Y-82457000D01*
X107253000Y-92626000D02*
X107253000Y-82506000D01*
X107213000Y-92577000D02*
X107213000Y-82555000D01*
X107173000Y-92526000D02*
X107173000Y-82606000D01*
X107133000Y-92475000D02*
X107133000Y-82657000D01*
X107093000Y-92423000D02*
X107093000Y-82709000D01*
X107053000Y-92370000D02*
X107053000Y-82762000D01*
X107013000Y-92316000D02*
X107013000Y-82816000D01*
X106973000Y-92261000D02*
X106973000Y-82871000D01*
X106933000Y-92205000D02*
X106933000Y-82927000D01*
X106893000Y-92148000D02*
X106893000Y-82984000D01*
X106853000Y-92090000D02*
X106853000Y-83042000D01*
X106813000Y-92031000D02*
X106813000Y-83101000D01*
X106773000Y-91971000D02*
X106773000Y-83161000D01*
X106733000Y-91909000D02*
X106733000Y-83223000D01*
X106693000Y-91847000D02*
X106693000Y-83285000D01*
X106653000Y-91783000D02*
X106653000Y-83349000D01*
X106613000Y-91717000D02*
X106613000Y-83415000D01*
X106573000Y-91650000D02*
X106573000Y-83482000D01*
X106533000Y-91582000D02*
X106533000Y-83550000D01*
X106493000Y-91512000D02*
X106493000Y-83620000D01*
X106453000Y-91441000D02*
X106453000Y-83691000D01*
X106413000Y-91368000D02*
X106413000Y-83764000D01*
X106373000Y-91292000D02*
X106373000Y-83840000D01*
X106333000Y-91215000D02*
X106333000Y-83917000D01*
X106293000Y-91136000D02*
X106293000Y-83996000D01*
X106253000Y-91055000D02*
X106253000Y-84077000D01*
X106213000Y-90971000D02*
X106213000Y-84161000D01*
X106173000Y-90885000D02*
X106173000Y-84247000D01*
X106133000Y-90796000D02*
X106133000Y-84336000D01*
X106093000Y-90704000D02*
X106093000Y-84428000D01*
X106053000Y-90608000D02*
X106053000Y-84524000D01*
X106013000Y-90509000D02*
X106013000Y-84623000D01*
X105973000Y-90407000D02*
X105973000Y-84725000D01*
X105933000Y-90299000D02*
X105933000Y-84833000D01*
X105893000Y-90187000D02*
X105893000Y-84945000D01*
X105853000Y-90069000D02*
X105853000Y-85063000D01*
X105813000Y-89945000D02*
X105813000Y-85187000D01*
X105773000Y-89814000D02*
X105773000Y-85318000D01*
X105733000Y-89673000D02*
X105733000Y-85459000D01*
X105693000Y-89522000D02*
X105693000Y-85610000D01*
X105653000Y-89358000D02*
X105653000Y-85774000D01*
X105613000Y-89176000D02*
X105613000Y-85956000D01*
X105573000Y-88971000D02*
X105573000Y-86161000D01*
X105533000Y-88730000D02*
X105533000Y-86402000D01*
X105493000Y-88425000D02*
X105493000Y-86707000D01*
X105453000Y-87929000D02*
X105453000Y-87203000D01*
X120484000Y-87566000D02*
X118684000Y-87566000D01*
X119584000Y-88466000D02*
X119584000Y-86666000D01*
D14*
X124206000Y-123571000D02*
X121031000Y-123571000D01*
X121031000Y-123571000D02*
X121031000Y-125349000D01*
X121031000Y-125349000D02*
X124206000Y-125349000D01*
X124206000Y-118999000D02*
X121031000Y-118999000D01*
X121031000Y-118999000D02*
X121031000Y-120777000D01*
X121031000Y-120777000D02*
X124206000Y-120777000D01*
X130302000Y-125603000D02*
X124206000Y-125603000D01*
X124206000Y-125603000D02*
X124206000Y-118745000D01*
X124206000Y-118745000D02*
X132080000Y-118745000D01*
X132207000Y-118745000D02*
X132207000Y-125603000D01*
X132080000Y-125603000D02*
X130302000Y-125603000D01*
X130683000Y-97282000D02*
X133858000Y-97282000D01*
X133858000Y-97282000D02*
X133858000Y-95504000D01*
X133858000Y-95504000D02*
X130683000Y-95504000D01*
X130683000Y-101854000D02*
X133858000Y-101854000D01*
X133858000Y-101854000D02*
X133858000Y-100076000D01*
X133858000Y-100076000D02*
X130683000Y-100076000D01*
X124587000Y-95250000D02*
X130683000Y-95250000D01*
X130683000Y-95250000D02*
X130683000Y-102108000D01*
X130683000Y-102108000D02*
X122809000Y-102108000D01*
X122682000Y-102108000D02*
X122682000Y-95250000D01*
X122809000Y-95250000D02*
X124587000Y-95250000D01*
X130683000Y-74422000D02*
X133858000Y-74422000D01*
X133858000Y-74422000D02*
X133858000Y-72644000D01*
X133858000Y-72644000D02*
X130683000Y-72644000D01*
X130683000Y-78994000D02*
X133858000Y-78994000D01*
X133858000Y-78994000D02*
X133858000Y-77216000D01*
X133858000Y-77216000D02*
X130683000Y-77216000D01*
X124587000Y-72390000D02*
X130683000Y-72390000D01*
X130683000Y-72390000D02*
X130683000Y-79248000D01*
X130683000Y-79248000D02*
X122809000Y-79248000D01*
X122682000Y-79248000D02*
X122682000Y-72390000D01*
X122809000Y-72390000D02*
X124587000Y-72390000D01*
D13*
X146872000Y-148904000D02*
X146872000Y-146244000D01*
X141732000Y-148904000D02*
X146872000Y-148904000D01*
X141732000Y-146244000D02*
X146872000Y-146244000D01*
X141732000Y-148904000D02*
X141732000Y-146244000D01*
X140462000Y-148904000D02*
X139132000Y-148904000D01*
X139132000Y-148904000D02*
X139132000Y-147574000D01*
X153737000Y-146879000D02*
X153737000Y-149539000D01*
X158877000Y-146879000D02*
X153737000Y-146879000D01*
X158877000Y-149539000D02*
X153737000Y-149539000D01*
X158877000Y-146879000D02*
X158877000Y-149539000D01*
X160147000Y-146879000D02*
X161477000Y-146879000D01*
X161477000Y-146879000D02*
X161477000Y-148209000D01*
X164017000Y-138624000D02*
X161357000Y-138624000D01*
X164017000Y-143764000D02*
X164017000Y-138624000D01*
X161357000Y-143764000D02*
X161357000Y-138624000D01*
X164017000Y-143764000D02*
X161357000Y-143764000D01*
X164017000Y-145034000D02*
X164017000Y-146364000D01*
X164017000Y-146364000D02*
X162687000Y-146364000D01*
X145542000Y-101219000D02*
X135382000Y-101219000D01*
X145542000Y-102489000D02*
X145542000Y-94869000D01*
X145542000Y-94869000D02*
X135382000Y-94869000D01*
X135382000Y-94869000D02*
X135382000Y-102489000D01*
X135382000Y-102489000D02*
X145542000Y-102489000D01*
X145542000Y-112649000D02*
X135382000Y-112649000D01*
X145542000Y-113919000D02*
X145542000Y-106299000D01*
X145542000Y-106299000D02*
X135382000Y-106299000D01*
X135382000Y-106299000D02*
X135382000Y-113919000D01*
X135382000Y-113919000D02*
X145542000Y-113919000D01*
X145542000Y-89789000D02*
X135382000Y-89789000D01*
X145542000Y-91059000D02*
X145542000Y-83439000D01*
X145542000Y-83439000D02*
X135382000Y-83439000D01*
X135382000Y-83439000D02*
X135382000Y-91059000D01*
X135382000Y-91059000D02*
X145542000Y-91059000D01*
X145542000Y-78359000D02*
X135382000Y-78359000D01*
X145542000Y-79629000D02*
X145542000Y-72009000D01*
X145542000Y-72009000D02*
X135382000Y-72009000D01*
X135382000Y-72009000D02*
X135382000Y-79629000D01*
X135382000Y-79629000D02*
X145542000Y-79629000D01*
X145542000Y-69469000D02*
X135382000Y-69469000D01*
X145542000Y-70739000D02*
X145542000Y-63119000D01*
X145542000Y-63119000D02*
X135382000Y-63119000D01*
X135382000Y-63119000D02*
X135382000Y-70739000D01*
X135382000Y-70739000D02*
X145542000Y-70739000D01*
D14*
X130048000Y-128397000D02*
X133223000Y-128397000D01*
X133223000Y-128397000D02*
X133223000Y-126619000D01*
X133223000Y-126619000D02*
X130048000Y-126619000D01*
X130048000Y-132969000D02*
X133223000Y-132969000D01*
X133223000Y-132969000D02*
X133223000Y-131191000D01*
X133223000Y-131191000D02*
X130048000Y-131191000D01*
X123952000Y-126365000D02*
X130048000Y-126365000D01*
X130048000Y-126365000D02*
X130048000Y-133223000D01*
X130048000Y-133223000D02*
X122174000Y-133223000D01*
X122047000Y-133223000D02*
X122047000Y-126365000D01*
X122174000Y-126365000D02*
X123952000Y-126365000D01*
X117348000Y-97282000D02*
X120523000Y-97282000D01*
X120523000Y-97282000D02*
X120523000Y-95504000D01*
X120523000Y-95504000D02*
X117348000Y-95504000D01*
X117348000Y-101854000D02*
X120523000Y-101854000D01*
X120523000Y-101854000D02*
X120523000Y-100076000D01*
X120523000Y-100076000D02*
X117348000Y-100076000D01*
X111252000Y-95250000D02*
X117348000Y-95250000D01*
X117348000Y-95250000D02*
X117348000Y-102108000D01*
X117348000Y-102108000D02*
X109474000Y-102108000D01*
X109347000Y-102108000D02*
X109347000Y-95250000D01*
X109474000Y-95250000D02*
X111252000Y-95250000D01*
X130683000Y-106172000D02*
X133858000Y-106172000D01*
X133858000Y-106172000D02*
X133858000Y-104394000D01*
X133858000Y-104394000D02*
X130683000Y-104394000D01*
X130683000Y-110744000D02*
X133858000Y-110744000D01*
X133858000Y-110744000D02*
X133858000Y-108966000D01*
X133858000Y-108966000D02*
X130683000Y-108966000D01*
X124587000Y-104140000D02*
X130683000Y-104140000D01*
X130683000Y-104140000D02*
X130683000Y-110998000D01*
X130683000Y-110998000D02*
X122809000Y-110998000D01*
X122682000Y-110998000D02*
X122682000Y-104140000D01*
X122809000Y-104140000D02*
X124587000Y-104140000D01*
X117030000Y-74485500D02*
X120205000Y-74485500D01*
X120205000Y-74485500D02*
X120205000Y-72707500D01*
X120205000Y-72707500D02*
X117030000Y-72707500D01*
X117030000Y-79057500D02*
X120205000Y-79057500D01*
X120205000Y-79057500D02*
X120205000Y-77279500D01*
X120205000Y-77279500D02*
X117030000Y-77279500D01*
X110934000Y-72453500D02*
X117030000Y-72453500D01*
X117030000Y-72453500D02*
X117030000Y-79311500D01*
X117030000Y-79311500D02*
X109156000Y-79311500D01*
X109029000Y-79311500D02*
X109029000Y-72453500D01*
X109156000Y-72453500D02*
X110934000Y-72453500D01*
X130683000Y-83312000D02*
X133858000Y-83312000D01*
X133858000Y-83312000D02*
X133858000Y-81534000D01*
X133858000Y-81534000D02*
X130683000Y-81534000D01*
X130683000Y-87884000D02*
X133858000Y-87884000D01*
X133858000Y-87884000D02*
X133858000Y-86106000D01*
X133858000Y-86106000D02*
X130683000Y-86106000D01*
X124587000Y-81280000D02*
X130683000Y-81280000D01*
X130683000Y-81280000D02*
X130683000Y-88138000D01*
X130683000Y-88138000D02*
X122809000Y-88138000D01*
X122682000Y-88138000D02*
X122682000Y-81280000D01*
X122809000Y-81280000D02*
X124587000Y-81280000D01*
X157988000Y-97282000D02*
X161163000Y-97282000D01*
X161163000Y-97282000D02*
X161163000Y-95504000D01*
X161163000Y-95504000D02*
X157988000Y-95504000D01*
X157988000Y-101854000D02*
X161163000Y-101854000D01*
X161163000Y-101854000D02*
X161163000Y-100076000D01*
X161163000Y-100076000D02*
X157988000Y-100076000D01*
X151892000Y-95250000D02*
X157988000Y-95250000D01*
X157988000Y-95250000D02*
X157988000Y-102108000D01*
X157988000Y-102108000D02*
X150114000Y-102108000D01*
X149987000Y-102108000D02*
X149987000Y-95250000D01*
X150114000Y-95250000D02*
X151892000Y-95250000D01*
X157988000Y-106172000D02*
X161163000Y-106172000D01*
X161163000Y-106172000D02*
X161163000Y-104394000D01*
X161163000Y-104394000D02*
X157988000Y-104394000D01*
X157988000Y-110744000D02*
X161163000Y-110744000D01*
X161163000Y-110744000D02*
X161163000Y-108966000D01*
X161163000Y-108966000D02*
X157988000Y-108966000D01*
X151892000Y-104140000D02*
X157988000Y-104140000D01*
X157988000Y-104140000D02*
X157988000Y-110998000D01*
X157988000Y-110998000D02*
X150114000Y-110998000D01*
X149987000Y-110998000D02*
X149987000Y-104140000D01*
X150114000Y-104140000D02*
X151892000Y-104140000D01*
X157988000Y-83312000D02*
X161163000Y-83312000D01*
X161163000Y-83312000D02*
X161163000Y-81534000D01*
X161163000Y-81534000D02*
X157988000Y-81534000D01*
X157988000Y-87884000D02*
X161163000Y-87884000D01*
X161163000Y-87884000D02*
X161163000Y-86106000D01*
X161163000Y-86106000D02*
X157988000Y-86106000D01*
X151892000Y-81280000D02*
X157988000Y-81280000D01*
X157988000Y-81280000D02*
X157988000Y-88138000D01*
X157988000Y-88138000D02*
X150114000Y-88138000D01*
X149987000Y-88138000D02*
X149987000Y-81280000D01*
X150114000Y-81280000D02*
X151892000Y-81280000D01*
X157988000Y-74422000D02*
X161163000Y-74422000D01*
X161163000Y-74422000D02*
X161163000Y-72644000D01*
X161163000Y-72644000D02*
X157988000Y-72644000D01*
X157988000Y-78994000D02*
X161163000Y-78994000D01*
X161163000Y-78994000D02*
X161163000Y-77216000D01*
X161163000Y-77216000D02*
X157988000Y-77216000D01*
X151892000Y-72390000D02*
X157988000Y-72390000D01*
X157988000Y-72390000D02*
X157988000Y-79248000D01*
X157988000Y-79248000D02*
X150114000Y-79248000D01*
X149987000Y-79248000D02*
X149987000Y-72390000D01*
X150114000Y-72390000D02*
X151892000Y-72390000D01*
X130683000Y-62992000D02*
X133858000Y-62992000D01*
X133858000Y-62992000D02*
X133858000Y-61214000D01*
X133858000Y-61214000D02*
X130683000Y-61214000D01*
X130683000Y-67564000D02*
X133858000Y-67564000D01*
X133858000Y-67564000D02*
X133858000Y-65786000D01*
X133858000Y-65786000D02*
X130683000Y-65786000D01*
X124587000Y-60960000D02*
X130683000Y-60960000D01*
X130683000Y-60960000D02*
X130683000Y-67818000D01*
X130683000Y-67818000D02*
X122809000Y-67818000D01*
X122682000Y-67818000D02*
X122682000Y-60960000D01*
X122809000Y-60960000D02*
X124587000Y-60960000D01*
X157988000Y-62992000D02*
X161163000Y-62992000D01*
X161163000Y-62992000D02*
X161163000Y-61214000D01*
X161163000Y-61214000D02*
X157988000Y-61214000D01*
X157988000Y-67564000D02*
X161163000Y-67564000D01*
X161163000Y-67564000D02*
X161163000Y-65786000D01*
X161163000Y-65786000D02*
X157988000Y-65786000D01*
X151892000Y-60960000D02*
X157988000Y-60960000D01*
X157988000Y-60960000D02*
X157988000Y-67818000D01*
X157988000Y-67818000D02*
X150114000Y-67818000D01*
X149987000Y-67818000D02*
X149987000Y-60960000D01*
X150114000Y-60960000D02*
X151892000Y-60960000D01*
D13*
X157775219Y-124079000D02*
G75*
G03X157775219Y-124079000I-803219J0D01*
G01*
X157775219Y-119634000D02*
G75*
G03X157775219Y-119634000I-803219J0D01*
G01*
X163490219Y-103124000D02*
G75*
G03X163490219Y-103124000I-803219J0D01*
G01*
X163490219Y-106299000D02*
G75*
G03X163490219Y-106299000I-803219J0D01*
G01*
X163490219Y-80264000D02*
G75*
G03X163490219Y-80264000I-803219J0D01*
G01*
X163490219Y-83439000D02*
G75*
G03X163490219Y-83439000I-803219J0D01*
G01*
X161585219Y-60579000D02*
G75*
G03X161585219Y-60579000I-803219J0D01*
G01*
X164125219Y-66929000D02*
G75*
G03X164125219Y-66929000I-803219J0D01*
G01*
X138855000Y-147171000D02*
X139455000Y-147171000D01*
X139455000Y-147171000D02*
X139455000Y-150771000D01*
X139455000Y-150771000D02*
X138855000Y-150771000D01*
X133355000Y-147171000D02*
X137155000Y-147171000D01*
X131055000Y-148471000D02*
X131055000Y-147171000D01*
X131055000Y-150771000D02*
X131055000Y-149471000D01*
X131055000Y-147171000D02*
X131655000Y-147171000D01*
X131055000Y-150771000D02*
X131655000Y-150771000D01*
X137155000Y-150771000D02*
X133355000Y-150771000D01*
X131055000Y-149471000D02*
G75*
G03X131055000Y-148471000I0J500000D01*
G01*
X142582000Y-144518000D02*
X142582000Y-143518000D01*
X140882000Y-143518000D02*
X140882000Y-144518000D01*
X139407000Y-142994000D02*
X139407000Y-141994000D01*
X137707000Y-141994000D02*
X137707000Y-142994000D01*
X139407000Y-139184000D02*
X139407000Y-138184000D01*
X137707000Y-138184000D02*
X137707000Y-139184000D01*
X142074000Y-138168000D02*
X142074000Y-137168000D01*
X140374000Y-137168000D02*
X140374000Y-138168000D01*
X140882000Y-133739000D02*
X140882000Y-134739000D01*
X142582000Y-134739000D02*
X142582000Y-133739000D01*
D14*
X135982000Y-133209000D02*
X134782000Y-133209000D01*
X134782000Y-131459000D02*
X135982000Y-131459000D01*
X119902000Y-104359000D02*
X119902000Y-103159000D01*
X121652000Y-103159000D02*
X121652000Y-104359000D01*
X130697000Y-113884000D02*
X130697000Y-112684000D01*
X132447000Y-112684000D02*
X132447000Y-113884000D01*
X119902000Y-81499000D02*
X119902000Y-80299000D01*
X121652000Y-80299000D02*
X121652000Y-81499000D01*
X130697000Y-91024000D02*
X130697000Y-89824000D01*
X132447000Y-89824000D02*
X132447000Y-91024000D01*
X156097000Y-115789000D02*
X156097000Y-114589000D01*
X157847000Y-114589000D02*
X157847000Y-115789000D01*
X156372000Y-111139000D02*
X157572000Y-111139000D01*
X157572000Y-112889000D02*
X156372000Y-112889000D01*
X156372000Y-88279000D02*
X157572000Y-88279000D01*
X157572000Y-90029000D02*
X156372000Y-90029000D01*
X156097000Y-92929000D02*
X156097000Y-91729000D01*
X157847000Y-91729000D02*
X157847000Y-92929000D01*
X131967000Y-70704000D02*
X131967000Y-69504000D01*
X133717000Y-69504000D02*
X133717000Y-70704000D01*
X156732000Y-70704000D02*
X156732000Y-69504000D01*
X158482000Y-69504000D02*
X158482000Y-70704000D01*
D13*
X136077000Y-146364000D02*
X136077000Y-143704000D01*
X130937000Y-146364000D02*
X136077000Y-146364000D01*
X130937000Y-143704000D02*
X136077000Y-143704000D01*
X130937000Y-146364000D02*
X130937000Y-143704000D01*
X129667000Y-146364000D02*
X128337000Y-146364000D01*
X128337000Y-146364000D02*
X128337000Y-145034000D01*
X110557000Y-71434000D02*
X113217000Y-71434000D01*
X110557000Y-71374000D02*
X110557000Y-71434000D01*
X113217000Y-71374000D02*
X113217000Y-71434000D01*
X110557000Y-71374000D02*
X113217000Y-71374000D01*
X110557000Y-70104000D02*
X110557000Y-68774000D01*
X110557000Y-68774000D02*
X111887000Y-68774000D01*
X145447000Y-145129000D02*
X146397000Y-145129000D01*
X145447000Y-134779000D02*
X146497000Y-134779000D01*
X155797000Y-134779000D02*
X154747000Y-134779000D01*
X155797000Y-145129000D02*
X154747000Y-145129000D01*
X145447000Y-145129000D02*
X145447000Y-144079000D01*
X155797000Y-145129000D02*
X155797000Y-144079000D01*
X155797000Y-134779000D02*
X155797000Y-135829000D01*
X145447000Y-134779000D02*
X145447000Y-135829000D01*
X146397000Y-145129000D02*
X146397000Y-146404000D01*
D14*
X162353667Y-153884381D02*
X162353667Y-154598667D01*
X162306047Y-154741524D01*
X162210809Y-154836762D01*
X162067952Y-154884381D01*
X161972714Y-154884381D01*
X162734619Y-153884381D02*
X163353667Y-153884381D01*
X163020333Y-154265333D01*
X163163191Y-154265333D01*
X163258429Y-154312952D01*
X163306048Y-154360571D01*
X163353667Y-154455810D01*
X163353667Y-154693905D01*
X163306048Y-154789143D01*
X163258429Y-154836762D01*
X163163191Y-154884381D01*
X162877476Y-154884381D01*
X162782238Y-154836762D01*
X162734619Y-154789143D01*
X116760667Y-154011381D02*
X116760667Y-154725667D01*
X116713047Y-154868524D01*
X116617809Y-154963762D01*
X116474952Y-155011381D01*
X116379714Y-155011381D01*
X117665429Y-154344714D02*
X117665429Y-155011381D01*
X117427333Y-153963762D02*
X117189238Y-154678048D01*
X117808286Y-154678048D01*
X115418643Y-119007357D02*
X115466262Y-119054976D01*
X115513881Y-119197833D01*
X115513881Y-119293071D01*
X115466262Y-119435929D01*
X115371024Y-119531167D01*
X115275786Y-119578786D01*
X115085310Y-119626405D01*
X114942452Y-119626405D01*
X114751976Y-119578786D01*
X114656738Y-119531167D01*
X114561500Y-119435929D01*
X114513881Y-119293071D01*
X114513881Y-119197833D01*
X114561500Y-119054976D01*
X114609119Y-119007357D01*
X115513881Y-118054976D02*
X115513881Y-118626405D01*
X115513881Y-118340691D02*
X114513881Y-118340691D01*
X114656738Y-118435929D01*
X114751976Y-118531167D01*
X114799595Y-118626405D01*
X114847214Y-117197833D02*
X115513881Y-117197833D01*
X114466262Y-117435929D02*
X115180548Y-117674024D01*
X115180548Y-117054976D01*
X114783643Y-132342357D02*
X114831262Y-132389976D01*
X114878881Y-132532833D01*
X114878881Y-132628071D01*
X114831262Y-132770929D01*
X114736024Y-132866167D01*
X114640786Y-132913786D01*
X114450310Y-132961405D01*
X114307452Y-132961405D01*
X114116976Y-132913786D01*
X114021738Y-132866167D01*
X113926500Y-132770929D01*
X113878881Y-132628071D01*
X113878881Y-132532833D01*
X113926500Y-132389976D01*
X113974119Y-132342357D01*
X114878881Y-131389976D02*
X114878881Y-131961405D01*
X114878881Y-131675691D02*
X113878881Y-131675691D01*
X114021738Y-131770929D01*
X114116976Y-131866167D01*
X114164595Y-131961405D01*
X113878881Y-130485214D02*
X113878881Y-130961405D01*
X114355071Y-131009024D01*
X114307452Y-130961405D01*
X114259833Y-130866167D01*
X114259833Y-130628071D01*
X114307452Y-130532833D01*
X114355071Y-130485214D01*
X114450310Y-130437595D01*
X114688405Y-130437595D01*
X114783643Y-130485214D01*
X114831262Y-130532833D01*
X114878881Y-130628071D01*
X114878881Y-130866167D01*
X114831262Y-130961405D01*
X114783643Y-131009024D01*
X144629143Y-119006857D02*
X144676762Y-119054476D01*
X144724381Y-119197333D01*
X144724381Y-119292571D01*
X144676762Y-119435429D01*
X144581524Y-119530667D01*
X144486286Y-119578286D01*
X144295810Y-119625905D01*
X144152952Y-119625905D01*
X143962476Y-119578286D01*
X143867238Y-119530667D01*
X143772000Y-119435429D01*
X143724381Y-119292571D01*
X143724381Y-119197333D01*
X143772000Y-119054476D01*
X143819619Y-119006857D01*
X143819619Y-118625905D02*
X143772000Y-118578286D01*
X143724381Y-118483048D01*
X143724381Y-118244952D01*
X143772000Y-118149714D01*
X143819619Y-118102095D01*
X143914857Y-118054476D01*
X144010095Y-118054476D01*
X144152952Y-118102095D01*
X144724381Y-118673524D01*
X144724381Y-118054476D01*
X144724381Y-117102095D02*
X144724381Y-117673524D01*
X144724381Y-117387810D02*
X143724381Y-117387810D01*
X143867238Y-117483048D01*
X143962476Y-117578286D01*
X144010095Y-117673524D01*
X116958643Y-90780643D02*
X116911024Y-90828262D01*
X116768167Y-90875881D01*
X116672929Y-90875881D01*
X116530071Y-90828262D01*
X116434833Y-90733024D01*
X116387214Y-90637786D01*
X116339595Y-90447310D01*
X116339595Y-90304452D01*
X116387214Y-90113976D01*
X116434833Y-90018738D01*
X116530071Y-89923500D01*
X116672929Y-89875881D01*
X116768167Y-89875881D01*
X116911024Y-89923500D01*
X116958643Y-89971119D01*
X117339595Y-89971119D02*
X117387214Y-89923500D01*
X117482452Y-89875881D01*
X117720548Y-89875881D01*
X117815786Y-89923500D01*
X117863405Y-89971119D01*
X117911024Y-90066357D01*
X117911024Y-90161595D01*
X117863405Y-90304452D01*
X117291976Y-90875881D01*
X117911024Y-90875881D01*
X118291976Y-89971119D02*
X118339595Y-89923500D01*
X118434833Y-89875881D01*
X118672929Y-89875881D01*
X118768167Y-89923500D01*
X118815786Y-89971119D01*
X118863405Y-90066357D01*
X118863405Y-90161595D01*
X118815786Y-90304452D01*
X118244357Y-90875881D01*
X118863405Y-90875881D01*
X121816905Y-122626381D02*
X121816905Y-121626381D01*
X122055000Y-121626381D01*
X122197858Y-121674000D01*
X122293096Y-121769238D01*
X122340715Y-121864476D01*
X122388334Y-122054952D01*
X122388334Y-122197810D01*
X122340715Y-122388286D01*
X122293096Y-122483524D01*
X122197858Y-122578762D01*
X122055000Y-122626381D01*
X121816905Y-122626381D01*
X122864524Y-122626381D02*
X123055000Y-122626381D01*
X123150239Y-122578762D01*
X123197858Y-122531143D01*
X123293096Y-122388286D01*
X123340715Y-122197810D01*
X123340715Y-121816857D01*
X123293096Y-121721619D01*
X123245477Y-121674000D01*
X123150239Y-121626381D01*
X122959762Y-121626381D01*
X122864524Y-121674000D01*
X122816905Y-121721619D01*
X122769286Y-121816857D01*
X122769286Y-122054952D01*
X122816905Y-122150190D01*
X122864524Y-122197810D01*
X122959762Y-122245429D01*
X123150239Y-122245429D01*
X123245477Y-122197810D01*
X123293096Y-122150190D01*
X123340715Y-122054952D01*
X131373714Y-99258381D02*
X131373714Y-98258381D01*
X131611809Y-98258381D01*
X131754667Y-98306000D01*
X131849905Y-98401238D01*
X131897524Y-98496476D01*
X131945143Y-98686952D01*
X131945143Y-98829810D01*
X131897524Y-99020286D01*
X131849905Y-99115524D01*
X131754667Y-99210762D01*
X131611809Y-99258381D01*
X131373714Y-99258381D01*
X132897524Y-99258381D02*
X132326095Y-99258381D01*
X132611809Y-99258381D02*
X132611809Y-98258381D01*
X132516571Y-98401238D01*
X132421333Y-98496476D01*
X132326095Y-98544095D01*
X133516571Y-98258381D02*
X133611810Y-98258381D01*
X133707048Y-98306000D01*
X133754667Y-98353619D01*
X133802286Y-98448857D01*
X133849905Y-98639333D01*
X133849905Y-98877429D01*
X133802286Y-99067905D01*
X133754667Y-99163143D01*
X133707048Y-99210762D01*
X133611810Y-99258381D01*
X133516571Y-99258381D01*
X133421333Y-99210762D01*
X133373714Y-99163143D01*
X133326095Y-99067905D01*
X133278476Y-98877429D01*
X133278476Y-98639333D01*
X133326095Y-98448857D01*
X133373714Y-98353619D01*
X133421333Y-98306000D01*
X133516571Y-98258381D01*
X131119714Y-76398381D02*
X131119714Y-75398381D01*
X131357809Y-75398381D01*
X131500667Y-75446000D01*
X131595905Y-75541238D01*
X131643524Y-75636476D01*
X131691143Y-75826952D01*
X131691143Y-75969810D01*
X131643524Y-76160286D01*
X131595905Y-76255524D01*
X131500667Y-76350762D01*
X131357809Y-76398381D01*
X131119714Y-76398381D01*
X132643524Y-76398381D02*
X132072095Y-76398381D01*
X132357809Y-76398381D02*
X132357809Y-75398381D01*
X132262571Y-75541238D01*
X132167333Y-75636476D01*
X132072095Y-75684095D01*
X133595905Y-76398381D02*
X133024476Y-76398381D01*
X133310190Y-76398381D02*
X133310190Y-75398381D01*
X133214952Y-75541238D01*
X133119714Y-75636476D01*
X133024476Y-75684095D01*
X147621667Y-147153381D02*
X147621667Y-147867667D01*
X147574047Y-148010524D01*
X147478809Y-148105762D01*
X147335952Y-148153381D01*
X147240714Y-148153381D01*
X148574048Y-147153381D02*
X148097857Y-147153381D01*
X148050238Y-147629571D01*
X148097857Y-147581952D01*
X148193095Y-147534333D01*
X148431191Y-147534333D01*
X148526429Y-147581952D01*
X148574048Y-147629571D01*
X148621667Y-147724810D01*
X148621667Y-147962905D01*
X148574048Y-148058143D01*
X148526429Y-148105762D01*
X148431191Y-148153381D01*
X148193095Y-148153381D01*
X148097857Y-148105762D01*
X148050238Y-148058143D01*
X152447667Y-147788381D02*
X152447667Y-148502667D01*
X152400047Y-148645524D01*
X152304809Y-148740762D01*
X152161952Y-148788381D01*
X152066714Y-148788381D01*
X153352429Y-147788381D02*
X153161952Y-147788381D01*
X153066714Y-147836000D01*
X153019095Y-147883619D01*
X152923857Y-148026476D01*
X152876238Y-148216952D01*
X152876238Y-148597905D01*
X152923857Y-148693143D01*
X152971476Y-148740762D01*
X153066714Y-148788381D01*
X153257191Y-148788381D01*
X153352429Y-148740762D01*
X153400048Y-148693143D01*
X153447667Y-148597905D01*
X153447667Y-148359810D01*
X153400048Y-148264571D01*
X153352429Y-148216952D01*
X153257191Y-148169333D01*
X153066714Y-148169333D01*
X152971476Y-148216952D01*
X152923857Y-148264571D01*
X152876238Y-148359810D01*
X162480667Y-136993381D02*
X162480667Y-137707667D01*
X162433047Y-137850524D01*
X162337809Y-137945762D01*
X162194952Y-137993381D01*
X162099714Y-137993381D01*
X162861619Y-136993381D02*
X163528286Y-136993381D01*
X163099714Y-137993381D01*
X146478667Y-101433381D02*
X146478667Y-102147667D01*
X146431047Y-102290524D01*
X146335809Y-102385762D01*
X146192952Y-102433381D01*
X146097714Y-102433381D01*
X147097714Y-101861952D02*
X147002476Y-101814333D01*
X146954857Y-101766714D01*
X146907238Y-101671476D01*
X146907238Y-101623857D01*
X146954857Y-101528619D01*
X147002476Y-101481000D01*
X147097714Y-101433381D01*
X147288191Y-101433381D01*
X147383429Y-101481000D01*
X147431048Y-101528619D01*
X147478667Y-101623857D01*
X147478667Y-101671476D01*
X147431048Y-101766714D01*
X147383429Y-101814333D01*
X147288191Y-101861952D01*
X147097714Y-101861952D01*
X147002476Y-101909571D01*
X146954857Y-101957190D01*
X146907238Y-102052429D01*
X146907238Y-102242905D01*
X146954857Y-102338143D01*
X147002476Y-102385762D01*
X147097714Y-102433381D01*
X147288191Y-102433381D01*
X147383429Y-102385762D01*
X147431048Y-102338143D01*
X147478667Y-102242905D01*
X147478667Y-102052429D01*
X147431048Y-101957190D01*
X147383429Y-101909571D01*
X147288191Y-101861952D01*
X146351667Y-112736381D02*
X146351667Y-113450667D01*
X146304047Y-113593524D01*
X146208809Y-113688762D01*
X146065952Y-113736381D01*
X145970714Y-113736381D01*
X146875476Y-113736381D02*
X147065952Y-113736381D01*
X147161191Y-113688762D01*
X147208810Y-113641143D01*
X147304048Y-113498286D01*
X147351667Y-113307810D01*
X147351667Y-112926857D01*
X147304048Y-112831619D01*
X147256429Y-112784000D01*
X147161191Y-112736381D01*
X146970714Y-112736381D01*
X146875476Y-112784000D01*
X146827857Y-112831619D01*
X146780238Y-112926857D01*
X146780238Y-113164952D01*
X146827857Y-113260190D01*
X146875476Y-113307810D01*
X146970714Y-113355429D01*
X147161191Y-113355429D01*
X147256429Y-113307810D01*
X147304048Y-113260190D01*
X147351667Y-113164952D01*
X146383477Y-89876381D02*
X146383477Y-90590667D01*
X146335857Y-90733524D01*
X146240619Y-90828762D01*
X146097762Y-90876381D01*
X146002524Y-90876381D01*
X147383477Y-90876381D02*
X146812048Y-90876381D01*
X147097762Y-90876381D02*
X147097762Y-89876381D01*
X147002524Y-90019238D01*
X146907286Y-90114476D01*
X146812048Y-90162095D01*
X148002524Y-89876381D02*
X148097763Y-89876381D01*
X148193001Y-89924000D01*
X148240620Y-89971619D01*
X148288239Y-90066857D01*
X148335858Y-90257333D01*
X148335858Y-90495429D01*
X148288239Y-90685905D01*
X148240620Y-90781143D01*
X148193001Y-90828762D01*
X148097763Y-90876381D01*
X148002524Y-90876381D01*
X147907286Y-90828762D01*
X147859667Y-90781143D01*
X147812048Y-90685905D01*
X147764429Y-90495429D01*
X147764429Y-90257333D01*
X147812048Y-90066857D01*
X147859667Y-89971619D01*
X147907286Y-89924000D01*
X148002524Y-89876381D01*
X146256477Y-78446381D02*
X146256477Y-79160667D01*
X146208857Y-79303524D01*
X146113619Y-79398762D01*
X145970762Y-79446381D01*
X145875524Y-79446381D01*
X147256477Y-79446381D02*
X146685048Y-79446381D01*
X146970762Y-79446381D02*
X146970762Y-78446381D01*
X146875524Y-78589238D01*
X146780286Y-78684476D01*
X146685048Y-78732095D01*
X148208858Y-79446381D02*
X147637429Y-79446381D01*
X147923143Y-79446381D02*
X147923143Y-78446381D01*
X147827905Y-78589238D01*
X147732667Y-78684476D01*
X147637429Y-78732095D01*
X146383477Y-69429381D02*
X146383477Y-70143667D01*
X146335857Y-70286524D01*
X146240619Y-70381762D01*
X146097762Y-70429381D01*
X146002524Y-70429381D01*
X147383477Y-70429381D02*
X146812048Y-70429381D01*
X147097762Y-70429381D02*
X147097762Y-69429381D01*
X147002524Y-69572238D01*
X146907286Y-69667476D01*
X146812048Y-69715095D01*
X147764429Y-69524619D02*
X147812048Y-69477000D01*
X147907286Y-69429381D01*
X148145382Y-69429381D01*
X148240620Y-69477000D01*
X148288239Y-69524619D01*
X148335858Y-69619857D01*
X148335858Y-69715095D01*
X148288239Y-69857952D01*
X147716810Y-70429381D01*
X148335858Y-70429381D01*
X131349762Y-130341619D02*
X131254524Y-130294000D01*
X131159286Y-130198762D01*
X131016429Y-130055905D01*
X130921190Y-130008286D01*
X130825952Y-130008286D01*
X130873571Y-130246381D02*
X130778333Y-130198762D01*
X130683095Y-130103524D01*
X130635476Y-129913048D01*
X130635476Y-129579714D01*
X130683095Y-129389238D01*
X130778333Y-129294000D01*
X130873571Y-129246381D01*
X131064048Y-129246381D01*
X131159286Y-129294000D01*
X131254524Y-129389238D01*
X131302143Y-129579714D01*
X131302143Y-129913048D01*
X131254524Y-130103524D01*
X131159286Y-130198762D01*
X131064048Y-130246381D01*
X130873571Y-130246381D01*
X131683095Y-129341619D02*
X131730714Y-129294000D01*
X131825952Y-129246381D01*
X132064048Y-129246381D01*
X132159286Y-129294000D01*
X132206905Y-129341619D01*
X132254524Y-129436857D01*
X132254524Y-129532095D01*
X132206905Y-129674952D01*
X131635476Y-130246381D01*
X132254524Y-130246381D01*
X118776762Y-99353619D02*
X118681524Y-99306000D01*
X118586286Y-99210762D01*
X118443429Y-99067905D01*
X118348190Y-99020286D01*
X118252952Y-99020286D01*
X118300571Y-99258381D02*
X118205333Y-99210762D01*
X118110095Y-99115524D01*
X118062476Y-98925048D01*
X118062476Y-98591714D01*
X118110095Y-98401238D01*
X118205333Y-98306000D01*
X118300571Y-98258381D01*
X118491048Y-98258381D01*
X118586286Y-98306000D01*
X118681524Y-98401238D01*
X118729143Y-98591714D01*
X118729143Y-98925048D01*
X118681524Y-99115524D01*
X118586286Y-99210762D01*
X118491048Y-99258381D01*
X118300571Y-99258381D01*
X119062476Y-98258381D02*
X119681524Y-98258381D01*
X119348190Y-98639333D01*
X119491048Y-98639333D01*
X119586286Y-98686952D01*
X119633905Y-98734571D01*
X119681524Y-98829810D01*
X119681524Y-99067905D01*
X119633905Y-99163143D01*
X119586286Y-99210762D01*
X119491048Y-99258381D01*
X119205333Y-99258381D01*
X119110095Y-99210762D01*
X119062476Y-99163143D01*
X131984762Y-108116619D02*
X131889524Y-108069000D01*
X131794286Y-107973762D01*
X131651429Y-107830905D01*
X131556190Y-107783286D01*
X131460952Y-107783286D01*
X131508571Y-108021381D02*
X131413333Y-107973762D01*
X131318095Y-107878524D01*
X131270476Y-107688048D01*
X131270476Y-107354714D01*
X131318095Y-107164238D01*
X131413333Y-107069000D01*
X131508571Y-107021381D01*
X131699048Y-107021381D01*
X131794286Y-107069000D01*
X131889524Y-107164238D01*
X131937143Y-107354714D01*
X131937143Y-107688048D01*
X131889524Y-107878524D01*
X131794286Y-107973762D01*
X131699048Y-108021381D01*
X131508571Y-108021381D01*
X132794286Y-107354714D02*
X132794286Y-108021381D01*
X132556190Y-106973762D02*
X132318095Y-107688048D01*
X132937143Y-107688048D01*
X118522762Y-76493619D02*
X118427524Y-76446000D01*
X118332286Y-76350762D01*
X118189429Y-76207905D01*
X118094190Y-76160286D01*
X117998952Y-76160286D01*
X118046571Y-76398381D02*
X117951333Y-76350762D01*
X117856095Y-76255524D01*
X117808476Y-76065048D01*
X117808476Y-75731714D01*
X117856095Y-75541238D01*
X117951333Y-75446000D01*
X118046571Y-75398381D01*
X118237048Y-75398381D01*
X118332286Y-75446000D01*
X118427524Y-75541238D01*
X118475143Y-75731714D01*
X118475143Y-76065048D01*
X118427524Y-76255524D01*
X118332286Y-76350762D01*
X118237048Y-76398381D01*
X118046571Y-76398381D01*
X119379905Y-75398381D02*
X118903714Y-75398381D01*
X118856095Y-75874571D01*
X118903714Y-75826952D01*
X118998952Y-75779333D01*
X119237048Y-75779333D01*
X119332286Y-75826952D01*
X119379905Y-75874571D01*
X119427524Y-75969810D01*
X119427524Y-76207905D01*
X119379905Y-76303143D01*
X119332286Y-76350762D01*
X119237048Y-76398381D01*
X118998952Y-76398381D01*
X118903714Y-76350762D01*
X118856095Y-76303143D01*
X132111762Y-85383619D02*
X132016524Y-85336000D01*
X131921286Y-85240762D01*
X131778429Y-85097905D01*
X131683190Y-85050286D01*
X131587952Y-85050286D01*
X131635571Y-85288381D02*
X131540333Y-85240762D01*
X131445095Y-85145524D01*
X131397476Y-84955048D01*
X131397476Y-84621714D01*
X131445095Y-84431238D01*
X131540333Y-84336000D01*
X131635571Y-84288381D01*
X131826048Y-84288381D01*
X131921286Y-84336000D01*
X132016524Y-84431238D01*
X132064143Y-84621714D01*
X132064143Y-84955048D01*
X132016524Y-85145524D01*
X131921286Y-85240762D01*
X131826048Y-85288381D01*
X131635571Y-85288381D01*
X132921286Y-84288381D02*
X132730809Y-84288381D01*
X132635571Y-84336000D01*
X132587952Y-84383619D01*
X132492714Y-84526476D01*
X132445095Y-84716952D01*
X132445095Y-85097905D01*
X132492714Y-85193143D01*
X132540333Y-85240762D01*
X132635571Y-85288381D01*
X132826048Y-85288381D01*
X132921286Y-85240762D01*
X132968905Y-85193143D01*
X133016524Y-85097905D01*
X133016524Y-84859810D01*
X132968905Y-84764571D01*
X132921286Y-84716952D01*
X132826048Y-84669333D01*
X132635571Y-84669333D01*
X132540333Y-84716952D01*
X132492714Y-84764571D01*
X132445095Y-84859810D01*
X159416762Y-99353619D02*
X159321524Y-99306000D01*
X159226286Y-99210762D01*
X159083429Y-99067905D01*
X158988190Y-99020286D01*
X158892952Y-99020286D01*
X158940571Y-99258381D02*
X158845333Y-99210762D01*
X158750095Y-99115524D01*
X158702476Y-98925048D01*
X158702476Y-98591714D01*
X158750095Y-98401238D01*
X158845333Y-98306000D01*
X158940571Y-98258381D01*
X159131048Y-98258381D01*
X159226286Y-98306000D01*
X159321524Y-98401238D01*
X159369143Y-98591714D01*
X159369143Y-98925048D01*
X159321524Y-99115524D01*
X159226286Y-99210762D01*
X159131048Y-99258381D01*
X158940571Y-99258381D01*
X159702476Y-98258381D02*
X160369143Y-98258381D01*
X159940571Y-99258381D01*
X159543762Y-108243619D02*
X159448524Y-108196000D01*
X159353286Y-108100762D01*
X159210429Y-107957905D01*
X159115190Y-107910286D01*
X159019952Y-107910286D01*
X159067571Y-108148381D02*
X158972333Y-108100762D01*
X158877095Y-108005524D01*
X158829476Y-107815048D01*
X158829476Y-107481714D01*
X158877095Y-107291238D01*
X158972333Y-107196000D01*
X159067571Y-107148381D01*
X159258048Y-107148381D01*
X159353286Y-107196000D01*
X159448524Y-107291238D01*
X159496143Y-107481714D01*
X159496143Y-107815048D01*
X159448524Y-108005524D01*
X159353286Y-108100762D01*
X159258048Y-108148381D01*
X159067571Y-108148381D01*
X160067571Y-107576952D02*
X159972333Y-107529333D01*
X159924714Y-107481714D01*
X159877095Y-107386476D01*
X159877095Y-107338857D01*
X159924714Y-107243619D01*
X159972333Y-107196000D01*
X160067571Y-107148381D01*
X160258048Y-107148381D01*
X160353286Y-107196000D01*
X160400905Y-107243619D01*
X160448524Y-107338857D01*
X160448524Y-107386476D01*
X160400905Y-107481714D01*
X160353286Y-107529333D01*
X160258048Y-107576952D01*
X160067571Y-107576952D01*
X159972333Y-107624571D01*
X159924714Y-107672190D01*
X159877095Y-107767429D01*
X159877095Y-107957905D01*
X159924714Y-108053143D01*
X159972333Y-108100762D01*
X160067571Y-108148381D01*
X160258048Y-108148381D01*
X160353286Y-108100762D01*
X160400905Y-108053143D01*
X160448524Y-107957905D01*
X160448524Y-107767429D01*
X160400905Y-107672190D01*
X160353286Y-107624571D01*
X160258048Y-107576952D01*
X159416762Y-85383619D02*
X159321524Y-85336000D01*
X159226286Y-85240762D01*
X159083429Y-85097905D01*
X158988190Y-85050286D01*
X158892952Y-85050286D01*
X158940571Y-85288381D02*
X158845333Y-85240762D01*
X158750095Y-85145524D01*
X158702476Y-84955048D01*
X158702476Y-84621714D01*
X158750095Y-84431238D01*
X158845333Y-84336000D01*
X158940571Y-84288381D01*
X159131048Y-84288381D01*
X159226286Y-84336000D01*
X159321524Y-84431238D01*
X159369143Y-84621714D01*
X159369143Y-84955048D01*
X159321524Y-85145524D01*
X159226286Y-85240762D01*
X159131048Y-85288381D01*
X158940571Y-85288381D01*
X159845333Y-85288381D02*
X160035809Y-85288381D01*
X160131048Y-85240762D01*
X160178667Y-85193143D01*
X160273905Y-85050286D01*
X160321524Y-84859810D01*
X160321524Y-84478857D01*
X160273905Y-84383619D01*
X160226286Y-84336000D01*
X160131048Y-84288381D01*
X159940571Y-84288381D01*
X159845333Y-84336000D01*
X159797714Y-84383619D01*
X159750095Y-84478857D01*
X159750095Y-84716952D01*
X159797714Y-84812190D01*
X159845333Y-84859810D01*
X159940571Y-84907429D01*
X160131048Y-84907429D01*
X160226286Y-84859810D01*
X160273905Y-84812190D01*
X160321524Y-84716952D01*
X159067572Y-76366619D02*
X158972334Y-76319000D01*
X158877096Y-76223762D01*
X158734239Y-76080905D01*
X158639000Y-76033286D01*
X158543762Y-76033286D01*
X158591381Y-76271381D02*
X158496143Y-76223762D01*
X158400905Y-76128524D01*
X158353286Y-75938048D01*
X158353286Y-75604714D01*
X158400905Y-75414238D01*
X158496143Y-75319000D01*
X158591381Y-75271381D01*
X158781858Y-75271381D01*
X158877096Y-75319000D01*
X158972334Y-75414238D01*
X159019953Y-75604714D01*
X159019953Y-75938048D01*
X158972334Y-76128524D01*
X158877096Y-76223762D01*
X158781858Y-76271381D01*
X158591381Y-76271381D01*
X159972334Y-76271381D02*
X159400905Y-76271381D01*
X159686619Y-76271381D02*
X159686619Y-75271381D01*
X159591381Y-75414238D01*
X159496143Y-75509476D01*
X159400905Y-75557095D01*
X160591381Y-75271381D02*
X160686620Y-75271381D01*
X160781858Y-75319000D01*
X160829477Y-75366619D01*
X160877096Y-75461857D01*
X160924715Y-75652333D01*
X160924715Y-75890429D01*
X160877096Y-76080905D01*
X160829477Y-76176143D01*
X160781858Y-76223762D01*
X160686620Y-76271381D01*
X160591381Y-76271381D01*
X160496143Y-76223762D01*
X160448524Y-76176143D01*
X160400905Y-76080905D01*
X160353286Y-75890429D01*
X160353286Y-75652333D01*
X160400905Y-75461857D01*
X160448524Y-75366619D01*
X160496143Y-75319000D01*
X160591381Y-75271381D01*
X132016572Y-64936619D02*
X131921334Y-64889000D01*
X131826096Y-64793762D01*
X131683239Y-64650905D01*
X131588000Y-64603286D01*
X131492762Y-64603286D01*
X131540381Y-64841381D02*
X131445143Y-64793762D01*
X131349905Y-64698524D01*
X131302286Y-64508048D01*
X131302286Y-64174714D01*
X131349905Y-63984238D01*
X131445143Y-63889000D01*
X131540381Y-63841381D01*
X131730858Y-63841381D01*
X131826096Y-63889000D01*
X131921334Y-63984238D01*
X131968953Y-64174714D01*
X131968953Y-64508048D01*
X131921334Y-64698524D01*
X131826096Y-64793762D01*
X131730858Y-64841381D01*
X131540381Y-64841381D01*
X132921334Y-64841381D02*
X132349905Y-64841381D01*
X132635619Y-64841381D02*
X132635619Y-63841381D01*
X132540381Y-63984238D01*
X132445143Y-64079476D01*
X132349905Y-64127095D01*
X133873715Y-64841381D02*
X133302286Y-64841381D01*
X133588000Y-64841381D02*
X133588000Y-63841381D01*
X133492762Y-63984238D01*
X133397524Y-64079476D01*
X133302286Y-64127095D01*
X159067572Y-64936619D02*
X158972334Y-64889000D01*
X158877096Y-64793762D01*
X158734239Y-64650905D01*
X158639000Y-64603286D01*
X158543762Y-64603286D01*
X158591381Y-64841381D02*
X158496143Y-64793762D01*
X158400905Y-64698524D01*
X158353286Y-64508048D01*
X158353286Y-64174714D01*
X158400905Y-63984238D01*
X158496143Y-63889000D01*
X158591381Y-63841381D01*
X158781858Y-63841381D01*
X158877096Y-63889000D01*
X158972334Y-63984238D01*
X159019953Y-64174714D01*
X159019953Y-64508048D01*
X158972334Y-64698524D01*
X158877096Y-64793762D01*
X158781858Y-64841381D01*
X158591381Y-64841381D01*
X159972334Y-64841381D02*
X159400905Y-64841381D01*
X159686619Y-64841381D02*
X159686619Y-63841381D01*
X159591381Y-63984238D01*
X159496143Y-64079476D01*
X159400905Y-64127095D01*
X160353286Y-63936619D02*
X160400905Y-63889000D01*
X160496143Y-63841381D01*
X160734239Y-63841381D01*
X160829477Y-63889000D01*
X160877096Y-63936619D01*
X160924715Y-64031857D01*
X160924715Y-64127095D01*
X160877096Y-64269952D01*
X160305667Y-64841381D01*
X160924715Y-64841381D01*
X158024381Y-125817095D02*
X158024381Y-125245666D01*
X159024381Y-125531381D02*
X158024381Y-125531381D01*
X159024381Y-124912333D02*
X158024381Y-124912333D01*
X158024381Y-124531380D01*
X158072000Y-124436142D01*
X158119619Y-124388523D01*
X158214857Y-124340904D01*
X158357714Y-124340904D01*
X158452952Y-124388523D01*
X158500571Y-124436142D01*
X158548190Y-124531380D01*
X158548190Y-124912333D01*
X158119619Y-123959952D02*
X158072000Y-123912333D01*
X158024381Y-123817095D01*
X158024381Y-123578999D01*
X158072000Y-123483761D01*
X158119619Y-123436142D01*
X158214857Y-123388523D01*
X158310095Y-123388523D01*
X158452952Y-123436142D01*
X159024381Y-124007571D01*
X159024381Y-123388523D01*
X158024381Y-123055190D02*
X158024381Y-122436142D01*
X158405333Y-122769476D01*
X158405333Y-122626618D01*
X158452952Y-122531380D01*
X158500571Y-122483761D01*
X158595810Y-122436142D01*
X158833905Y-122436142D01*
X158929143Y-122483761D01*
X158976762Y-122531380D01*
X159024381Y-122626618D01*
X159024381Y-122912333D01*
X158976762Y-123007571D01*
X158929143Y-123055190D01*
X158024381Y-121372095D02*
X158024381Y-120800666D01*
X159024381Y-121086381D02*
X158024381Y-121086381D01*
X159024381Y-120467333D02*
X158024381Y-120467333D01*
X158024381Y-120086380D01*
X158072000Y-119991142D01*
X158119619Y-119943523D01*
X158214857Y-119895904D01*
X158357714Y-119895904D01*
X158452952Y-119943523D01*
X158500571Y-119991142D01*
X158548190Y-120086380D01*
X158548190Y-120467333D01*
X158119619Y-119514952D02*
X158072000Y-119467333D01*
X158024381Y-119372095D01*
X158024381Y-119133999D01*
X158072000Y-119038761D01*
X158119619Y-118991142D01*
X158214857Y-118943523D01*
X158310095Y-118943523D01*
X158452952Y-118991142D01*
X159024381Y-119562571D01*
X159024381Y-118943523D01*
X158357714Y-118086380D02*
X159024381Y-118086380D01*
X157976762Y-118324476D02*
X158691048Y-118562571D01*
X158691048Y-117943523D01*
X161742714Y-100671381D02*
X162314143Y-100671381D01*
X162028428Y-101671381D02*
X162028428Y-100671381D01*
X162647476Y-101671381D02*
X162647476Y-100671381D01*
X163028429Y-100671381D01*
X163123667Y-100719000D01*
X163171286Y-100766619D01*
X163218905Y-100861857D01*
X163218905Y-101004714D01*
X163171286Y-101099952D01*
X163123667Y-101147571D01*
X163028429Y-101195190D01*
X162647476Y-101195190D01*
X164171286Y-101671381D02*
X163599857Y-101671381D01*
X163885571Y-101671381D02*
X163885571Y-100671381D01*
X163790333Y-100814238D01*
X163695095Y-100909476D01*
X163599857Y-100957095D01*
X164790333Y-100671381D02*
X164885572Y-100671381D01*
X164980810Y-100719000D01*
X165028429Y-100766619D01*
X165076048Y-100861857D01*
X165123667Y-101052333D01*
X165123667Y-101290429D01*
X165076048Y-101480905D01*
X165028429Y-101576143D01*
X164980810Y-101623762D01*
X164885572Y-101671381D01*
X164790333Y-101671381D01*
X164695095Y-101623762D01*
X164647476Y-101576143D01*
X164599857Y-101480905D01*
X164552238Y-101290429D01*
X164552238Y-101052333D01*
X164599857Y-100861857D01*
X164647476Y-100766619D01*
X164695095Y-100719000D01*
X164790333Y-100671381D01*
X166076048Y-101671381D02*
X165504619Y-101671381D01*
X165790333Y-101671381D02*
X165790333Y-100671381D01*
X165695095Y-100814238D01*
X165599857Y-100909476D01*
X165504619Y-100957095D01*
X161742714Y-107656381D02*
X162314143Y-107656381D01*
X162028428Y-108656381D02*
X162028428Y-107656381D01*
X162647476Y-108656381D02*
X162647476Y-107656381D01*
X163028429Y-107656381D01*
X163123667Y-107704000D01*
X163171286Y-107751619D01*
X163218905Y-107846857D01*
X163218905Y-107989714D01*
X163171286Y-108084952D01*
X163123667Y-108132571D01*
X163028429Y-108180190D01*
X162647476Y-108180190D01*
X164171286Y-108656381D02*
X163599857Y-108656381D01*
X163885571Y-108656381D02*
X163885571Y-107656381D01*
X163790333Y-107799238D01*
X163695095Y-107894476D01*
X163599857Y-107942095D01*
X164790333Y-107656381D02*
X164885572Y-107656381D01*
X164980810Y-107704000D01*
X165028429Y-107751619D01*
X165076048Y-107846857D01*
X165123667Y-108037333D01*
X165123667Y-108275429D01*
X165076048Y-108465905D01*
X165028429Y-108561143D01*
X164980810Y-108608762D01*
X164885572Y-108656381D01*
X164790333Y-108656381D01*
X164695095Y-108608762D01*
X164647476Y-108561143D01*
X164599857Y-108465905D01*
X164552238Y-108275429D01*
X164552238Y-108037333D01*
X164599857Y-107846857D01*
X164647476Y-107751619D01*
X164695095Y-107704000D01*
X164790333Y-107656381D01*
X165504619Y-107751619D02*
X165552238Y-107704000D01*
X165647476Y-107656381D01*
X165885572Y-107656381D01*
X165980810Y-107704000D01*
X166028429Y-107751619D01*
X166076048Y-107846857D01*
X166076048Y-107942095D01*
X166028429Y-108084952D01*
X165457000Y-108656381D01*
X166076048Y-108656381D01*
X161742714Y-77811381D02*
X162314143Y-77811381D01*
X162028428Y-78811381D02*
X162028428Y-77811381D01*
X162647476Y-78811381D02*
X162647476Y-77811381D01*
X163028429Y-77811381D01*
X163123667Y-77859000D01*
X163171286Y-77906619D01*
X163218905Y-78001857D01*
X163218905Y-78144714D01*
X163171286Y-78239952D01*
X163123667Y-78287571D01*
X163028429Y-78335190D01*
X162647476Y-78335190D01*
X164171286Y-78811381D02*
X163599857Y-78811381D01*
X163885571Y-78811381D02*
X163885571Y-77811381D01*
X163790333Y-77954238D01*
X163695095Y-78049476D01*
X163599857Y-78097095D01*
X164790333Y-77811381D02*
X164885572Y-77811381D01*
X164980810Y-77859000D01*
X165028429Y-77906619D01*
X165076048Y-78001857D01*
X165123667Y-78192333D01*
X165123667Y-78430429D01*
X165076048Y-78620905D01*
X165028429Y-78716143D01*
X164980810Y-78763762D01*
X164885572Y-78811381D01*
X164790333Y-78811381D01*
X164695095Y-78763762D01*
X164647476Y-78716143D01*
X164599857Y-78620905D01*
X164552238Y-78430429D01*
X164552238Y-78192333D01*
X164599857Y-78001857D01*
X164647476Y-77906619D01*
X164695095Y-77859000D01*
X164790333Y-77811381D01*
X165457000Y-77811381D02*
X166076048Y-77811381D01*
X165742714Y-78192333D01*
X165885572Y-78192333D01*
X165980810Y-78239952D01*
X166028429Y-78287571D01*
X166076048Y-78382810D01*
X166076048Y-78620905D01*
X166028429Y-78716143D01*
X165980810Y-78763762D01*
X165885572Y-78811381D01*
X165599857Y-78811381D01*
X165504619Y-78763762D01*
X165457000Y-78716143D01*
X161742714Y-84796381D02*
X162314143Y-84796381D01*
X162028428Y-85796381D02*
X162028428Y-84796381D01*
X162647476Y-85796381D02*
X162647476Y-84796381D01*
X163028429Y-84796381D01*
X163123667Y-84844000D01*
X163171286Y-84891619D01*
X163218905Y-84986857D01*
X163218905Y-85129714D01*
X163171286Y-85224952D01*
X163123667Y-85272571D01*
X163028429Y-85320190D01*
X162647476Y-85320190D01*
X164171286Y-85796381D02*
X163599857Y-85796381D01*
X163885571Y-85796381D02*
X163885571Y-84796381D01*
X163790333Y-84939238D01*
X163695095Y-85034476D01*
X163599857Y-85082095D01*
X164790333Y-84796381D02*
X164885572Y-84796381D01*
X164980810Y-84844000D01*
X165028429Y-84891619D01*
X165076048Y-84986857D01*
X165123667Y-85177333D01*
X165123667Y-85415429D01*
X165076048Y-85605905D01*
X165028429Y-85701143D01*
X164980810Y-85748762D01*
X164885572Y-85796381D01*
X164790333Y-85796381D01*
X164695095Y-85748762D01*
X164647476Y-85701143D01*
X164599857Y-85605905D01*
X164552238Y-85415429D01*
X164552238Y-85177333D01*
X164599857Y-84986857D01*
X164647476Y-84891619D01*
X164695095Y-84844000D01*
X164790333Y-84796381D01*
X165980810Y-85129714D02*
X165980810Y-85796381D01*
X165742714Y-84748762D02*
X165504619Y-85463048D01*
X166123667Y-85463048D01*
X156662714Y-58761381D02*
X157234143Y-58761381D01*
X156948428Y-59761381D02*
X156948428Y-58761381D01*
X157567476Y-59761381D02*
X157567476Y-58761381D01*
X157948429Y-58761381D01*
X158043667Y-58809000D01*
X158091286Y-58856619D01*
X158138905Y-58951857D01*
X158138905Y-59094714D01*
X158091286Y-59189952D01*
X158043667Y-59237571D01*
X157948429Y-59285190D01*
X157567476Y-59285190D01*
X159091286Y-59761381D02*
X158519857Y-59761381D01*
X158805571Y-59761381D02*
X158805571Y-58761381D01*
X158710333Y-58904238D01*
X158615095Y-58999476D01*
X158519857Y-59047095D01*
X159710333Y-58761381D02*
X159805572Y-58761381D01*
X159900810Y-58809000D01*
X159948429Y-58856619D01*
X159996048Y-58951857D01*
X160043667Y-59142333D01*
X160043667Y-59380429D01*
X159996048Y-59570905D01*
X159948429Y-59666143D01*
X159900810Y-59713762D01*
X159805572Y-59761381D01*
X159710333Y-59761381D01*
X159615095Y-59713762D01*
X159567476Y-59666143D01*
X159519857Y-59570905D01*
X159472238Y-59380429D01*
X159472238Y-59142333D01*
X159519857Y-58951857D01*
X159567476Y-58856619D01*
X159615095Y-58809000D01*
X159710333Y-58761381D01*
X160948429Y-58761381D02*
X160472238Y-58761381D01*
X160424619Y-59237571D01*
X160472238Y-59189952D01*
X160567476Y-59142333D01*
X160805572Y-59142333D01*
X160900810Y-59189952D01*
X160948429Y-59237571D01*
X160996048Y-59332810D01*
X160996048Y-59570905D01*
X160948429Y-59666143D01*
X160900810Y-59713762D01*
X160805572Y-59761381D01*
X160567476Y-59761381D01*
X160472238Y-59713762D01*
X160424619Y-59666143D01*
X164552381Y-70667286D02*
X164552381Y-70095857D01*
X165552381Y-70381572D02*
X164552381Y-70381572D01*
X165552381Y-69762524D02*
X164552381Y-69762524D01*
X164552381Y-69381571D01*
X164600000Y-69286333D01*
X164647619Y-69238714D01*
X164742857Y-69191095D01*
X164885714Y-69191095D01*
X164980952Y-69238714D01*
X165028571Y-69286333D01*
X165076190Y-69381571D01*
X165076190Y-69762524D01*
X165552381Y-68238714D02*
X165552381Y-68810143D01*
X165552381Y-68524429D02*
X164552381Y-68524429D01*
X164695238Y-68619667D01*
X164790476Y-68714905D01*
X164838095Y-68810143D01*
X164552381Y-67619667D02*
X164552381Y-67524428D01*
X164600000Y-67429190D01*
X164647619Y-67381571D01*
X164742857Y-67333952D01*
X164933333Y-67286333D01*
X165171429Y-67286333D01*
X165361905Y-67333952D01*
X165457143Y-67381571D01*
X165504762Y-67429190D01*
X165552381Y-67524428D01*
X165552381Y-67619667D01*
X165504762Y-67714905D01*
X165457143Y-67762524D01*
X165361905Y-67810143D01*
X165171429Y-67857762D01*
X164933333Y-67857762D01*
X164742857Y-67810143D01*
X164647619Y-67762524D01*
X164600000Y-67714905D01*
X164552381Y-67619667D01*
X164552381Y-66429190D02*
X164552381Y-66619667D01*
X164600000Y-66714905D01*
X164647619Y-66762524D01*
X164790476Y-66857762D01*
X164980952Y-66905381D01*
X165361905Y-66905381D01*
X165457143Y-66857762D01*
X165504762Y-66810143D01*
X165552381Y-66714905D01*
X165552381Y-66524428D01*
X165504762Y-66429190D01*
X165457143Y-66381571D01*
X165361905Y-66333952D01*
X165123810Y-66333952D01*
X165028571Y-66381571D01*
X164980952Y-66429190D01*
X164933333Y-66524428D01*
X164933333Y-66714905D01*
X164980952Y-66810143D01*
X165028571Y-66857762D01*
X165123810Y-66905381D01*
X134778809Y-148947190D02*
X134778809Y-149423381D01*
X134445476Y-148423381D02*
X134778809Y-148947190D01*
X135112143Y-148423381D01*
X135969286Y-149423381D02*
X135397857Y-149423381D01*
X135683571Y-149423381D02*
X135683571Y-148423381D01*
X135588333Y-148566238D01*
X135493095Y-148661476D01*
X135397857Y-148709095D01*
D12*
X141405428Y-144199429D02*
X141381238Y-144223619D01*
X141308666Y-144247810D01*
X141260285Y-144247810D01*
X141187714Y-144223619D01*
X141139333Y-144175238D01*
X141115142Y-144126857D01*
X141090952Y-144030095D01*
X141090952Y-143957524D01*
X141115142Y-143860762D01*
X141139333Y-143812381D01*
X141187714Y-143764000D01*
X141260285Y-143739810D01*
X141308666Y-143739810D01*
X141381238Y-143764000D01*
X141405428Y-143788190D01*
X141574761Y-143739810D02*
X141889238Y-143739810D01*
X141719904Y-143933333D01*
X141792476Y-143933333D01*
X141840857Y-143957524D01*
X141865047Y-143981714D01*
X141889238Y-144030095D01*
X141889238Y-144151048D01*
X141865047Y-144199429D01*
X141840857Y-144223619D01*
X141792476Y-144247810D01*
X141647333Y-144247810D01*
X141598952Y-144223619D01*
X141574761Y-144199429D01*
X142131143Y-144247810D02*
X142227905Y-144247810D01*
X142276286Y-144223619D01*
X142300476Y-144199429D01*
X142348857Y-144126857D01*
X142373048Y-144030095D01*
X142373048Y-143836571D01*
X142348857Y-143788190D01*
X142324667Y-143764000D01*
X142276286Y-143739810D01*
X142179524Y-143739810D01*
X142131143Y-143764000D01*
X142106952Y-143788190D01*
X142082762Y-143836571D01*
X142082762Y-143957524D01*
X142106952Y-144005905D01*
X142131143Y-144030095D01*
X142179524Y-144054286D01*
X142276286Y-144054286D01*
X142324667Y-144030095D01*
X142348857Y-144005905D01*
X142373048Y-143957524D01*
X138230428Y-142675429D02*
X138206238Y-142699619D01*
X138133666Y-142723810D01*
X138085285Y-142723810D01*
X138012714Y-142699619D01*
X137964333Y-142651238D01*
X137940142Y-142602857D01*
X137915952Y-142506095D01*
X137915952Y-142433524D01*
X137940142Y-142336762D01*
X137964333Y-142288381D01*
X138012714Y-142240000D01*
X138085285Y-142215810D01*
X138133666Y-142215810D01*
X138206238Y-142240000D01*
X138230428Y-142264190D01*
X138665857Y-142385143D02*
X138665857Y-142723810D01*
X138544904Y-142191619D02*
X138423952Y-142554476D01*
X138738428Y-142554476D01*
X139028714Y-142215810D02*
X139077095Y-142215810D01*
X139125476Y-142240000D01*
X139149667Y-142264190D01*
X139173857Y-142312571D01*
X139198048Y-142409333D01*
X139198048Y-142530286D01*
X139173857Y-142627048D01*
X139149667Y-142675429D01*
X139125476Y-142699619D01*
X139077095Y-142723810D01*
X139028714Y-142723810D01*
X138980333Y-142699619D01*
X138956143Y-142675429D01*
X138931952Y-142627048D01*
X138907762Y-142530286D01*
X138907762Y-142409333D01*
X138931952Y-142312571D01*
X138956143Y-142264190D01*
X138980333Y-142240000D01*
X139028714Y-142215810D01*
X138230428Y-138865429D02*
X138206238Y-138889619D01*
X138133666Y-138913810D01*
X138085285Y-138913810D01*
X138012714Y-138889619D01*
X137964333Y-138841238D01*
X137940142Y-138792857D01*
X137915952Y-138696095D01*
X137915952Y-138623524D01*
X137940142Y-138526762D01*
X137964333Y-138478381D01*
X138012714Y-138430000D01*
X138085285Y-138405810D01*
X138133666Y-138405810D01*
X138206238Y-138430000D01*
X138230428Y-138454190D01*
X138665857Y-138575143D02*
X138665857Y-138913810D01*
X138544904Y-138381619D02*
X138423952Y-138744476D01*
X138738428Y-138744476D01*
X139198048Y-138913810D02*
X138907762Y-138913810D01*
X139052905Y-138913810D02*
X139052905Y-138405810D01*
X139004524Y-138478381D01*
X138956143Y-138526762D01*
X138907762Y-138550952D01*
X140897428Y-137849429D02*
X140873238Y-137873619D01*
X140800666Y-137897810D01*
X140752285Y-137897810D01*
X140679714Y-137873619D01*
X140631333Y-137825238D01*
X140607142Y-137776857D01*
X140582952Y-137680095D01*
X140582952Y-137607524D01*
X140607142Y-137510762D01*
X140631333Y-137462381D01*
X140679714Y-137414000D01*
X140752285Y-137389810D01*
X140800666Y-137389810D01*
X140873238Y-137414000D01*
X140897428Y-137438190D01*
X141332857Y-137559143D02*
X141332857Y-137897810D01*
X141211904Y-137365619D02*
X141090952Y-137728476D01*
X141405428Y-137728476D01*
X141574762Y-137438190D02*
X141598952Y-137414000D01*
X141647333Y-137389810D01*
X141768286Y-137389810D01*
X141816667Y-137414000D01*
X141840857Y-137438190D01*
X141865048Y-137486571D01*
X141865048Y-137534952D01*
X141840857Y-137607524D01*
X141550571Y-137897810D01*
X141865048Y-137897810D01*
X141405428Y-134420429D02*
X141381238Y-134444619D01*
X141308666Y-134468810D01*
X141260285Y-134468810D01*
X141187714Y-134444619D01*
X141139333Y-134396238D01*
X141115142Y-134347857D01*
X141090952Y-134251095D01*
X141090952Y-134178524D01*
X141115142Y-134081762D01*
X141139333Y-134033381D01*
X141187714Y-133985000D01*
X141260285Y-133960810D01*
X141308666Y-133960810D01*
X141381238Y-133985000D01*
X141405428Y-134009190D01*
X141840857Y-133960810D02*
X141744095Y-133960810D01*
X141695714Y-133985000D01*
X141671523Y-134009190D01*
X141623142Y-134081762D01*
X141598952Y-134178524D01*
X141598952Y-134372048D01*
X141623142Y-134420429D01*
X141647333Y-134444619D01*
X141695714Y-134468810D01*
X141792476Y-134468810D01*
X141840857Y-134444619D01*
X141865047Y-134420429D01*
X141889238Y-134372048D01*
X141889238Y-134251095D01*
X141865047Y-134202714D01*
X141840857Y-134178524D01*
X141792476Y-134154333D01*
X141695714Y-134154333D01*
X141647333Y-134178524D01*
X141623142Y-134202714D01*
X141598952Y-134251095D01*
X142324667Y-134130143D02*
X142324667Y-134468810D01*
X142203714Y-133936619D02*
X142082762Y-134299476D01*
X142397238Y-134299476D01*
X135611810Y-132660572D02*
X135369905Y-132829905D01*
X135611810Y-132950858D02*
X135103810Y-132950858D01*
X135103810Y-132757334D01*
X135128000Y-132708953D01*
X135152190Y-132684762D01*
X135200571Y-132660572D01*
X135273143Y-132660572D01*
X135321524Y-132684762D01*
X135345714Y-132708953D01*
X135369905Y-132757334D01*
X135369905Y-132950858D01*
X135611810Y-132176762D02*
X135611810Y-132467048D01*
X135611810Y-132321905D02*
X135103810Y-132321905D01*
X135176381Y-132370286D01*
X135224762Y-132418667D01*
X135248952Y-132467048D01*
X135611810Y-131692952D02*
X135611810Y-131983238D01*
X135611810Y-131838095D02*
X135103810Y-131838095D01*
X135176381Y-131886476D01*
X135224762Y-131934857D01*
X135248952Y-131983238D01*
X120450428Y-103988810D02*
X120281095Y-103746905D01*
X120160142Y-103988810D02*
X120160142Y-103480810D01*
X120353666Y-103480810D01*
X120402047Y-103505000D01*
X120426238Y-103529190D01*
X120450428Y-103577571D01*
X120450428Y-103650143D01*
X120426238Y-103698524D01*
X120402047Y-103722714D01*
X120353666Y-103746905D01*
X120160142Y-103746905D01*
X120934238Y-103988810D02*
X120643952Y-103988810D01*
X120789095Y-103988810D02*
X120789095Y-103480810D01*
X120740714Y-103553381D01*
X120692333Y-103601762D01*
X120643952Y-103625952D01*
X121103571Y-103480810D02*
X121418048Y-103480810D01*
X121248714Y-103674333D01*
X121321286Y-103674333D01*
X121369667Y-103698524D01*
X121393857Y-103722714D01*
X121418048Y-103771095D01*
X121418048Y-103892048D01*
X121393857Y-103940429D01*
X121369667Y-103964619D01*
X121321286Y-103988810D01*
X121176143Y-103988810D01*
X121127762Y-103964619D01*
X121103571Y-103940429D01*
X131245428Y-113513810D02*
X131076095Y-113271905D01*
X130955142Y-113513810D02*
X130955142Y-113005810D01*
X131148666Y-113005810D01*
X131197047Y-113030000D01*
X131221238Y-113054190D01*
X131245428Y-113102571D01*
X131245428Y-113175143D01*
X131221238Y-113223524D01*
X131197047Y-113247714D01*
X131148666Y-113271905D01*
X130955142Y-113271905D01*
X131729238Y-113513810D02*
X131438952Y-113513810D01*
X131584095Y-113513810D02*
X131584095Y-113005810D01*
X131535714Y-113078381D01*
X131487333Y-113126762D01*
X131438952Y-113150952D01*
X132164667Y-113175143D02*
X132164667Y-113513810D01*
X132043714Y-112981619D02*
X131922762Y-113344476D01*
X132237238Y-113344476D01*
X120450428Y-81128810D02*
X120281095Y-80886905D01*
X120160142Y-81128810D02*
X120160142Y-80620810D01*
X120353666Y-80620810D01*
X120402047Y-80645000D01*
X120426238Y-80669190D01*
X120450428Y-80717571D01*
X120450428Y-80790143D01*
X120426238Y-80838524D01*
X120402047Y-80862714D01*
X120353666Y-80886905D01*
X120160142Y-80886905D01*
X120934238Y-81128810D02*
X120643952Y-81128810D01*
X120789095Y-81128810D02*
X120789095Y-80620810D01*
X120740714Y-80693381D01*
X120692333Y-80741762D01*
X120643952Y-80765952D01*
X121393857Y-80620810D02*
X121151952Y-80620810D01*
X121127762Y-80862714D01*
X121151952Y-80838524D01*
X121200333Y-80814333D01*
X121321286Y-80814333D01*
X121369667Y-80838524D01*
X121393857Y-80862714D01*
X121418048Y-80911095D01*
X121418048Y-81032048D01*
X121393857Y-81080429D01*
X121369667Y-81104619D01*
X121321286Y-81128810D01*
X121200333Y-81128810D01*
X121151952Y-81104619D01*
X121127762Y-81080429D01*
X131245428Y-90653810D02*
X131076095Y-90411905D01*
X130955142Y-90653810D02*
X130955142Y-90145810D01*
X131148666Y-90145810D01*
X131197047Y-90170000D01*
X131221238Y-90194190D01*
X131245428Y-90242571D01*
X131245428Y-90315143D01*
X131221238Y-90363524D01*
X131197047Y-90387714D01*
X131148666Y-90411905D01*
X130955142Y-90411905D01*
X131729238Y-90653810D02*
X131438952Y-90653810D01*
X131584095Y-90653810D02*
X131584095Y-90145810D01*
X131535714Y-90218381D01*
X131487333Y-90266762D01*
X131438952Y-90290952D01*
X132164667Y-90145810D02*
X132067905Y-90145810D01*
X132019524Y-90170000D01*
X131995333Y-90194190D01*
X131946952Y-90266762D01*
X131922762Y-90363524D01*
X131922762Y-90557048D01*
X131946952Y-90605429D01*
X131971143Y-90629619D01*
X132019524Y-90653810D01*
X132116286Y-90653810D01*
X132164667Y-90629619D01*
X132188857Y-90605429D01*
X132213048Y-90557048D01*
X132213048Y-90436095D01*
X132188857Y-90387714D01*
X132164667Y-90363524D01*
X132116286Y-90339333D01*
X132019524Y-90339333D01*
X131971143Y-90363524D01*
X131946952Y-90387714D01*
X131922762Y-90436095D01*
X156645428Y-115418810D02*
X156476095Y-115176905D01*
X156355142Y-115418810D02*
X156355142Y-114910810D01*
X156548666Y-114910810D01*
X156597047Y-114935000D01*
X156621238Y-114959190D01*
X156645428Y-115007571D01*
X156645428Y-115080143D01*
X156621238Y-115128524D01*
X156597047Y-115152714D01*
X156548666Y-115176905D01*
X156355142Y-115176905D01*
X157129238Y-115418810D02*
X156838952Y-115418810D01*
X156984095Y-115418810D02*
X156984095Y-114910810D01*
X156935714Y-114983381D01*
X156887333Y-115031762D01*
X156838952Y-115055952D01*
X157298571Y-114910810D02*
X157637238Y-114910810D01*
X157419524Y-115418810D01*
X157201810Y-112340572D02*
X156959905Y-112509905D01*
X157201810Y-112630858D02*
X156693810Y-112630858D01*
X156693810Y-112437334D01*
X156718000Y-112388953D01*
X156742190Y-112364762D01*
X156790571Y-112340572D01*
X156863143Y-112340572D01*
X156911524Y-112364762D01*
X156935714Y-112388953D01*
X156959905Y-112437334D01*
X156959905Y-112630858D01*
X157201810Y-111856762D02*
X157201810Y-112147048D01*
X157201810Y-112001905D02*
X156693810Y-112001905D01*
X156766381Y-112050286D01*
X156814762Y-112098667D01*
X156838952Y-112147048D01*
X156911524Y-111566476D02*
X156887333Y-111614857D01*
X156863143Y-111639048D01*
X156814762Y-111663238D01*
X156790571Y-111663238D01*
X156742190Y-111639048D01*
X156718000Y-111614857D01*
X156693810Y-111566476D01*
X156693810Y-111469714D01*
X156718000Y-111421333D01*
X156742190Y-111397143D01*
X156790571Y-111372952D01*
X156814762Y-111372952D01*
X156863143Y-111397143D01*
X156887333Y-111421333D01*
X156911524Y-111469714D01*
X156911524Y-111566476D01*
X156935714Y-111614857D01*
X156959905Y-111639048D01*
X157008286Y-111663238D01*
X157105048Y-111663238D01*
X157153429Y-111639048D01*
X157177619Y-111614857D01*
X157201810Y-111566476D01*
X157201810Y-111469714D01*
X157177619Y-111421333D01*
X157153429Y-111397143D01*
X157105048Y-111372952D01*
X157008286Y-111372952D01*
X156959905Y-111397143D01*
X156935714Y-111421333D01*
X156911524Y-111469714D01*
X157201810Y-89480572D02*
X156959905Y-89649905D01*
X157201810Y-89770858D02*
X156693810Y-89770858D01*
X156693810Y-89577334D01*
X156718000Y-89528953D01*
X156742190Y-89504762D01*
X156790571Y-89480572D01*
X156863143Y-89480572D01*
X156911524Y-89504762D01*
X156935714Y-89528953D01*
X156959905Y-89577334D01*
X156959905Y-89770858D01*
X157201810Y-88996762D02*
X157201810Y-89287048D01*
X157201810Y-89141905D02*
X156693810Y-89141905D01*
X156766381Y-89190286D01*
X156814762Y-89238667D01*
X156838952Y-89287048D01*
X157201810Y-88754857D02*
X157201810Y-88658095D01*
X157177619Y-88609714D01*
X157153429Y-88585524D01*
X157080857Y-88537143D01*
X156984095Y-88512952D01*
X156790571Y-88512952D01*
X156742190Y-88537143D01*
X156718000Y-88561333D01*
X156693810Y-88609714D01*
X156693810Y-88706476D01*
X156718000Y-88754857D01*
X156742190Y-88779048D01*
X156790571Y-88803238D01*
X156911524Y-88803238D01*
X156959905Y-88779048D01*
X156984095Y-88754857D01*
X157008286Y-88706476D01*
X157008286Y-88609714D01*
X156984095Y-88561333D01*
X156959905Y-88537143D01*
X156911524Y-88512952D01*
X156645428Y-92558810D02*
X156476095Y-92316905D01*
X156355142Y-92558810D02*
X156355142Y-92050810D01*
X156548666Y-92050810D01*
X156597047Y-92075000D01*
X156621238Y-92099190D01*
X156645428Y-92147571D01*
X156645428Y-92220143D01*
X156621238Y-92268524D01*
X156597047Y-92292714D01*
X156548666Y-92316905D01*
X156355142Y-92316905D01*
X156838952Y-92099190D02*
X156863142Y-92075000D01*
X156911523Y-92050810D01*
X157032476Y-92050810D01*
X157080857Y-92075000D01*
X157105047Y-92099190D01*
X157129238Y-92147571D01*
X157129238Y-92195952D01*
X157105047Y-92268524D01*
X156814761Y-92558810D01*
X157129238Y-92558810D01*
X157443714Y-92050810D02*
X157492095Y-92050810D01*
X157540476Y-92075000D01*
X157564667Y-92099190D01*
X157588857Y-92147571D01*
X157613048Y-92244333D01*
X157613048Y-92365286D01*
X157588857Y-92462048D01*
X157564667Y-92510429D01*
X157540476Y-92534619D01*
X157492095Y-92558810D01*
X157443714Y-92558810D01*
X157395333Y-92534619D01*
X157371143Y-92510429D01*
X157346952Y-92462048D01*
X157322762Y-92365286D01*
X157322762Y-92244333D01*
X157346952Y-92147571D01*
X157371143Y-92099190D01*
X157395333Y-92075000D01*
X157443714Y-92050810D01*
X132515428Y-70333810D02*
X132346095Y-70091905D01*
X132225142Y-70333810D02*
X132225142Y-69825810D01*
X132418666Y-69825810D01*
X132467047Y-69850000D01*
X132491238Y-69874190D01*
X132515428Y-69922571D01*
X132515428Y-69995143D01*
X132491238Y-70043524D01*
X132467047Y-70067714D01*
X132418666Y-70091905D01*
X132225142Y-70091905D01*
X132708952Y-69874190D02*
X132733142Y-69850000D01*
X132781523Y-69825810D01*
X132902476Y-69825810D01*
X132950857Y-69850000D01*
X132975047Y-69874190D01*
X132999238Y-69922571D01*
X132999238Y-69970952D01*
X132975047Y-70043524D01*
X132684761Y-70333810D01*
X132999238Y-70333810D01*
X133168571Y-69825810D02*
X133483048Y-69825810D01*
X133313714Y-70019333D01*
X133386286Y-70019333D01*
X133434667Y-70043524D01*
X133458857Y-70067714D01*
X133483048Y-70116095D01*
X133483048Y-70237048D01*
X133458857Y-70285429D01*
X133434667Y-70309619D01*
X133386286Y-70333810D01*
X133241143Y-70333810D01*
X133192762Y-70309619D01*
X133168571Y-70285429D01*
X157280428Y-70333810D02*
X157111095Y-70091905D01*
X156990142Y-70333810D02*
X156990142Y-69825810D01*
X157183666Y-69825810D01*
X157232047Y-69850000D01*
X157256238Y-69874190D01*
X157280428Y-69922571D01*
X157280428Y-69995143D01*
X157256238Y-70043524D01*
X157232047Y-70067714D01*
X157183666Y-70091905D01*
X156990142Y-70091905D01*
X157473952Y-69874190D02*
X157498142Y-69850000D01*
X157546523Y-69825810D01*
X157667476Y-69825810D01*
X157715857Y-69850000D01*
X157740047Y-69874190D01*
X157764238Y-69922571D01*
X157764238Y-69970952D01*
X157740047Y-70043524D01*
X157449761Y-70333810D01*
X157764238Y-70333810D01*
X158199667Y-69995143D02*
X158199667Y-70333810D01*
X158078714Y-69801619D02*
X157957762Y-70164476D01*
X158272238Y-70164476D01*
D14*
X126063477Y-144486381D02*
X126063477Y-145200667D01*
X126015857Y-145343524D01*
X125920619Y-145438762D01*
X125777762Y-145486381D01*
X125682524Y-145486381D01*
X127063477Y-145486381D02*
X126492048Y-145486381D01*
X126777762Y-145486381D02*
X126777762Y-144486381D01*
X126682524Y-144629238D01*
X126587286Y-144724476D01*
X126492048Y-144772095D01*
X127920620Y-144819714D02*
X127920620Y-145486381D01*
X127682524Y-144438762D02*
X127444429Y-145153048D01*
X128063477Y-145153048D01*
X111077477Y-67226381D02*
X111077477Y-67940667D01*
X111029857Y-68083524D01*
X110934619Y-68178762D01*
X110791762Y-68226381D01*
X110696524Y-68226381D01*
X112077477Y-68226381D02*
X111506048Y-68226381D01*
X111791762Y-68226381D02*
X111791762Y-67226381D01*
X111696524Y-67369238D01*
X111601286Y-67464476D01*
X111506048Y-67512095D01*
X112982239Y-67226381D02*
X112506048Y-67226381D01*
X112458429Y-67702571D01*
X112506048Y-67654952D01*
X112601286Y-67607333D01*
X112839382Y-67607333D01*
X112934620Y-67654952D01*
X112982239Y-67702571D01*
X113029858Y-67797810D01*
X113029858Y-68035905D01*
X112982239Y-68131143D01*
X112934620Y-68178762D01*
X112839382Y-68226381D01*
X112601286Y-68226381D01*
X112506048Y-68178762D01*
X112458429Y-68131143D01*
X142624381Y-140715905D02*
X143433905Y-140715905D01*
X143529143Y-140668286D01*
X143576762Y-140620667D01*
X143624381Y-140525429D01*
X143624381Y-140334952D01*
X143576762Y-140239714D01*
X143529143Y-140192095D01*
X143433905Y-140144476D01*
X142624381Y-140144476D01*
X142957714Y-139239714D02*
X143624381Y-139239714D01*
X142576762Y-139477810D02*
X143291048Y-139715905D01*
X143291048Y-139096857D01*
M02*
